<svg width="512" height="512" viewBox="0 0 512 512" fill="none" xmlns="http://www.w3.org/2000/svg" xmlns:xlink="http://www.w3.org/1999/xlink" class=""><rect id="ra4" width="512" height="512" x="0" y="0" rx="128" fill="url(#ra5)" stroke="#FFFFFF" stroke-width="0" stroke-opacity="100%" paint-order="stroke"></rect><clipPath id="clip"><use xlink:href="#ra4"></use></clipPath><defs><radialGradient id="ra5" cx="50%" cy="50%" r="100%" fx="50%" fy="0%" gradientUnits="objectBoundingBox"><stop stop-color="#1D6E47"></stop><stop offset="1" stop-color="#041B11"></stop></radialGradient><radialGradient id="ra6" cx="0" cy="0" r="1" gradientUnits="userSpaceOnUse" gradientTransform="translate(256) rotate(90) scale(512)"><stop stop-color="white"></stop><stop offset="1" stop-color="white" stop-opacity="0"></stop></radialGradient></defs><svg xmlns="http://www.w3.org/2000/svg" width="380" height="380" viewBox="0 0 640 512" x="66" y="66" alignment-baseline="middle" style="color: rgb(220, 238, 222);"><path fill="currentColor" d="M535 41c-9.4-9.4-9.4-24.6 0-33.9s24.6-9.4 33.9 0l64 64c4.5 4.5 7 10.6 7 17s-2.5 12.5-7 17l-64 64c-9.4 9.4-24.6 9.4-33.9 0s-9.4-24.6 0-33.9l23-23l-174-.2c-13.3 0-24-10.7-24-24s10.7-24 24-24h174.1zM105 377l-23 23h174c13.3 0 24 10.7 24 24s-10.7 24-24 24H81.9l23 23c9.4 9.4 9.4 24.6 0 33.9s-24.6 9.4-33.9 0L7 441c-4.5-4.5-7-10.6-7-17s2.5-12.5 7-17l64-64c9.4-9.4 24.6-9.4 33.9 0s9.4 24.6 0 33.9zM96 64h241.9c-3.7 7.2-5.9 15.3-5.9 24c0 28.7 23.3 52 52 52h117.4c-4 17 .6 35.5 13.8 48.8c20.3 20.3 53.2 20.3 73.5 0l19.3-19.3V384c0 35.3-28.7 64-64 64H302.1c3.7-7.2 5.9-15.3 5.9-24c0-28.7-23.3-52-52-52H138.6c4-17-.6-35.5-13.8-48.8c-20.3-20.3-53.2-20.3-73.5 0L32 342.5V128c0-35.3 28.7-64 64-64m64 64H96v64c35.3 0 64-28.7 64-64m384 192c-35.3 0-64 28.7-64 64h64zm-224 32a96 96 0 1 0 0-192a96 96 0 1 0 0 192"></path></svg></svg>