<svg width="143" height="125" viewBox="0 0 143 125" fill="none" xmlns="http://www.w3.org/2000/svg">
<path d="M70.3127 106.598C98.3127 106.598 121.013 83.898 121.013 55.798C121.013 27.698 98.2127 4.99799 70.3127 4.99799C42.3127 4.99799 19.6127 27.698 19.6127 55.798C19.6127 83.898 42.3127 106.598 70.3127 106.598Z" fill="#EAEEF9"/>
<path d="M123.713 6.49795C125.259 6.49795 126.513 5.24435 126.513 3.69795C126.513 2.15155 125.259 0.897949 123.713 0.897949C122.166 0.897949 120.913 2.15155 120.913 3.69795C120.913 5.24435 122.166 6.49795 123.713 6.49795Z" fill="#E7EBF6"/>
<path d="M22.3127 22.3979C23.8591 22.3979 25.1127 21.1443 25.1127 19.5979C25.1127 18.0515 23.8591 16.7979 22.3127 16.7979C20.7663 16.7979 19.5127 18.0515 19.5127 19.5979C19.5127 21.1443 20.7663 22.3979 22.3127 22.3979Z" fill="#E7EBF6"/>
<path d="M5.2127 76.3979C8.08458 76.3979 10.4127 74.0698 10.4127 71.1979C10.4127 68.326 8.08458 65.9979 5.2127 65.9979C2.34081 65.9979 0.0126953 68.326 0.0126953 71.1979C0.0126953 74.0698 2.34081 76.3979 5.2127 76.3979Z" fill="#E7EBF6"/>
<g filter="url(#filter0_d_1994_1175)">
<path d="M118.624 29.1148V87.9525C118.624 89.6788 117.185 91.1173 115.459 91.1173H26.0516C24.3253 91.1893 22.8867 89.7507 22.8867 88.0244V29.1148C22.8867 27.3166 24.3253 25.95 26.0516 25.95H115.459C117.257 25.95 118.624 27.3885 118.624 29.1148Z" fill="url(#paint0_linear_1994_1175)"/>
</g>
<path d="M118.624 29.1148V33.6463H22.8867V29.1148C22.8867 27.3166 24.3253 25.95 26.0516 25.95H115.459C117.257 25.95 118.624 27.3885 118.624 29.1148Z" fill="url(#paint1_linear_1994_1175)"/>
<path d="M57.5564 56.4476C59.0262 56.4476 60.2177 55.2561 60.2177 53.7863C60.2177 52.3164 59.0262 51.1249 57.5564 51.1249C56.0865 51.1249 54.895 52.3164 54.895 53.7863C54.895 55.2561 56.0865 56.4476 57.5564 56.4476Z" fill="#989FB0"/>
<path d="M84.0261 56.4476C85.4959 56.4476 86.6875 55.2561 86.6875 53.7863C86.6875 52.3164 85.4959 51.1249 84.0261 51.1249C82.5563 51.1249 81.3647 52.3164 81.3647 53.7863C81.3647 55.2561 82.5563 56.4476 84.0261 56.4476Z" fill="#989FB0"/>
<path d="M75.107 73.9262H66.7632C65.4685 73.9262 64.3896 72.8473 64.3896 71.5525C64.3896 70.2578 65.4685 69.1789 66.7632 69.1789H75.035C76.3297 69.1789 77.4087 70.2578 77.4087 71.5525C77.4806 72.8473 76.4017 73.9262 75.107 73.9262Z" fill="#989FB0"/>
<path d="M27.1305 31.1286C27.7264 31.1286 28.2095 30.6456 28.2095 30.0497C28.2095 29.4538 27.7264 28.9708 27.1305 28.9708C26.5347 28.9708 26.0516 29.4538 26.0516 30.0497C26.0516 30.6456 26.5347 31.1286 27.1305 31.1286Z" fill="#F9FAFB"/>
<path d="M30.5111 31.1286C31.107 31.1286 31.5901 30.6456 31.5901 30.0497C31.5901 29.4538 31.107 28.9708 30.5111 28.9708C29.9153 28.9708 29.4322 29.4538 29.4322 30.0497C29.4322 30.6456 29.9153 31.1286 30.5111 31.1286Z" fill="#F9FAFB"/>
<path d="M33.9638 31.1286C34.5596 31.1286 35.0427 30.6456 35.0427 30.0497C35.0427 29.4538 34.5596 28.9708 33.9638 28.9708C33.3679 28.9708 32.8848 29.4538 32.8848 30.0497C32.8848 30.6456 33.3679 31.1286 33.9638 31.1286Z" fill="#F9FAFB"/>
<path d="M114.74 18.3254C114.02 18.3254 113.445 17.75 113.445 17.0307V2.57304C113.445 1.85375 114.02 1.27832 114.74 1.27832C115.459 1.27832 116.034 1.85375 116.034 2.57304V17.0307C116.034 17.75 115.459 18.3254 114.74 18.3254Z" fill="#989FB0"/>
<path d="M125.241 29.4024C125.241 28.6831 125.817 28.1077 126.536 28.1077H140.994C141.713 28.1077 142.288 28.6831 142.288 29.4024C142.288 30.1217 141.713 30.6971 140.994 30.6971H126.536C125.817 30.6971 125.241 30.1217 125.241 29.4024Z" fill="#989FB0"/>
<path d="M124.09 20.0517C123.587 19.5482 123.587 18.6851 124.09 18.1816L134.376 7.96771C134.88 7.46421 135.743 7.46421 136.246 7.96771C136.75 8.47121 136.75 9.33436 136.246 9.83786L126.032 20.0517C125.457 20.5552 124.594 20.5552 124.09 20.0517Z" fill="#989FB0"/>
<defs>
<filter id="filter0_d_1994_1175" x="0.886726" y="14.95" width="139.737" height="109.17" filterUnits="userSpaceOnUse" color-interpolation-filters="sRGB">
<feFlood flood-opacity="0" result="BackgroundImageFix"/>
<feColorMatrix in="SourceAlpha" type="matrix" values="0 0 0 0 0 0 0 0 0 0 0 0 0 0 0 0 0 0 127 0" result="hardAlpha"/>
<feOffset dy="11"/>
<feGaussianBlur stdDeviation="11"/>
<feColorMatrix type="matrix" values="0 0 0 0 0.397708 0 0 0 0 0.47749 0 0 0 0 0.575 0 0 0 0.27 0"/>
<feBlend mode="normal" in2="BackgroundImageFix" result="effect1_dropShadow_1994_1175"/>
<feBlend mode="normal" in="SourceGraphic" in2="effect1_dropShadow_1994_1175" result="shape"/>
</filter>
<linearGradient id="paint0_linear_1994_1175" x1="70.7241" y1="24.4425" x2="70.7241" y2="91.8225" gradientUnits="userSpaceOnUse">
<stop stop-color="#FDFEFF"/>
<stop offset="0.9964" stop-color="#ECF0F5"/>
</linearGradient>
<linearGradient id="paint1_linear_1994_1175" x1="114.826" y1="25.95" x2="25.9716" y2="29.7982" gradientUnits="userSpaceOnUse">
<stop stop-color="#B0BACC"/>
<stop offset="1" stop-color="#969EAE"/>
</linearGradient>
</defs>
</svg>
