<svg width="301" height="300" viewBox="0 0 301 300" fill="none" xmlns="http://www.w3.org/2000/svg">
<rect width="300" height="300" transform="translate(0.5)" fill="white"/>
<path fill-rule="evenodd" clip-rule="evenodd" d="M193.665 63.981C219.478 58.2027 243.393 65.0583 256.246 84.6403C269.1 104.222 265.738 135.295 262.953 149.01C260.169 162.726 253.106 175.288 244.339 186.195C228.057 206.452 206.053 221.953 181.455 230.321C156.856 238.689 130.149 240.405 104.515 236.171C90.1349 233.797 45.1532 222.163 35.4433 187.056C25.7334 151.949 19.5882 121.943 40.6151 109.755C61.6421 97.5662 76.2067 106.733 86.6161 111.242C135.247 132.303 167.852 69.7593 193.665 63.981Z" fill="#C7D2FE"/>
<path fill-rule="evenodd" clip-rule="evenodd" d="M230.013 96.8641C234.154 96.5443 238.618 96.7512 241.992 99.1723C245.366 101.593 246.899 106.91 244.128 110.004C247.261 108.779 250.943 110.856 252.512 113.831C254.081 116.806 253.999 120.371 253.527 123.701C252.358 131.948 248.996 139.874 243.878 146.447C243.643 147.14 243.408 147.833 243.173 148.526C249.221 150.085 272.84 159.257 266.458 181.869C260.077 204.481 232.207 213.088 229.354 215.794C224.382 220.511 216.793 220.834 209.942 220.616C193.099 220.082 176.307 217.941 159.868 214.233C158.471 213.918 156.7 213.726 155.895 214.911C150.063 223.484 137.869 224.251 127.527 223.504C114.243 222.546 101.035 220.531 88.0696 217.485C80.7151 215.758 72.9053 213.352 68.3236 207.346C62.9824 200.343 63.5992 190.634 64.4659 181.869C60.9553 183.821 55.1326 184.878 46.998 185.041C42.2086 184.064 39.221 182.328 38.0354 179.832C32.6137 168.421 30.7544 153.716 37.506 142.468C38.3171 141.117 39.2528 139.786 40.5735 138.926C41.9736 138.014 43.6805 137.714 45.3448 137.567C51.9088 136.986 58.6437 138.518 64.3102 141.882C64.2596 123.464 64.209 105.047 64.1584 86.6301C64.1555 85.5754 64.1702 84.4563 64.7325 83.564C65.5458 82.2734 67.2118 81.8733 68.7114 81.5934C82.3523 79.047 96.148 77.3296 109.997 76.4539C114.522 76.1677 120.715 77.4271 120.735 81.9611C120.814 99.3247 120.893 116.688 120.972 134.052C120.991 138.185 121.256 137.839 123.193 136.641C121.975 136.768 122.247 134.703 123.169 133.899C126.613 130.897 131.631 130.787 136.198 130.834C146.416 130.938 156.633 131.043 166.851 131.147C176.751 131.249 188.623 132.504 193.105 141.332C192.975 138.708 195.352 136.232 197.979 136.257C200.844 136.283 203.239 133.798 204.076 131.058C204.912 128.318 204.543 125.374 204.167 122.534C199.548 118.061 198.339 110.459 201.342 104.774C204.346 99.0889 211.307 95.8031 217.605 97.0981C221.673 97.9346 225.873 97.1839 230.013 96.8641ZM111.455 182.037C111.319 185.693 111.175 189.398 110.099 192.894L111.455 182.037ZM107.222 137.172C108.173 137.45 109.349 138.293 108.85 139.149C112.981 139.562 111.748 139.371 111.933 134.503C112.122 129.563 112.138 124.101 108.904 120.362C106.042 117.054 101.375 116.019 97.0166 115.647C91.9295 115.212 86.7877 115.421 81.7525 116.266C79.2957 116.679 76.6345 117.389 75.2088 119.432C74.4109 120.575 74.1173 121.987 73.8829 123.362C72.9608 128.768 72.6729 134.282 73.0268 139.755C83.6181 134.827 96.0102 133.891 107.222 137.172ZM199.138 173.466C199.397 173.204 199.79 173.141 200.154 173.091C201.61 172.89 203.065 172.69 204.521 172.49C201.18 170.981 199.156 167.398 198.551 163.783C197.946 160.168 198.537 156.472 199.133 152.855C196.997 155.233 197.151 158.821 197.43 162.005C198.043 168.975 198.88 173.727 199.138 173.466ZM171.657 207.797C171.944 206.866 172.918 206.366 173.632 205.703C174.916 204.509 175.393 202.705 175.812 201.002C177.26 195.118 178.717 189.163 178.698 183.104C178.694 181.82 178.629 180.501 179.054 179.29C179.479 178.079 180.544 176.984 181.828 176.977C183.182 176.971 183.505 175.093 183.384 173.745C182.967 169.096 182.549 164.448 182.132 159.799C181.999 158.315 181.863 156.816 181.412 155.395C179.746 150.142 173.327 146.965 168.14 148.828C167.505 149.056 167.335 149.858 167.263 150.529C166.465 157.964 165.666 165.4 164.868 172.835C164.726 174.156 166.432 174.999 167.72 174.672C169.008 174.345 169.991 173.339 171.104 172.614C172.218 171.889 173.787 171.472 174.81 172.32C175.965 173.279 177.676 172.214 178.68 171.097C179.684 169.98 180.991 168.634 182.418 169.1C180.744 170.701 179.069 172.303 177.395 173.905C176.839 174.436 176.349 175.497 177.051 175.811C178.975 175.129 180.715 173.933 182.041 172.38C182.654 172.361 182.683 173.324 182.341 173.833C181.052 175.752 178.017 176.179 177.236 178.355C175.412 183.433 169.725 186.806 164.394 185.97C163.301 185.799 162.756 187.237 162.624 188.336C162.1 192.718 161.575 197.099 161.05 201.481C160.929 202.489 160.817 203.555 161.232 204.481C161.924 206.027 163.776 206.612 165.419 207.028C167.589 207.578 169.784 208.131 172.003 208.371C172.937 208.472 172.933 208.13 171.657 207.797ZM85.1875 199.763C88.2887 200.802 91.5712 201.154 94.8235 201.5C96.2027 201.646 97.6715 201.777 98.9087 201.151C100.365 200.413 101.141 198.814 101.768 197.306C105.261 188.899 107.255 179.871 107.629 170.774C107.682 169.481 106.027 168.911 104.736 168.824C94.4315 168.132 84.5764 172.662 75.2437 177.086C74.7965 177.298 74.3177 177.54 74.0967 177.983C73.9319 178.313 73.9406 178.699 73.9528 179.068C74.12 184.094 74.3309 189.3 76.5785 193.798C77.1855 195.012 77.9576 196.182 79.0507 196.987C79.7129 197.475 80.4709 197.814 81.2224 198.149C82.5266 198.729 83.8337 199.31 85.1875 199.763ZM151.85 181.164C153.224 173.777 154.192 166.315 154.749 158.822C154.939 156.258 155.079 153.652 154.525 151.142C153.97 148.632 152.633 146.193 150.448 144.84C149.101 144.006 147.525 143.632 145.965 143.354C143.12 142.846 140.225 142.616 137.335 142.667C134.785 142.713 132.109 143.024 130.027 144.497C129.338 144.984 128.713 145.622 128.462 146.427C128.21 147.232 128.422 148.221 129.12 148.694C130.885 149.89 131.605 152.126 131.936 154.232C132.266 156.338 132.346 158.543 133.306 160.447C133.8 161.428 134.51 162.285 135.254 163.094C139.289 167.481 144.552 170.726 150.284 172.362C151.292 172.65 152.574 173.272 152.361 174.298C155.531 176.298 151.798 181.447 151.85 181.164ZM143.114 202.951C144.281 202.242 145.073 201.062 145.769 199.887C148.725 194.904 150.664 189.319 151.431 183.576C140.799 183.528 130.23 179.516 122.244 172.497C121.97 173.594 122.023 174.742 122.06 175.872C122.293 182.926 121.875 190.002 120.811 196.979C120.558 198.642 121.552 200.305 122.918 201.288C124.284 202.27 125.966 202.692 127.619 203.01C131.343 203.727 135.149 204.022 138.939 203.885C140.381 203.833 141.882 203.7 143.114 202.951ZM210.206 142.105C209.586 140.612 209.121 138.928 207.835 137.947C206.55 136.967 204.129 137.446 204.053 139.062C205.326 138.827 206.298 140.398 206.082 141.674C205.865 142.949 204.937 143.964 204.201 145.027C203.183 146.497 202.486 148.16 201.798 149.81C200.159 153.735 199.521 158.074 199.961 162.305C200.219 164.795 200.902 167.354 202.586 169.207C204.271 171.061 207.158 171.987 209.377 170.827C211.283 169.831 212.234 167.635 212.671 165.529C213.108 163.423 213.186 161.218 214.012 159.232C215.536 155.568 219.293 153.355 223.01 151.965C217.422 151.206 212.367 147.313 210.206 142.105ZM194.756 146.069C195.004 147.029 195.348 147.965 195.781 148.857C196.041 147.599 196.458 146.374 197.02 145.219C196.451 145.154 195.879 145.123 195.307 145.127C195.169 145.128 195.022 145.133 194.905 145.207C194.64 145.375 194.677 145.766 194.756 146.069ZM127.409 145.08C127.057 145.363 126.851 145.972 127.222 146.229C127.791 145.66 128.36 145.09 128.928 144.521C128.811 144.375 128.64 144.273 128.456 144.24C128.23 144.631 127.761 144.797 127.409 145.08Z" fill="white"/>
<path d="M225.9 141C227.115 141 228.1 140.015 228.1 138.8C228.1 137.585 227.115 136.6 225.9 136.6C224.685 136.6 223.7 137.585 223.7 138.8C223.7 140.015 224.685 141 225.9 141Z" fill="#FFB61D"/>
<path d="M213.3 138.8C213.963 138.8 214.5 138.263 214.5 137.6C214.5 136.937 213.963 136.4 213.3 136.4C212.637 136.4 212.1 136.937 212.1 137.6C212.1 138.263 212.637 138.8 213.3 138.8Z" fill="#FFB61D"/>
<path fill-rule="evenodd" clip-rule="evenodd" d="M99.6703 107.231C103.27 107.253 106.87 107.276 110.47 107.299C110.639 107.3 110.82 107.305 110.956 107.405C111.233 107.609 111.122 108.086 110.837 108.278C110.551 108.471 110.18 108.462 109.836 108.45C106.668 108.341 103.49 108.505 100.35 108.942C99.8729 109.008 99.3691 109.078 98.9225 108.896C98.4759 108.715 98.1343 108.18 98.3399 107.744C98.5546 107.288 99.1666 107.227 99.6703 107.231ZM87.6319 106.877C87.86 107.105 87.7507 107.522 87.4973 107.721C87.2438 107.92 86.9044 107.959 86.584 107.992C83.3924 108.315 80.2009 108.638 77.0094 108.961C76.632 108.999 76.2418 109.036 75.8806 108.92C75.5195 108.804 75.1928 108.492 75.1843 108.112C75.1754 107.721 75.5078 107.389 75.8787 107.264C76.2496 107.139 76.6526 107.174 77.0427 107.205C80.3128 107.462 83.6147 107.314 86.8486 106.764C87.1194 106.718 87.4373 106.683 87.6319 106.877ZM87.1849 100.751C87.4233 100.943 87.3385 101.356 87.0992 101.547C86.8599 101.739 86.5342 101.77 86.2287 101.795L75.9794 102.603C75.5957 102.633 75.1982 102.662 74.8363 102.531C74.4743 102.4 74.1569 102.063 74.1777 101.679C74.1987 101.289 74.5583 100.987 74.9372 100.895C75.3161 100.803 75.7129 100.872 76.0986 100.929C79.5772 101.443 83.1145 100.974 86.6164 100.656C86.8129 100.638 87.0314 100.627 87.1849 100.751ZM101.499 98.7202C103.638 98.9934 105.806 99.035 107.953 98.8439C108.807 98.768 109.839 98.7323 110.324 99.439C109.748 99.9044 108.957 99.9705 108.218 100.017C105.769 100.171 103.32 100.326 100.871 100.48C100.313 100.515 99.6166 100.473 99.3865 99.9627C99.18 99.5048 99.5434 98.9542 100.01 98.7687C100.477 98.5833 101.001 98.6566 101.499 98.7202ZM83.0234 96.1019C83.026 96.4718 82.5626 96.6314 82.1966 96.685L76.8143 97.4739C76.4301 97.5302 76.0332 97.5859 75.658 97.4858C75.2829 97.3856 74.9321 97.0872 74.897 96.7005C74.8541 96.2271 75.2985 95.8276 75.7626 95.7244C76.2266 95.6213 76.7073 95.7292 77.1788 95.7899C78.8045 95.9994 80.4446 95.6421 82.0827 95.5858C82.4836 95.572 83.0206 95.7008 83.0234 96.1019ZM108.994 94.8136C109.41 94.8601 109.838 95.1086 109.949 95.5126C109.209 96.0719 108.232 96.1737 107.308 96.2556C105.727 96.3957 104.146 96.5358 102.565 96.676C102.008 96.7253 101.451 96.7747 100.894 96.824C100.487 96.8601 100.063 96.8942 99.681 96.7496C99.2985 96.6051 98.9718 96.2256 99.0287 95.8208C99.1185 95.1828 99.9558 95.0172 100.6 95.031C102.99 95.0824 105.41 95.4431 107.751 94.9619C108.162 94.8776 108.577 94.767 108.994 94.8136ZM111.093 88.7786C99.3783 90.3582 87.3674 89.5402 75.8139 92.0392C75.1286 92.1874 74.1723 92.1947 73.9951 91.5164C74.011 90.7172 75.0447 90.4287 75.8421 90.3718C87.0814 89.5703 98.3208 88.7687 109.56 87.9671C110.22 87.9201 111.145 88.1195 111.093 88.7786Z" fill="#E7EAEE"/>
<path fill-rule="evenodd" clip-rule="evenodd" d="M69.8847 210.211C70.0071 211.628 68.0534 212.109 66.6309 212.114C59.2376 212.144 51.8517 213.515 44.9407 216.141C43.886 216.542 42.7571 217.047 42.2438 218.052C41.5641 219.383 42.306 221.085 43.5085 221.972C44.711 222.859 46.2459 223.129 47.7206 223.369C86.0515 229.61 124.953 232.346 163.78 231.532L164.404 231.518C168.882 231.414 173.452 231.174 177.555 229.401C174.158 227.02 170.762 224.64 167.366 222.26C173.245 221.086 179.311 221.922 185.277 222.511C198.932 223.859 212.717 223.886 226.377 222.593C225.416 224.13 223.301 224.343 221.489 224.382C204.306 224.752 187.102 224.141 169.988 222.555C172.221 224.024 174.454 225.493 176.687 226.963C177.496 227.495 178.391 228.171 178.438 229.138C178.508 230.592 176.722 231.318 175.285 231.555C170.52 232.343 165.672 232.468 160.842 232.539C123.123 233.09 85.3564 230.391 48.0987 224.481C46.2807 224.193 44.397 223.871 42.8812 222.827C41.3653 221.783 40.3319 219.797 40.9689 218.07C41.6025 216.352 43.5302 215.546 45.2706 214.977C53.2352 212.376 61.5247 210.771 69.8847 210.211ZM120.735 81.9611C120.814 99.3247 120.893 116.688 120.972 134.052C120.991 138.185 121.805 143.414 125.801 144.467C131.324 141.917 137.549 140.91 143.593 141.588C147.054 141.976 150.647 143.022 152.99 145.598C156.203 149.132 156.208 154.454 155.863 159.218C155.164 168.875 153.786 178.482 151.744 187.947C153.367 187.844 155.021 188.495 156.139 189.675C154.418 190.463 152.367 190.496 150.621 189.764C151.82 196.264 146.524 202.677 140.182 204.539C133.84 206.401 126.958 204.645 120.995 201.795C120.435 203.973 123.349 205.253 125.574 205.582C131.221 206.417 136.868 207.251 142.515 208.086C135.541 208.295 128.544 207.725 121.696 206.387C120.435 208.173 123.291 209.976 125.449 210.325C131.173 211.252 136.896 212.178 142.62 213.104C136.155 213.061 129.693 212.63 123.279 211.814C127.358 215.494 132.926 217.472 138.412 217.191C135.317 218.209 131.879 218.147 128.823 217.02C132.646 222.14 140.469 223.089 146.182 220.225C151.895 217.361 155.625 211.502 157.449 205.377C159.274 199.253 159.451 192.78 159.775 186.398C160.371 174.617 161.512 162.852 163.576 151.237C164.965 143.416 168.379 134.091 176.245 132.986C162.231 132.34 148.203 131.992 134.174 131.941C129.911 131.926 124.616 132.623 123.192 136.641C121.975 136.768 122.247 134.703 123.169 133.899C126.613 130.897 131.631 130.787 136.198 130.834L166.851 131.147C176.75 131.249 188.623 132.504 193.105 141.332C192.974 138.708 195.352 136.232 197.979 136.257C200.844 136.283 203.239 133.798 204.076 131.058C204.912 128.318 204.543 125.374 204.167 122.534C199.548 118.061 198.338 110.459 201.342 104.774C202.191 103.166 203.447 99.3319 210.457 96.8641C215.13 95.2189 219.75 95.3998 224.316 97.4068C232.89 95.7487 238.782 96.3373 241.992 99.1723C246.807 103.425 246.899 106.91 244.128 110.004C247.261 108.779 250.943 110.856 252.512 113.831C254.081 116.806 253.999 120.371 253.527 123.701C252.358 131.948 248.995 139.874 243.878 146.447L243.173 148.526C255.552 151.717 265.565 162.658 267.651 175.271C263.535 165.994 257.964 156.17 248.365 152.877C246.199 155.149 243.972 157.52 242.955 160.489C241.938 163.459 242.487 167.211 245.066 169C243.446 169.375 241.826 169.751 240.206 170.126C240.746 171.083 241.285 172.039 241.824 172.996C235.703 177.649 234.998 186.451 235.036 194.141C235.073 201.83 234.933 210.502 229.354 215.794C224.382 220.511 216.792 220.834 209.942 220.616C193.099 220.082 176.307 217.941 159.868 214.233C158.471 213.918 156.7 213.726 155.895 214.911C150.063 223.484 137.869 224.251 127.527 223.504C114.243 222.546 101.035 220.531 88.0695 217.485C80.715 215.758 72.9052 213.352 68.3236 207.346C62.9823 200.343 63.5991 190.634 64.4658 181.869C59.1999 184.797 52.957 185.931 46.998 185.041C53.2795 180.934 56.3256 173.078 56.3828 165.573C56.44 158.068 53.935 150.794 51.1481 143.826C45.0077 147.388 41.7769 154.895 42.2574 161.977C42.7378 169.059 46.4955 175.633 51.5372 180.63C45.3221 176.708 41.2096 169.642 40.8692 162.3C40.5288 154.959 43.9698 147.543 49.7953 143.062C48.8644 139.879 44.0619 139.49 41.5448 141.65C39.0278 143.809 38.2378 147.315 37.5904 150.568C36.394 156.579 35.1927 162.729 36.062 168.796C36.9312 174.862 40.2823 180.935 45.8976 183.389C43.2734 185.281 39.7781 182.558 38.0353 179.832C30.9678 168.78 30.7543 153.716 37.5059 142.468C38.317 141.117 39.2528 139.786 40.5734 138.926C41.9735 138.014 43.6805 137.714 45.3447 137.567C51.9088 136.986 58.6436 138.518 64.3102 141.882C64.2596 123.464 64.209 105.047 64.1584 86.6301C64.1555 85.5754 64.1701 84.4563 64.7324 83.564C65.5457 82.2734 67.2117 81.8733 68.7113 81.5934C82.3522 79.0469 96.1479 77.3296 109.997 76.4539C114.522 76.1677 120.715 77.4271 120.735 81.9611ZM111.486 77.5635C96.8028 78.2547 82.1728 80.0698 67.766 82.9876C67.1528 83.1118 66.5036 83.2568 66.0579 83.6959C65.4508 84.2939 65.4039 85.2414 65.3959 86.0936C65.2238 104.432 65.2966 122.773 65.6141 141.109C67.3771 140.67 69.1402 140.23 70.9033 139.791C70.2141 136.028 69.5219 132.215 69.8166 128.401C70.1113 124.587 71.5109 120.708 74.3896 118.189C77.5052 115.463 81.8531 114.692 85.983 114.402C89.9545 114.123 93.95 114.188 97.9104 114.595C101.953 115.011 106.212 115.908 109.129 118.739C113.342 122.827 113.41 129.45 113.192 135.317C112.613 150.89 112.034 166.464 111.455 182.037C111.319 185.693 111.175 189.398 110.099 192.894C109.023 196.39 106.888 199.714 103.657 201.429C100.486 203.113 96.6928 203.065 93.126 202.66C89.7207 202.273 86.3482 201.598 83.0563 200.644C81.0566 200.065 79.0558 199.367 77.3565 198.165C71.7331 194.185 71.0683 186.245 70.9317 179.357C68.7725 178.967 66.6616 180.611 65.7701 182.615C64.8786 184.62 64.918 186.898 64.9734 189.092C65.1116 194.563 65.3248 200.308 68.1179 205.015C72.4274 212.277 81.4792 214.96 89.7439 216.694C104.413 219.772 119.307 221.779 134.268 222.694C127.591 219.294 121.671 213.474 120.263 206.114C119.88 204.115 119.839 202.068 119.799 200.033C119.02 160.242 118.24 120.45 117.461 80.6591C117.412 78.1426 114 77.4452 111.486 77.5635ZM168.405 142.894C168.033 143.799 167.763 144.804 168.011 145.751C168.258 146.699 169.178 147.526 170.144 147.365C174.469 146.645 179.131 148.775 181.418 152.516C183.304 155.603 183.566 159.38 183.779 162.992L185.713 195.89C185.92 199.405 186.022 203.274 183.837 206.036C181.002 209.619 175.679 209.739 171.131 209.294C167.379 208.927 163.432 208.303 160.519 205.91C160.622 207.302 160.216 208.728 159.394 209.857C158.38 211.251 160.017 213.085 161.61 213.745C163.556 214.55 165.672 214.83 167.76 215.101C177.325 216.343 186.895 217.54 196.471 218.692C203.841 219.58 211.33 220.439 218.657 219.248C214.022 217.947 209.586 215.937 205.552 213.308C203.54 211.997 201.594 210.499 200.221 208.527C197.98 205.309 197.508 201.221 197.135 197.317C196.027 185.71 195.202 174.076 194.661 162.428C194.262 153.837 191.507 145.367 186.776 138.185C185.93 136.901 184.895 135.568 183.4 135.211C177.453 133.789 170.725 137.236 168.405 142.894ZM141.137 217.237C141.641 217.323 142.159 217.436 142.575 217.734C142.99 218.032 143.28 218.562 143.152 219.057C143.024 219.553 142.37 219.879 141.957 219.577C141.502 219.244 140.895 219.232 140.352 219.078C139.809 218.925 139.239 218.474 139.337 217.917C139.461 217.213 140.431 217.117 141.137 217.237ZM120.193 217.446C120.819 217.576 121.552 218.023 121.424 218.649C121.311 219.201 120.627 219.385 120.069 219.46C119.442 219.544 118.774 219.621 118.205 219.346C117.637 219.07 117.268 218.294 117.641 217.784C117.892 217.44 118.363 217.348 118.789 217.331C119.26 217.312 119.732 217.351 120.193 217.446ZM157.637 210.486C157.043 210.914 156.635 211.546 156.216 212.146C154.305 214.884 151.883 217.264 149.112 219.126C149.182 219.42 149.622 219.346 149.883 219.195C153.091 217.336 155.381 214.265 157.578 211.278C157.758 211.034 157.906 210.625 157.637 210.486ZM186.324 136.528C188.035 138.549 189.76 140.59 191.012 142.923C192.37 145.454 193.132 148.257 193.746 151.062C197.181 166.753 196.264 183.067 198.49 198.974C198.892 201.844 199.423 204.776 200.917 207.26C202.666 210.17 205.57 212.187 208.528 213.854C210.921 215.202 213.418 216.386 216.046 217.184C220.224 218.454 225.243 218.543 228.446 215.574C230.245 213.907 231.191 211.529 231.93 209.191C235.097 199.168 235.446 188.271 232.925 178.067C232.988 184.17 233.781 190.259 233.599 196.359C233.418 202.46 232.166 208.742 228.579 213.68C227.869 214.659 227.046 215.597 225.972 216.154C224.558 216.886 222.879 216.872 221.298 216.679C218.537 216.342 215.838 215.507 213.369 214.228C211.493 213.257 209.757 212.036 208.075 210.757C206.121 209.271 204.202 207.669 202.832 205.631C201.475 203.611 200.718 201.251 200.118 198.892C195.736 181.669 198.869 163.091 193.669 146.097C192.444 142.092 190.316 137.795 186.324 136.528ZM81.7846 212.297C91.9005 213.858 102.016 215.42 112.132 216.981C111.876 217.65 110.951 217.673 110.241 217.579C101.59 216.423 92.9382 215.267 84.287 214.112C83.309 213.981 82.331 213.85 81.3529 213.72C80.8887 213.658 80.3123 213.49 80.2536 213.025C80.1709 212.37 81.1323 212.196 81.7846 212.297ZM199.133 152.855C196.996 155.233 197.15 158.821 197.43 162.005C198.043 168.975 198.655 175.945 199.268 182.915C199.297 183.241 199.332 183.585 199.523 183.851C199.835 184.285 200.441 184.361 200.975 184.398C208.248 184.911 215.52 185.423 222.793 185.936C222.25 186.795 221.024 186.808 220.01 186.73C213.163 186.201 206.288 186.03 199.423 186.217C199.305 189.737 199.824 193.278 200.947 196.617C201.434 198.064 203.309 198.372 204.834 198.434C210.652 198.669 216.469 198.905 222.286 199.14C222.554 199.743 221.614 200.119 220.955 200.112C214.975 200.043 208.995 199.974 203.016 199.905C202.197 199.896 201.901 201.056 202.209 201.815C203.016 203.798 205.584 204.225 207.72 204.359L221.089 205.196C221.394 205.215 221.458 205.695 221.235 205.904C221.012 206.113 220.673 206.119 220.367 206.113L204.714 205.781C208.762 210.597 214.438 214.02 220.587 215.351C221.912 215.638 223.316 215.826 224.604 215.401C226.144 214.893 227.28 213.585 228.169 212.228C232.885 205.033 232.572 195.775 232.09 187.186L231.543 177.45C231.734 177.188 232.126 177.097 232.413 177.248C232.523 176.771 231.903 176.488 231.421 176.399C220.781 174.445 209.864 172.488 199.216 174.397C198.876 174.257 198.879 173.727 199.138 173.466C199.397 173.204 199.79 173.141 200.154 173.09C201.61 172.89 203.065 172.69 204.52 172.49C201.18 170.981 199.156 167.398 198.551 163.783C197.946 160.168 198.537 156.472 199.133 152.855ZM146.842 212.041C147.79 212.218 148.884 212.507 149.254 213.397C148.199 214.116 146.814 214.043 145.541 213.941C145.191 213.913 144.808 213.87 144.562 213.62C144.127 213.176 144.451 212.358 145.011 212.089C145.572 211.819 146.231 211.927 146.842 212.041ZM74.6697 205.537C85.5684 208.962 96.8622 211.127 108.255 211.976C109.138 212.042 110.326 212.463 110.157 213.333C98.1079 211.97 86.1329 209.956 74.3013 207.303C73.5463 207.133 72.5776 206.596 72.8588 205.875C73.1058 205.241 74.021 205.334 74.6697 205.537ZM114.589 210.823C115.145 210.822 115.682 211.012 116.203 211.21C116.467 211.311 116.758 211.441 116.861 211.705C117.079 212.267 116.304 212.669 115.71 212.777C115.311 212.849 114.911 212.922 114.512 212.994C114.175 213.055 113.812 213.114 113.502 212.968C112.998 212.732 112.867 212.005 113.156 211.529C113.445 211.054 114.032 210.824 114.589 210.823ZM165.91 209.622C170.731 210.539 175.669 210.591 180.576 210.64C180.956 210.643 181.058 211.241 180.787 211.507C180.516 211.772 180.092 211.784 179.712 211.777C175.132 211.687 170.545 211.204 165.978 211.564C165.48 211.603 164.964 211.65 164.497 211.475C164.03 211.3 163.632 210.828 163.721 210.337C163.797 209.914 164.209 209.618 164.631 209.536C165.053 209.454 165.488 209.541 165.91 209.622ZM176.801 134.047C171.343 134.862 166.757 139.72 166.258 145.216C165.792 150.35 164.375 155.342 163.366 160.397C160.127 176.629 161.11 193.452 158.246 209.755C159.292 207.851 159.574 205.634 159.837 203.477L166.781 146.609C166.966 145.096 167.155 143.566 167.699 142.142C169.184 138.249 173.024 135.804 176.801 134.047ZM151.983 207.699C152.28 207.794 152.585 207.918 152.783 208.159C152.981 208.4 153.031 208.789 152.814 209.014C152.651 209.183 152.395 209.213 152.16 209.234C151.393 209.302 150.626 209.37 149.859 209.437C149.445 209.474 149.017 209.509 148.622 209.378C148.227 209.248 147.871 208.906 147.86 208.49C147.841 207.786 148.709 207.432 149.412 207.386C150.278 207.33 151.155 207.436 151.983 207.699ZM168.14 148.828C167.505 149.056 167.335 149.858 167.263 150.529L164.868 172.835C164.726 174.156 166.432 174.999 167.72 174.672C169.008 174.345 169.991 173.339 171.104 172.614C172.218 171.889 173.787 171.472 174.81 172.32C175.965 173.279 177.676 172.214 178.68 171.097C179.683 169.98 180.991 168.634 182.418 169.1C180.744 170.701 179.069 172.303 177.394 173.905C176.839 174.436 176.349 175.497 177.051 175.811C178.975 175.129 180.715 173.933 182.041 172.38C182.654 172.361 182.683 173.324 182.341 173.833C181.051 175.752 178.017 176.179 177.236 178.355C175.412 183.433 169.725 186.805 164.394 185.97C163.301 185.799 162.756 187.237 162.624 188.336C162.1 192.718 161.575 197.099 161.05 201.481C160.929 202.489 160.817 203.555 161.232 204.481C161.924 206.027 163.776 206.612 165.418 207.028C168.503 207.81 171.638 208.597 174.817 208.484C177.997 208.372 181.285 207.235 183.299 204.771C182.741 204.047 181.499 204.976 180.687 204.557C179.892 204.147 180.314 202.782 181.167 202.514C182.02 202.246 182.921 202.672 183.713 203.087C184.21 202.116 184.722 201.077 184.62 199.991C184.517 198.905 183.52 197.83 182.457 198.075C181.758 198.235 181.474 197.024 182.037 196.581C182.6 196.137 183.41 196.281 184.107 196.447C184.146 193.826 184.185 191.204 184.223 188.583C184.231 188.048 184.233 187.486 183.979 187.015C183.726 186.544 183.124 186.214 182.642 186.447C181.986 186.763 181.416 185.644 181.856 185.063C182.295 184.481 183.125 184.406 183.854 184.38C183.91 182.052 183.76 179.719 183.405 177.418C180.661 178.793 180.181 182.42 179.904 185.477C179.374 191.338 178.306 197.151 176.719 202.819C176.364 204.088 175.964 205.387 175.133 206.41C174.302 207.434 172.933 208.13 171.657 207.797C171.944 206.866 172.918 206.366 173.632 205.703C174.916 204.509 175.393 202.705 175.812 201.002C177.26 195.118 178.716 189.163 178.698 183.104L178.696 182.698C178.686 181.544 178.674 180.374 179.054 179.29C179.479 178.079 180.544 176.984 181.828 176.977C183.181 176.971 183.505 175.093 183.384 173.745C182.966 169.096 182.549 164.448 182.132 159.799C181.999 158.315 181.863 156.816 181.412 155.395C179.746 150.142 173.327 146.965 168.14 148.828ZM188.565 205.522C189.201 205.692 189.818 206.347 189.554 206.95C189.301 207.526 188.509 207.558 187.882 207.499C187.576 207.47 187.25 207.433 187.01 207.239C186.591 206.9 186.65 206.181 187.043 205.811C187.436 205.441 188.044 205.382 188.565 205.522ZM112.112 204.877C112.531 204.968 112.967 205.09 113.268 205.395C113.569 205.699 113.668 206.242 113.369 206.549C113.125 206.799 112.731 206.804 112.381 206.792C111.878 206.774 111.375 206.756 110.873 206.739C110.582 206.728 110.27 206.712 110.037 206.538C109.537 206.166 109.756 205.296 110.293 204.98C110.829 204.664 111.504 204.745 112.112 204.877ZM73.3726 200.316C76.1873 201.625 79.2796 202.196 82.3376 202.728C88.5281 203.807 94.7372 204.778 100.961 205.642C101.832 205.763 102.797 205.934 103.327 206.635C100.917 206.8 98.5083 206.398 96.1258 205.998C88.2719 204.679 80.418 203.36 72.5641 202.042C71.7408 201.903 70.6779 201.446 70.8382 200.627C71.0283 199.656 72.4754 199.899 73.3726 200.316ZM122.244 172.497C121.97 173.594 122.023 174.742 122.06 175.872C122.293 182.926 121.875 190.002 120.811 196.979C120.558 198.642 121.552 200.305 122.918 201.288C124.284 202.27 125.966 202.692 127.618 203.01C131.343 203.727 135.149 204.022 138.939 203.885C140.381 203.833 141.882 203.7 143.114 202.951C144.281 202.242 145.073 201.062 145.769 199.887C148.725 194.904 150.664 189.319 151.431 183.576C140.799 183.528 130.23 179.516 122.244 172.497ZM150.052 200.465C150.777 200.704 151.503 200.944 152.229 201.184C152.471 201.263 152.731 201.356 152.875 201.567C153.117 201.923 152.881 202.443 152.506 202.655C152.131 202.866 151.675 202.854 151.244 202.837C150.461 202.806 149.595 202.74 149.048 202.178C148.501 201.616 148.689 200.404 149.471 200.353C149.669 200.34 149.863 200.403 150.052 200.465ZM188.103 200.57C188.535 200.639 188.99 200.719 189.323 201.002C189.656 201.286 189.792 201.848 189.486 202.159C189.362 202.285 189.191 202.349 189.024 202.407C188.382 202.631 187.668 202.81 187.033 202.566C186.397 202.323 185.964 201.483 186.364 200.932C186.731 200.425 187.486 200.471 188.103 200.57ZM75.2437 177.086C74.7964 177.298 74.3177 177.54 74.0966 177.983C73.9319 178.313 73.9405 178.699 73.9528 179.068C74.1199 184.094 74.3308 189.3 76.5784 193.798C77.1854 195.012 77.9575 196.181 79.0507 196.987C79.7129 197.475 80.4708 197.814 81.2223 198.149C82.5265 198.729 83.8336 199.31 85.1874 199.763C88.2887 200.802 91.5711 201.154 94.8234 201.5C96.2026 201.646 97.6714 201.777 98.9087 201.151C100.365 200.413 101.141 198.814 101.767 197.306C105.261 188.899 107.255 179.871 107.629 170.774C107.682 169.481 106.027 168.911 104.736 168.824C94.4314 168.132 84.5763 172.662 75.2437 177.086ZM109.229 170.409C108.965 170.757 108.932 171.222 108.906 171.658C108.289 181.946 105.729 192.114 101.399 201.467C105.524 199.379 108.597 195.325 109.493 190.79C109.801 189.231 109.865 187.635 109.927 186.047C110.123 181.039 110.319 176.032 110.515 171.024C110.525 170.76 110.527 170.469 110.359 170.265C110.081 169.928 109.494 170.061 109.229 170.409ZM110.937 195.467C111.461 195.495 111.953 195.713 112.461 195.839C112.917 195.952 113.055 196.601 112.8 196.996C112.546 197.39 112.056 197.562 111.591 197.627C111.105 197.695 110.583 197.67 110.166 197.413C109.749 197.156 109.478 196.619 109.645 196.159C109.823 195.666 110.414 195.438 110.937 195.467ZM188.403 194.107C188.893 194.208 189.312 194.511 189.715 194.807C189.934 194.967 190.166 195.147 190.238 195.408C190.329 195.742 190.109 196.102 189.806 196.269C189.502 196.435 189.138 196.447 188.793 196.419C188.303 196.38 187.796 196.259 187.426 195.934C187.056 195.61 186.868 195.041 187.099 194.607C187.333 194.165 187.914 194.005 188.403 194.107ZM71.9821 178.549C71.8483 178.788 71.8753 179.08 71.9062 179.352L72.6333 185.754C73.0279 189.228 73.5446 192.973 75.973 195.488C76.3779 195.296 76.1494 194.688 75.8942 194.319C73.9272 191.481 73.5483 187.871 73.2293 184.433C73.0423 182.417 72.8553 180.401 72.6683 178.386C72.4802 178.187 72.116 178.31 71.9821 178.549ZM201.473 191.663C208.144 191.828 214.816 191.993 221.487 192.157C222.509 192.183 223.533 192.208 224.543 192.36C224.332 193.089 223.373 193.227 222.614 193.219C215.923 193.156 209.211 192.742 202.556 193.438C201.987 193.497 201.373 193.556 200.88 193.267C200.386 192.978 200.165 192.185 200.619 191.837C200.854 191.657 201.176 191.656 201.473 191.663ZM183.143 190.352C183.289 190.4 183.44 190.452 183.559 190.549C183.958 190.874 183.81 191.567 183.402 191.88C182.994 192.193 182.444 192.23 181.93 192.242C181.395 192.256 180.771 192.213 180.466 191.773C180.083 191.221 180.538 190.404 181.172 190.18C181.805 189.956 182.504 190.144 183.143 190.352ZM188.02 189.004C188.643 189.071 189.248 189.29 189.77 189.635C190.169 189.898 190.089 190.56 189.726 190.872C189.363 191.183 188.845 191.227 188.367 191.209C187.884 191.192 187.379 191.118 186.989 190.834C186.598 190.549 186.365 189.999 186.574 189.563C186.813 189.066 187.472 188.945 188.02 189.004ZM120.811 173.779C120.448 179.015 120.285 184.265 120.323 189.514C120.325 189.736 120.476 190.051 120.665 189.936C121.067 185.524 121.264 181.093 121.256 176.663C121.254 175.682 121.234 174.664 120.811 173.779ZM113.679 187.212C114.252 187.255 114.757 187.588 115.223 187.922C115.367 188.025 115.515 188.135 115.595 188.293C115.761 188.619 115.562 189.038 115.249 189.229C114.937 189.42 114.55 189.435 114.184 189.418C113.352 189.379 112.306 188.926 112.399 188.099C112.464 187.528 113.107 187.169 113.679 187.212ZM189.406 183.685C189.963 183.913 190.537 184.51 190.249 185.039C190.054 185.397 189.579 185.475 189.172 185.479C188.698 185.484 188.225 185.445 187.758 185.364C187.102 185.249 187.002 184.218 187.511 183.789C188.02 183.36 188.79 183.432 189.406 183.685ZM254.327 173.439C254.556 173.823 254.56 174.296 254.557 174.744C254.538 177.913 254.519 181.081 254.499 184.25C254.497 184.635 254.445 185.101 254.096 185.262C253.794 185.402 253.422 185.206 253.254 184.919C253.086 184.632 253.071 184.284 253.065 183.951C253.016 181.122 253.332 178.226 252.53 175.512C252.292 174.706 252.007 173.699 252.63 173.134C253.117 172.693 253.99 172.875 254.327 173.439ZM172.864 173.072C170.463 174.562 167.936 176.095 165.117 176.298C164.604 176.335 164.373 176.947 164.272 177.451C163.816 179.72 163.565 182.029 163.522 184.342C163.519 184.483 163.521 184.635 163.602 184.751C163.732 184.934 163.997 184.942 164.222 184.93C166.421 184.815 168.651 184.585 170.694 183.762C172.736 182.938 174.595 181.447 175.427 179.408C176.259 177.369 175.859 174.768 174.159 173.368C173.794 173.066 173.267 172.822 172.864 173.072ZM154.477 181.991C155.248 182.193 156.02 182.396 156.792 182.599C157.08 182.675 157.401 182.775 157.539 183.039C157.701 183.351 157.512 183.752 157.218 183.945C156.924 184.137 156.559 184.173 156.209 184.204C155.654 184.254 155.083 184.302 154.551 184.138C154.019 183.974 153.528 183.544 153.468 182.991C153.407 182.437 153.938 181.849 154.477 181.991ZM47.4307 139.767C50.3189 140.936 52.4927 143.466 53.841 146.276C55.1893 149.085 55.8033 152.182 56.3383 155.252C57.2239 160.332 57.9291 165.518 57.2834 170.635C56.6377 175.752 54.4988 180.854 50.5336 184.152C53.422 184.306 56.8707 184.191 58.4387 181.761C59.1424 180.67 60.657 180.187 61.8621 180.67C61.1044 180.015 61.6763 178.795 62.2386 177.966C64.5425 174.571 66.1233 170.668 66.6881 166.603C67.7834 158.722 65.0297 150.735 60.9436 143.908C58.2925 139.478 52.1086 137.583 47.4307 139.767ZM115.91 180.591C116.506 180.826 116.367 181.811 115.81 182.127C115.253 182.443 114.559 182.301 113.938 182.143C113.648 182.07 113.341 181.983 113.145 181.759C112.686 181.233 113.212 180.346 113.892 180.189C114.571 180.032 115.261 180.336 115.91 180.591ZM137.335 142.667C134.785 142.713 132.109 143.024 130.027 144.497C129.338 144.984 128.713 145.622 128.462 146.427C128.21 147.232 128.422 148.221 129.12 148.694C130.885 149.89 131.605 152.126 131.936 154.232C132.266 156.338 132.346 158.543 133.306 160.447C133.8 161.428 134.51 162.285 135.254 163.094C139.289 167.481 144.552 170.726 150.284 172.362C151.292 172.65 152.574 173.272 152.361 174.298C144.115 172.569 136.595 167.592 131.78 160.678C130.317 165.172 127.431 169.19 123.64 172.012C131.034 178.305 140.603 181.992 150.309 182.287C150.748 182.301 151.246 182.284 151.542 181.959C151.737 181.746 151.798 181.447 151.85 181.164C153.224 173.777 154.192 166.315 154.749 158.822C154.939 156.258 155.079 153.652 154.524 151.142C153.97 148.632 152.633 146.193 150.448 144.84C149.101 144.006 147.525 143.632 145.965 143.354C143.12 142.846 140.225 142.616 137.335 142.667ZM188.003 178.617C188.672 178.618 189.515 178.813 189.633 179.472C189.749 180.128 189.002 180.616 188.341 180.701C187.858 180.762 187.332 180.704 186.949 180.403C186.565 180.102 186.387 179.513 186.653 179.105C186.926 178.686 187.503 178.617 188.003 178.617ZM237.405 165.445C236.178 170.199 235.462 175.067 234.748 179.925C234.712 180.167 234.691 180.452 234.874 180.615C236.787 178.238 238.542 175.735 240.123 173.126C240.279 172.868 240.432 172.531 240.257 172.286C239.861 171.732 239.465 171.178 239.069 170.624C238.775 170.213 238.472 169.672 238.73 169.237C238.941 168.884 239.411 168.81 239.82 168.772L243.181 168.462C243.145 168.254 243.018 168.075 242.895 167.903C241.995 166.651 241.014 165.334 239.573 164.785C238.774 164.48 237.619 164.617 237.405 165.445ZM81.7524 116.266C79.2956 116.679 76.6345 117.389 75.2087 119.432C74.4108 120.575 74.1172 121.987 73.8828 123.362C72.9608 128.768 72.6728 134.282 73.0267 139.755C83.618 134.827 96.0101 133.891 107.222 137.172C108.172 137.45 109.349 138.293 108.85 139.149C100.44 136.038 91.0724 135.575 82.3962 137.839C79.5887 138.572 76.8604 139.579 74.069 140.371C69.9205 141.547 65.6359 142.243 61.3284 142.439C69.1735 153.091 70.1887 168.343 63.8245 179.94C67.7842 179.191 71.5048 177.527 75.1558 175.821C80.6069 173.273 86.0344 170.587 91.8249 168.952C97.6153 167.316 103.876 166.782 109.62 168.575C110.291 168.784 110.662 167.815 110.689 167.111L111.933 134.503C112.122 129.563 112.138 124.101 108.904 120.362C106.042 117.054 101.375 116.019 97.0166 115.647C91.9294 115.212 86.7877 115.421 81.7524 116.266ZM157.632 176.79C157.793 176.895 157.959 177.027 157.997 177.215C158.073 177.597 157.608 177.841 157.233 177.947C156.689 178.101 156.128 178.256 155.565 178.197C155.002 178.138 154.429 177.814 154.244 177.279C154.059 176.745 154.431 176.042 154.997 176.032C155.924 176.015 156.855 176.283 157.632 176.79ZM237.52 156.27C235.472 157.419 233.024 157.839 230.709 157.438C231.005 158.264 232.304 158.552 232.31 159.429C232.314 159.963 231.811 160.339 231.525 160.79C231.305 161.137 231.209 161.546 231.122 161.948C230.297 165.724 229.824 169.576 229.71 173.439C229.69 174.105 229.855 174.984 230.517 175.057C231.889 175.207 233.18 175.976 233.966 177.11C234.609 173.059 235.253 169.009 235.897 164.958C236.046 164.018 236.172 162.968 235.621 162.192C234.863 161.125 235.523 159.662 236.187 158.534L237.52 156.27ZM115.533 173.778C116.233 173.918 117.028 174.521 116.763 175.183C116.6 175.591 116.107 175.756 115.668 175.78C115.23 175.803 114.773 175.738 114.362 175.894C113.879 176.077 113.31 175.649 113.251 175.135C113.192 174.621 113.549 174.123 114.014 173.897C114.479 173.671 115.026 173.677 115.533 173.778ZM187.995 173.152C188.436 173.213 188.9 173.31 189.221 173.619C189.542 173.927 189.63 174.514 189.289 174.8C189.176 174.894 189.034 174.944 188.894 174.991C188.289 175.198 187.641 175.401 187.019 175.247C186.398 175.094 185.858 174.434 186.073 173.831C186.321 173.136 187.264 173.051 187.995 173.152ZM228.124 164.825C227.657 164.938 227.317 165.327 227.009 165.696L225.155 167.916C224.793 168.35 225.43 168.955 225.994 169.002C226.557 169.049 227.215 168.916 227.616 169.315C228.036 169.733 227.862 170.46 227.519 170.943C227.175 171.425 226.687 171.818 226.479 172.373C226.168 173.202 226.683 174.241 227.53 174.496C227.991 174.635 228.637 174.421 228.641 173.941C228.665 171.13 228.829 168.321 229.133 165.527C229.185 165.05 228.591 164.713 228.124 164.825ZM134.058 166.221C134.413 166.457 134.643 166.835 134.88 167.189C136.913 170.235 140.315 172.328 143.95 172.77C144.791 172.873 145.783 172.975 146.205 173.71C145.413 174.494 144.122 174.398 143.036 174.146C139.188 173.25 135.661 171.027 133.194 167.94C132.8 167.448 132.441 166.699 132.88 166.247C133.177 165.941 133.703 165.985 134.058 166.221ZM226.125 152.764C223.407 153.432 220.693 154.374 218.49 156.101C216.287 157.827 214.649 160.451 214.666 163.249C214.688 166.799 212.944 170.316 210.105 172.447L214.884 173.01C215.444 173.076 216.071 173.123 216.509 172.769C217.15 172.251 216.986 171.256 216.824 170.448C216.662 169.64 216.698 168.572 217.467 168.274C218.422 167.905 219.211 169.23 219.067 170.243C218.922 171.256 218.334 172.231 218.518 173.238C220.782 173.559 223.052 173.83 225.327 174.05C224.875 173.678 224.825 172.974 225.054 172.435C225.283 171.896 225.728 171.483 226.16 171.088C226.62 170.667 225.957 169.926 225.336 169.859C224.716 169.792 223.987 169.941 223.549 169.496C223.005 168.943 223.413 168.015 223.877 167.393C224.777 166.187 225.893 164.732 225.314 163.343C223.901 159.954 224.212 155.897 226.125 152.764ZM121.892 143.506C121.513 152.781 121.565 162.075 122.047 171.346C125.591 169.423 128.18 166.04 129.785 162.342C130.765 160.086 131.42 157.6 131.029 155.172C130.737 153.361 129.88 151.688 128.883 150.149C127.115 147.418 124.806 144.952 121.892 143.506ZM204.053 139.062C205.326 138.827 206.298 140.398 206.081 141.674C205.865 142.949 204.937 143.964 204.201 145.027C203.183 146.497 202.486 148.16 201.797 149.81C200.159 153.735 199.521 158.074 199.96 162.305C200.219 164.795 200.902 167.354 202.586 169.207C204.27 171.061 207.157 171.987 209.377 170.827C211.283 169.831 212.234 167.635 212.671 165.529C213.108 163.423 213.186 161.218 214.012 159.232C215.536 155.568 219.293 153.355 223.01 151.965C217.422 151.206 212.367 147.313 210.206 142.105C209.586 140.612 209.121 138.928 207.835 137.947C206.55 136.967 204.129 137.446 204.053 139.062ZM156.825 168.942C157.218 169.017 157.604 169.132 157.975 169.282C158.586 169.531 159.243 170.219 158.85 170.75C158.635 171.039 158.222 171.074 157.861 171.083C157.204 171.1 156.495 171.102 155.958 170.722C155.421 170.343 155.235 169.424 155.776 169.051C156.074 168.846 156.471 168.874 156.825 168.942ZM186.446 167.376C186.978 167.421 187.508 167.495 188.032 167.597C188.292 167.648 188.571 167.718 188.734 167.926C188.981 168.241 188.826 168.735 188.513 168.986C188.201 169.236 187.785 169.307 187.39 169.368C186.785 169.463 186.141 169.553 185.583 169.301C185.025 169.049 184.645 168.313 184.986 167.805C185.283 167.362 185.915 167.331 186.446 167.376ZM34.3791 164.515C33.9286 164.51 33.7727 165.112 33.7864 165.562C33.8257 166.856 34.0876 168.143 34.5574 169.35C34.6881 169.483 34.8399 169.205 34.8217 169.019L34.3791 164.515ZM120.955 167.847C120.674 168 120.567 168.404 120.736 168.676L120.743 168.685L120.737 168.692C120.729 168.701 120.721 168.712 120.712 168.725C120.599 168.896 120.758 169.168 120.963 169.153C121.101 168.732 121.098 168.266 120.955 167.847ZM115.099 166.015C115.709 166.15 116.371 166.656 116.219 167.262C116.119 167.663 115.696 167.899 115.293 167.989C114.889 168.078 114.462 168.072 114.076 168.222C113.586 168.413 112.995 168.017 112.894 167.501C112.793 166.984 113.109 166.445 113.566 166.183C114.022 165.922 114.586 165.902 115.099 166.015ZM118.628 80.5756C118.663 108.499 119.305 136.421 120.552 164.316L120.683 167.2L120.702 166.272C120.738 164.104 120.707 161.935 120.675 159.767C120.303 134.35 119.93 108.933 119.558 83.5159C119.543 82.4517 119.459 81.2405 118.628 80.5756ZM158.566 161.932C158.908 162.035 159.251 162.19 159.473 162.47C159.695 162.749 159.759 163.179 159.539 163.461C159.327 163.733 158.942 163.785 158.597 163.816L157.129 163.946C156.888 163.967 156.63 163.985 156.421 163.864C156.253 163.767 156.141 163.589 156.09 163.401C155.936 162.835 156.318 162.222 156.848 161.969C157.377 161.717 158.005 161.764 158.566 161.932ZM40.232 140.075C38.7046 141.575 37.9102 143.65 37.1761 145.662C35.1308 151.267 33.1871 157.216 34.1963 163.097C34.5084 163.154 34.6571 162.73 34.6803 162.413C35.0951 156.74 36.2289 151.119 38.0457 145.729C38.739 143.672 39.5728 141.583 41.1127 140.054C41.0916 139.681 40.4981 139.813 40.232 140.075ZM228.004 152.336C227.738 152.402 227.565 152.653 227.426 152.889C226.111 155.12 225.493 157.753 225.676 160.336C225.752 161.402 226.095 162.63 227.091 163.019C227.9 162.241 228.71 161.464 229.519 160.687C229.648 160.564 229.78 160.436 229.851 160.272C230.028 159.863 229.774 159.407 229.541 159.027C228.388 157.15 227.521 154.77 228.482 152.788C228.602 152.541 228.27 152.271 228.004 152.336ZM244.825 149.93C244.696 149.997 244.597 150.109 244.5 150.218C242.11 152.921 239.802 155.696 237.58 158.538C237.116 159.132 236.632 159.801 236.677 160.553C236.718 161.222 237.188 161.804 237.758 162.156C238.328 162.508 238.992 162.668 239.644 162.823C239.818 162.864 240.008 162.905 240.172 162.832C240.322 162.766 240.418 162.618 240.505 162.477C241.866 160.284 243.245 158.047 243.888 155.547C244.025 155.014 244.487 154.642 244.856 154.234C245.582 153.432 246.007 152.364 246.032 151.283C246.04 150.917 245.997 150.531 245.785 150.232C245.573 149.934 245.15 149.761 244.825 149.93ZM186.623 160.629C186.952 160.71 187.315 160.835 187.463 161.141C187.723 161.679 187.113 162.24 186.542 162.417C186.099 162.554 185.605 162.601 185.181 162.416C184.756 162.23 184.434 161.762 184.53 161.308C184.701 160.504 185.825 160.431 186.623 160.629ZM115.644 159.454C115.8 159.593 115.944 159.757 116.003 159.957C116.122 160.36 115.84 160.804 115.454 160.97C115.069 161.135 114.618 161.071 114.229 160.913C113.82 160.746 113.421 160.427 113.369 159.987C113.309 159.485 113.764 159.023 114.265 158.95C114.765 158.878 115.268 159.116 115.644 159.454ZM159.935 155.039C160.334 155.201 160.376 155.806 160.1 156.137C159.825 156.469 159.366 156.579 158.936 156.616C158.506 156.652 158.062 156.636 157.66 156.793C157.043 157.035 156.372 156.289 156.519 155.643C156.666 154.997 157.36 154.596 158.022 154.565C158.683 154.534 159.321 154.789 159.935 155.039ZM185.939 154.067C186.505 154.095 187.065 154.243 187.57 154.5C187.789 154.612 188.016 154.766 188.078 155.003C188.207 155.493 187.592 155.83 187.095 155.925C186.654 156.01 186.207 156.06 185.758 156.076C185.204 156.095 184.536 155.988 184.315 155.48C184.144 155.085 184.353 154.601 184.704 154.351C185.054 154.102 185.509 154.046 185.939 154.067ZM222.442 117.903C219.139 118.436 215.82 118.878 212.493 119.228C210.082 119.482 207.812 120.849 206.461 122.861C206.183 123.275 205.992 123.935 206.421 124.188C207.634 122.789 209.28 121.771 211.074 121.311C211.715 121.146 212.417 121.056 213.021 121.326C213.626 121.595 214.058 122.337 213.785 122.94C213.365 123.865 212.024 123.606 211.01 123.544C208.189 123.372 205.749 126.601 206.685 129.268C207.342 126.722 210.976 125.617 213.014 127.279C215.051 128.941 214.802 132.591 212.623 134.063C211.903 134.549 210.978 134.888 210.65 135.692C210.368 136.382 210.639 137.161 210.909 137.855C211.334 138.945 211.758 140.034 212.182 141.123C213.071 143.408 214.016 145.775 215.816 147.439C217.2 148.718 218.995 149.48 220.827 149.926C227.429 151.535 234.862 148.974 239.072 143.639C239.409 143.212 240.179 143.617 240.239 144.159C240.299 144.7 239.93 145.187 239.563 145.59C237.678 147.665 235.302 149.29 232.686 150.296C231.449 150.771 229.979 151.285 229.599 152.555C229.284 153.606 229.946 154.767 230.897 155.314C231.849 155.861 233.008 155.908 234.099 155.788C236.274 155.55 238.379 154.699 240.108 153.358C240.632 152.951 241.14 152.476 241.373 151.854C241.593 151.266 241.543 150.616 241.49 149.99L241.443 149.452C241.239 147.118 240.975 144.757 240.023 142.623C239.566 141.596 238.953 140.634 238.616 139.562C238.201 138.24 238.226 136.821 237.947 135.463C237.667 134.105 236.96 132.695 235.668 132.195C236.009 131.327 236.861 130.781 237.413 130.03C237.964 129.278 238.045 127.965 237.177 127.626C236.762 127.463 236.289 127.603 235.893 127.809C234.225 128.675 233.326 130.794 233.861 132.596C234.21 133.771 232.353 134.56 231.353 133.85C230.353 133.14 230.107 131.788 229.91 130.577C229.145 125.885 227.611 120.827 223.604 118.269C223.254 118.045 222.852 117.837 222.442 117.903ZM115.294 151.187C115.821 151.358 116.346 151.832 116.237 152.375C116.133 152.888 115.543 153.128 115.026 153.216C114.294 153.342 113.34 153.198 113.134 152.484C112.938 151.805 113.649 151.155 114.352 151.08C114.668 151.047 114.991 151.089 115.294 151.187ZM199.789 141.414C199.298 141.88 199.059 142.544 198.835 143.183C198.332 144.624 197.822 146.108 197.88 147.633C197.917 148.616 197.347 149.5 196.941 150.395C196.534 151.29 196.313 152.436 196.951 153.184C198.473 151.903 198.839 149.748 199.174 147.787C199.574 145.442 200.119 143.011 201.635 141.179C201.104 140.759 200.28 140.949 199.789 141.414ZM159.662 147.949C160.054 148.075 160.497 148.327 160.502 148.738C160.508 149.239 159.892 149.47 159.399 149.56C159.152 149.605 158.905 149.65 158.658 149.695C158.029 149.81 157.354 149.921 156.769 149.662C156.184 149.403 155.795 148.613 156.177 148.1C156.423 147.768 156.878 147.677 157.291 147.652C158.09 147.602 158.899 147.704 159.662 147.949ZM102.434 140.716C103.123 141.046 103.893 141.695 103.638 142.414C96.544 140.867 88.9652 141.632 82.3232 144.565C79.3345 145.885 76.5291 147.63 73.436 148.682C72.3778 149.042 71.2225 149.318 70.1535 148.992C69.0845 148.666 68.193 147.531 68.5057 146.458C68.7992 145.451 69.9209 144.972 70.9147 144.636C75.8128 142.978 80.7962 141.571 85.8386 140.424C91.3404 139.173 97.3442 138.282 102.434 140.716ZM204.296 140.631C203.79 140.629 203.364 141.001 203.031 141.383C202.223 142.308 201.648 143.419 201.221 144.571C200.691 146.002 200.377 147.513 200.294 149.037C201.761 146.514 203.329 144.05 204.994 141.652C205.283 141.236 204.803 140.633 204.296 140.631ZM195.307 145.127C195.169 145.128 195.022 145.133 194.905 145.207C194.64 145.375 194.677 145.766 194.755 146.069C195.004 147.029 195.348 147.965 195.781 148.857C196.041 147.599 196.458 146.374 197.02 145.219C196.451 145.154 195.879 145.123 195.307 145.127ZM84.1443 141.884C79.9452 143.175 75.7461 144.465 71.547 145.756C71.0454 145.91 70.4634 146.148 70.3565 146.662C70.6979 147.16 71.3482 147.371 71.9514 147.342C72.5546 147.313 73.1272 147.081 73.6862 146.853C77.9463 145.112 82.2063 143.372 86.4663 141.631C85.7055 141.419 84.8994 141.652 84.1443 141.884ZM128.456 144.24C128.23 144.631 127.761 144.797 127.409 145.08C127.057 145.363 126.851 145.972 127.222 146.229C127.791 145.66 128.36 145.09 128.928 144.521C128.811 144.375 128.64 144.273 128.456 144.24ZM172.76 143.937C175.813 144.254 178.893 144.417 181.95 144.153C182.741 144.085 183.687 144.053 184.156 144.694C183.564 145.297 182.632 145.37 181.787 145.406C178.614 145.542 175.44 145.678 172.267 145.814C171.648 145.841 170.863 145.762 170.663 145.176C170.504 144.714 170.864 144.205 171.315 144.02C171.766 143.835 172.275 143.886 172.76 143.937ZM219.949 140.602C220.687 141.5 220.957 142.764 220.649 143.885C220.573 144.162 220.463 144.434 220.286 144.66C219.821 145.252 218.964 145.427 218.232 145.252C217.5 145.077 216.873 144.61 216.314 144.106C215.738 143.586 215.198 142.993 214.921 142.268C214.645 141.543 214.677 140.661 215.167 140.059C215.572 139.564 216.225 139.326 216.862 139.279C218.022 139.194 219.21 139.703 219.949 140.602ZM117.055 142.69C117.347 142.926 117.298 143.415 117.049 143.696C116.8 143.976 116.42 144.095 116.056 144.186C115.627 144.293 115.175 144.377 114.744 144.275C114.314 144.172 113.91 143.838 113.857 143.399C113.78 142.761 114.447 142.262 115.082 142.162C115.774 142.053 116.51 142.25 117.055 142.69ZM216.569 140.813C216.246 141.232 216.458 141.987 216.983 142.059C217.588 142.142 218.059 142.778 217.961 143.381C217.885 143.855 218.462 144.25 218.921 144.108C219.379 143.966 219.644 143.452 219.634 142.973C219.623 142.493 219.395 142.046 219.135 141.642C218.849 141.198 218.499 140.766 218.016 140.549C217.534 140.332 216.893 140.395 216.569 140.813ZM214.957 97.8149C210.557 98.6209 206.198 100.543 203.36 104.001C200.521 107.459 199.54 112.634 201.759 116.518C202.543 117.891 203.74 119.088 205.245 119.571C206.75 120.054 208.571 119.699 209.575 118.478C210.714 117.093 213.014 118.421 214.728 117.896C217.1 117.168 219.564 116.747 222.043 116.644C222.63 116.619 223.236 116.615 223.785 116.828C224.38 117.059 224.85 117.522 225.303 117.972C226.871 119.535 228.472 121.143 229.401 123.153C230.874 126.341 230.509 130.228 232.369 133.206C232.587 131.339 232.804 129.471 233.022 127.604C233.102 126.911 233.192 126.191 233.567 125.602C233.941 125.014 234.69 124.601 235.346 124.839C236.503 125.259 237.707 125.71 238.537 126.619C239.367 127.528 239.675 129.042 238.877 129.979C238.105 130.884 238.98 132.192 239.39 133.309C240.099 135.243 239.265 137.454 239.823 139.437C240.285 141.08 241.62 142.307 242.895 143.442C243.268 143.773 243.703 144.127 244.2 144.082C244.616 144.044 244.951 143.733 245.235 143.427C246.93 141.6 248.09 139.284 248.539 136.833C248.72 135.844 248.376 134.403 247.38 134.538C247.652 132.165 249.834 130.549 251.115 128.533C252.496 126.359 252.823 123.685 252.886 121.11C252.949 118.522 252.697 115.709 250.972 113.778C248.9 111.458 244.873 111.285 242.609 113.418C242.045 113.95 241.301 114.653 240.628 114.268C241.156 113.321 241.683 112.375 242.211 111.428C243.071 109.886 243.949 108.287 244.124 106.53C244.469 103.062 241.829 99.7792 238.565 98.5599C235.301 97.3405 231.615 97.8461 228.341 99.0387C227.521 99.3376 226.551 99.9796 226.774 100.824C226.903 101.313 227.398 101.609 227.652 102.046C227.811 102.318 227.795 102.406 227.616 102.626C227.507 102.76 227.312 103.145 227.137 103.07C225.281 100.92 223.273 98.6695 220.552 97.8564C218.748 97.3175 216.809 97.4757 214.957 97.8149ZM193.874 142.154C193.642 142.016 193.198 141.926 193.242 142.192C193.367 142.844 193.953 143.328 194.586 143.527C195.219 143.726 195.898 143.692 196.56 143.657C196.819 143.643 197.095 143.623 197.301 143.466C197.474 143.334 197.569 143.126 197.657 142.927C197.808 142.587 197.958 142.246 198.109 141.905C196.878 141.104 195.138 142.902 193.874 142.154ZM158.334 139.93C158.852 139.968 159.365 140.059 159.865 140.199C160.298 140.32 160.796 140.574 160.817 141.023C160.846 141.614 160.076 141.856 159.486 141.907C158.886 141.959 158.286 142.011 157.685 142.062C157.248 142.1 156.753 142.12 156.431 141.821C156 141.419 156.174 140.641 156.642 140.282C157.109 139.923 157.746 139.885 158.334 139.93ZM172.374 139.801C175.245 140.185 178.156 140.278 181.046 140.077C181.385 140.053 181.754 140.034 182.033 140.227C182.312 140.421 182.382 140.921 182.077 141.071C181.985 141.117 181.878 141.122 181.775 141.126C178.281 141.257 174.787 141.389 171.294 141.521C170.975 141.533 170.624 141.535 170.379 141.331C169.941 140.966 170.192 140.185 170.695 139.915C171.198 139.645 171.808 139.725 172.374 139.801ZM200.253 136.955C199.137 137.015 198.002 137.119 196.972 137.551C195.942 137.984 195.019 138.798 194.711 139.872C194.649 140.09 194.625 140.358 194.793 140.511C194.923 140.63 195.119 140.632 195.295 140.625C197.148 140.552 198.993 140.276 200.786 139.804C201.678 139.569 202.752 139.002 202.632 138.088C202.568 137.607 202.153 137.231 201.695 137.071C201.236 136.912 200.738 136.929 200.253 136.955ZM71.5669 136.821C71.389 137.762 71.3456 138.729 71.4382 139.682C71.6686 139.931 71.9719 139.445 71.9524 139.107C71.9079 138.334 71.7784 137.566 71.5669 136.821ZM131.232 135.669C137.655 135.96 144.078 136.25 150.501 136.54C151.1 136.567 151.896 136.797 151.861 137.396C151.095 137.888 150.105 137.786 149.201 137.681C143.475 137.014 137.683 136.922 131.939 137.406C131.443 137.448 130.917 137.489 130.474 137.261C130.032 137.034 129.746 136.427 130.034 136.021C130.285 135.666 130.797 135.65 131.232 135.669ZM115.657 134.996C115.94 135.038 116.234 135.112 116.439 135.311C116.909 135.766 116.619 136.63 116.055 136.96C115.49 137.289 114.791 137.243 114.14 137.187C113.426 137.125 113.194 136.053 113.663 135.511C114.132 134.969 114.948 134.889 115.657 134.996ZM138.247 132.62C148.715 133.163 159.183 133.706 169.651 134.249C170.211 134.278 170.953 134.494 170.924 135.055C169.198 135.365 167.41 135.331 165.697 134.953L167.218 136.262C166.493 136.719 165.721 137.191 164.864 137.21C164.007 137.229 163.074 136.598 163.098 135.741C163.532 135.541 163.965 135.34 164.399 135.14C155.943 134.416 147.447 134.152 138.963 134.349C138.473 134.36 137.951 134.365 137.537 134.102C137.124 133.84 136.914 133.202 137.257 132.851C137.501 132.601 137.898 132.602 138.247 132.62ZM206.028 134.02C205.65 134.04 205.33 134.291 205.038 134.53C204.691 134.814 204.345 135.097 203.998 135.381C203.635 135.678 203.242 136.032 203.221 136.501C203.209 136.755 203.403 137.057 203.651 137C203.72 136.984 203.78 136.942 203.838 136.901C204.664 136.319 205.489 135.737 206.315 135.154C206.483 135.036 206.663 134.901 206.718 134.702C206.818 134.338 206.405 133.999 206.028 134.02ZM218.868 130.97C218.901 131.819 218.479 132.615 218.329 133.451C218.18 134.287 218.465 135.353 219.292 135.548C219.536 135.606 219.607 135.955 219.469 136.165C219.331 136.374 219.071 136.464 218.824 136.509C218.058 136.648 217.151 136.402 216.799 135.708C216.623 135.36 216.609 134.956 216.599 134.566C216.572 133.523 216.546 132.479 216.519 131.436C216.5 130.723 216.58 129.845 217.233 129.557C218.011 129.214 218.835 130.121 218.868 130.97ZM207.482 135.703C207.331 135.773 207.228 135.936 207.229 136.103L207.192 136.112C207.276 136.298 207.577 136.327 207.695 136.161C207.813 135.994 207.685 135.72 207.482 135.703ZM206.038 130.25C205.691 130.259 205.304 130.322 205.099 130.601C204.88 130.9 204.969 131.338 205.194 131.632C205.419 131.927 205.75 132.116 206.059 132.32C207.362 133.179 208.402 134.431 209.008 135.868C209.42 135.326 209.832 134.783 210.244 134.241C210.552 133.836 210.876 133.372 210.811 132.868C210.765 132.503 210.52 132.197 210.26 131.937C209.158 130.835 207.595 130.21 206.038 130.25ZM73.2771 121.856C72.793 121.896 72.5421 122.44 72.3899 122.901C72.158 123.604 71.9261 124.307 71.6942 125.009C71.4409 125.777 71.1857 126.554 71.1162 127.359C71.0701 127.893 71.1066 128.43 71.1431 128.965C71.257 130.634 71.3709 132.304 71.4848 133.974C71.5068 134.296 71.7524 134.742 72.0193 134.559C71.9085 130.295 72.3321 126.016 73.2771 121.856ZM210.205 127.995C209.765 128.163 209.298 128.457 209.235 128.923C209.171 129.389 209.857 129.821 210.123 129.434C210.463 128.939 211.311 129.197 211.592 129.728C211.873 130.258 211.79 130.896 211.786 131.496C211.782 132.096 211.92 132.785 212.443 133.079C212.531 132.276 212.619 131.473 212.706 130.67C212.815 129.679 212.808 128.45 211.937 127.965C211.416 127.675 210.762 127.783 210.205 127.995ZM224.316 127.542C225.029 127.574 225.79 127.822 226.18 128.42C226.571 129.018 226.364 129.998 225.676 130.19C224.695 130.465 223.778 129.083 222.819 129.426C222.219 129.641 221.849 130.484 221.223 130.363C220.835 130.288 220.621 129.823 220.698 129.436C220.775 129.049 221.064 128.738 221.374 128.493C222.199 127.839 223.264 127.495 224.316 127.542ZM115.092 126.836C115.78 126.947 116.453 127.7 116.09 128.294C115.989 128.461 115.823 128.58 115.65 128.671C115.221 128.897 114.692 128.974 114.25 128.777C113.807 128.58 113.495 128.069 113.615 127.6C113.766 127.01 114.491 126.739 115.092 126.836ZM225.434 122.921C225.907 123.371 226.276 124.218 225.746 124.6C225.186 125.004 224.514 124.322 223.978 123.887C223.379 123.4 222.567 123.186 221.806 123.312C221.319 123.393 220.861 123.605 220.372 123.676C219.884 123.747 219.315 123.635 219.049 123.219C218.769 122.783 218.947 122.166 219.331 121.82C219.716 121.473 220.25 121.346 220.766 121.299C222.457 121.145 224.203 121.751 225.434 122.921ZM115.068 121.542C115.49 121.79 115.718 122.374 115.483 122.803C115.172 123.37 114.359 123.362 113.731 123.207C113.505 123.15 113.267 123.076 113.118 122.898C112.76 122.472 113.161 121.804 113.659 121.558C114.098 121.341 114.646 121.295 115.068 121.542Z" fill="#00160A"/>
<path fill-rule="evenodd" clip-rule="evenodd" d="M58.4007 178.593C58.4584 178.754 58.5117 178.933 58.4457 179.09C58.3274 179.372 57.942 179.382 57.6365 179.38C55.4881 179.363 53.4906 181.208 53.338 183.351C53.3219 183.578 53.0107 183.681 52.8094 183.576C52.6081 183.472 52.5045 183.245 52.4349 183.029C52.0423 181.811 52.2953 180.446 52.921 179.33C53.5467 178.214 54.515 177.324 55.5669 176.595C55.975 176.313 56.4831 176.041 56.9447 176.224C57.2498 176.344 57.449 176.635 57.6151 176.918C57.928 177.451 58.1913 178.012 58.4007 178.593ZM57.1528 178.35C56.9637 177.771 56.1962 177.564 55.6229 177.768C55.0496 177.972 54.6316 178.46 54.2415 178.927C53.8717 179.37 53.4847 179.853 53.4411 180.428C54.4297 179.381 55.7434 178.646 57.1528 178.35Z" fill="#FFB61D"/>
</svg>
