<svg width="301" height="300" viewBox="0 0 301 300" fill="none" xmlns="http://www.w3.org/2000/svg">
<rect width="300" height="300" transform="translate(0.5)" fill="white"/>
<path fill-rule="evenodd" clip-rule="evenodd" d="M56.6047 219.575C74.7127 239.286 144.737 227.964 190.845 227.964C210.737 227.964 277.489 237.933 249.924 169.467C159.543 -55.0212 -0.77063 157.12 56.6047 219.575Z" fill="#C7D2FE"/>
<path fill-rule="evenodd" clip-rule="evenodd" d="M136.725 221.161C136.813 221.093 136.905 221.02 136.943 220.916C137.066 220.582 136.584 220.36 136.228 220.368C135.712 220.38 135.05 220.727 135.208 221.219C135.3 221.503 135.65 221.635 135.944 221.583C136.238 221.53 136.488 221.343 136.725 221.161ZM138.259 215.307C138.649 215.43 139.034 215.581 139.373 215.808C140.01 216.235 140.444 216.897 140.86 217.542C141.159 218.004 141.461 218.475 141.61 219.004C141.771 219.577 141.742 220.189 141.634 220.775C141.298 222.599 140.172 224.264 138.604 225.256C137.036 226.247 135.049 226.551 133.257 226.072C132.908 225.979 132.556 225.852 132.288 225.611C132.062 225.408 131.91 225.137 131.771 224.867C131.041 223.452 130.549 221.879 130.605 220.287C130.661 218.696 131.316 217.085 132.555 216.084C134.111 214.829 136.352 214.709 138.259 215.307" fill="white"/>
<path fill-rule="evenodd" clip-rule="evenodd" d="M220.579 128.712C219.724 128.701 218.923 129.417 218.838 130.268C218.803 130.616 218.951 131.048 219.297 131.096C219.556 131.131 219.784 130.931 219.958 130.736C220.326 130.323 220.643 129.863 220.898 129.372C220.983 129.207 221.059 128.995 220.946 128.847C220.864 128.739 220.714 128.713 220.579 128.712ZM220.209 124.898C221.422 125.321 222.522 126.066 223.366 127.036C224.091 127.869 224.644 128.951 224.491 130.045C224.435 130.447 224.287 130.83 224.118 131.198C223.478 132.595 222.377 133.933 220.865 134.203C220.072 134.345 219.254 134.175 218.491 133.915C217.609 133.615 216.768 133.194 215.999 132.668C215.591 132.389 215.186 132.057 215.007 131.597C214.884 131.279 214.88 130.929 214.885 130.589C214.896 129.746 214.952 128.889 215.246 128.1C215.617 127.1 216.344 126.276 217.116 125.54C217.426 125.244 217.755 124.952 218.153 124.793C218.804 124.534 219.547 124.667 220.209 124.898Z" fill="white"/>
<path fill-rule="evenodd" clip-rule="evenodd" d="M220.58 64.115C225.601 69.2936 229.565 75.4861 232.159 82.2063C232.338 82.6679 232.511 83.1806 232.341 83.6452C231.032 87.2227 228.506 90.2051 226.029 93.1051C224.446 94.9582 222.863 96.8112 221.281 98.6643C219.77 100.433 218.259 102.203 216.697 103.927C208.744 112.708 199.347 120.386 188.464 125.11C188.054 125.288 187.613 125.466 187.171 125.395C186.729 125.323 186.314 124.896 186.43 124.464C187.775 119.454 189.129 114.215 188.05 109.141C187.789 107.917 187.499 106.376 188.514 105.639C196.734 99.6768 202.652 91.1539 208.323 82.7468C209.749 80.6328 211.171 78.5131 212.433 76.298C214.674 72.3651 216.399 68.1415 217.553 63.7678C217.711 63.1676 218.471 62.8974 219.074 63.0546C219.677 63.2119 220.147 63.6687 220.58 64.115" fill="white"/>
<path fill-rule="evenodd" clip-rule="evenodd" d="M63.9775 84.2334C64.7939 91.614 67.0662 98.8308 70.6256 105.348C72.8294 109.383 75.51 113.135 78.1835 116.875C80.0439 119.478 82.0333 122.19 84.9361 123.536C85.7079 123.893 85.6002 125.006 85.393 125.831C84.4977 129.397 84.0799 133.083 84.1544 136.759C84.1614 137.107 84.1706 137.467 84.0341 137.786C83.5709 138.871 81.9837 138.69 80.8911 138.246C74.1305 135.502 68.9401 129.983 64.0915 124.531C57.7963 117.452 51.5947 110.062 47.8758 101.349C47.623 100.757 47.3776 100.133 47.4199 99.4908C47.463 98.836 47.7995 98.2409 48.1407 97.6804C51.512 92.1431 56.202 87.4149 61.7117 83.9989C62.0998 83.7582 62.5142 83.5171 62.9705 83.5013C63.4268 83.4856 63.9273 83.7795 63.9775 84.2334Z" fill="white"/>
<path fill-rule="evenodd" clip-rule="evenodd" d="M219.594 213.71C220.177 212.723 220.899 211.636 222.03 211.448C222.476 211.375 222.711 210.89 222.863 210.464C224.732 205.221 224.912 199.389 223.37 194.04C222.93 192.513 223.472 190.895 224.008 189.399C225.392 185.539 226.776 181.678 228.16 177.818C227.367 176.447 225.276 176.487 224.205 175.32C222.827 173.818 223.867 171.43 224.946 169.701C231.254 159.6 237.561 149.499 243.869 139.398C244.641 138.16 246.337 137.772 247.758 138.102C249.18 138.432 250.393 139.326 251.562 140.199C256.162 143.635 260.763 147.071 265.363 150.507C267.832 152.351 270.557 154.707 270.415 157.785C270.336 159.488 269.362 161.003 268.419 162.423C264.773 167.917 261.127 173.411 257.482 178.904C255.428 181.999 255.995 186.064 255.374 189.726C254.393 195.512 250.425 200.265 246.751 204.841C243.077 209.418 239.4 214.528 239.194 220.393C238.947 227.384 235.626 234.211 230.279 238.721C231.83 234.957 222.03 236.458 210.82 231.998C212.665 225.473 216.148 219.55 219.594 213.71Z" fill="white"/>
<path fill-rule="evenodd" clip-rule="evenodd" d="M96.5041 230.076C95.8051 229.504 95.5822 228.539 95.4588 227.642C94.0312 217.262 100.162 207.017 99.0701 196.596C98.5073 191.226 96.0398 186.215 92.9347 181.808C90.7905 178.764 90.6702 174.687 91.4702 171.046C92.2702 167.405 93.884 164 94.9724 160.435C99.8127 144.581 93.923 127.645 88.1 112.129C99.7033 106.518 113.244 107.605 126.098 108.365C138.953 109.125 152.777 109.179 163.491 102C164.96 117.53 161.722 133.077 158.502 148.338C174.838 146.746 191.175 145.155 207.512 143.563C207.98 143.517 208.492 143.482 208.882 143.748C209.401 144.103 209.481 144.827 209.51 145.457C210.274 161.608 210.737 177.773 210.899 193.941C210.903 194.346 210.889 194.799 210.605 195.086C210.361 195.332 209.989 195.384 209.646 195.422C186.758 197.973 163.87 200.524 140.982 203.074C139.003 203.295 136.183 202.779 136.299 200.781C136.816 191.873 136.514 182.916 135.399 174.063C129.317 173.833 123.193 174.761 117.448 176.782C116.144 177.241 114.577 178.474 115.28 179.669C119.931 187.572 114.159 199.451 120.475 206.085C122.647 208.366 122.496 211.954 122.066 215.082C121.143 221.785 119.576 228.398 117.393 234.8C118.448 227.432 97.1491 234.027 96.5041 230.076Z" fill="white"/>
<path fill-rule="evenodd" clip-rule="evenodd" d="M31.0383 62.8107C31.0578 62.9681 30.9727 63.1333 30.8332 63.2087C30.7222 63.0975 30.6111 62.9864 30.5 62.8753C30.6665 62.8024 30.8554 62.7817 31.0337 62.8166L31.0383 62.8107Z" fill="#00160A"/>
<path fill-rule="evenodd" clip-rule="evenodd" d="M137.859 215.307C138.249 215.43 138.634 215.581 138.973 215.808C139.61 216.235 140.044 216.897 140.46 217.542C140.759 218.004 141.061 218.475 141.21 219.004C141.371 219.577 141.342 220.189 141.234 220.775C140.898 222.599 139.772 224.264 138.204 225.256C136.636 226.247 134.649 226.551 132.857 226.072C132.508 225.979 132.156 225.852 131.888 225.611C131.662 225.408 131.51 225.137 131.371 224.867C130.641 223.452 130.149 221.879 130.205 220.287C130.261 218.696 130.916 217.085 132.155 216.084C133.711 214.829 135.952 214.709 137.859 215.307M135.673 224.785C136.648 224.637 137.506 224 138.067 223.188C138.627 222.377 138.915 221.404 139.053 220.427C139.131 219.87 139.139 219.231 138.745 218.828C138.509 218.587 138.173 218.479 137.85 218.383C136.638 218.02 135.254 217.712 134.168 218.361C133.377 218.834 132.937 219.711 132.537 220.541C132.069 221.514 132.185 222.741 132.826 223.608C133.467 224.476 134.606 224.947 135.673 224.785V224.785Z" fill="#00160A"/>
<path fill-rule="evenodd" clip-rule="evenodd" d="M182.396 171.515C182.413 171.308 182.437 171.086 182.574 170.93C182.708 170.778 182.919 170.723 183.116 170.677C188.21 169.491 193.471 169.027 198.694 169.303C199.359 169.338 200.214 169.564 200.258 170.228C200.51 174.038 200.763 177.849 201.015 181.659C201.028 181.852 201.034 182.066 200.911 182.214C200.81 182.336 200.648 182.383 200.496 182.422C195.064 183.838 189.338 184.117 183.794 183.237C183.652 183.214 183.501 183.187 183.391 183.094C183.257 182.982 183.21 182.799 183.171 182.629C182.354 178.992 182.091 175.231 182.396 171.515ZM183.597 177.836C183.697 179.275 183.998 180.7 184.49 182.055C184.981 182.126 185.467 182.228 185.956 182.311C190.169 183.024 194.478 182.306 198.69 181.59C198.989 181.539 199.317 181.471 199.501 181.231C199.69 180.985 199.665 180.642 199.631 180.335C199.485 179.022 199.34 177.709 199.195 176.396C199.184 176.29 199.169 176.176 199.097 176.098C199.01 176.002 198.868 175.986 198.739 175.978C195.745 175.781 192.742 176.004 189.75 176.227C188.097 176.351 186.443 176.474 184.789 176.598C184.401 176.627 183.959 176.684 183.736 177.004C183.571 177.239 183.577 177.55 183.597 177.836ZM183.643 172.344C183.382 173.184 183.335 174.089 183.508 174.95C183.539 175.105 183.583 175.269 183.7 175.374C183.875 175.53 184.14 175.505 184.372 175.471C187.189 175.058 190.037 174.853 192.884 174.858C193.286 174.859 193.409 174.318 193.405 173.916C193.398 173.328 193.392 172.739 193.385 172.151C193.382 171.81 193.365 171.435 193.132 171.187C192.851 170.888 192.383 170.898 191.975 170.929C191.032 171.001 190.089 171.073 189.145 171.145C188.694 171.179 187.497 171.486 186.947 171.522C185.99 171.675 185.032 171.828 184.074 171.981C183.972 171.997 183.864 172.016 183.786 172.083C183.709 172.148 183.673 172.248 183.643 172.344ZM196.274 174.904C197.022 174.914 197.772 174.839 198.504 174.682C198.678 174.644 198.861 174.597 198.986 174.469C199.168 174.281 199.166 173.987 199.153 173.726C199.114 172.967 199.076 172.208 199.037 171.449C199.023 171.179 198.993 170.874 198.781 170.705C198.595 170.556 198.332 170.564 198.094 170.581C197.262 170.637 196.43 170.694 195.597 170.751C195.465 170.76 195.327 170.771 195.217 170.843C195.015 170.977 194.985 171.256 194.979 171.497C194.961 172.302 194.994 173.107 195.078 173.907C195.102 174.139 195.136 174.383 195.279 174.566C195.502 174.852 195.911 174.9 196.274 174.904Z" fill="#FFB61D"/>
<path fill-rule="evenodd" clip-rule="evenodd" d="M195.432 154.864C196.544 154.382 197.91 154.544 198.88 155.271C199.849 155.999 200.386 157.264 200.235 158.467C200.917 158.099 201.782 157.736 202.418 158.179C203.136 158.678 202.972 159.755 202.864 160.623C202.676 162.141 202.92 163.71 203.562 165.098C203.827 165.671 204.054 166.541 203.467 166.772C203.367 166.811 203.259 166.82 203.153 166.829C196.261 167.384 189.369 167.94 182.477 168.495C182.288 168.51 182.077 168.519 181.934 168.394C181.788 168.267 181.769 168.051 181.761 167.857C181.695 166.236 181.629 164.615 181.563 162.994C181.546 162.559 181.537 162.09 181.783 161.731C182.189 161.137 183.041 161.138 183.752 161.024C184.463 160.911 185.29 160.311 185.017 159.644C184.711 158.902 185.751 158.359 186.545 158.238C187.339 158.117 188.392 157.644 188.152 156.878C187.889 156.041 189.04 155.522 189.91 155.406C190.523 155.325 191.165 155.246 191.747 155.457C192.329 155.667 192.821 156.266 192.69 156.871C192.54 157.563 193.383 158.209 194.048 157.964C194.713 157.719 194.983 156.811 194.646 156.187C194.371 155.678 194.901 155.094 195.432 154.864ZM198.991 165.546C198.733 165.069 198.731 164.5 198.729 163.957C198.718 161.407 198.561 158.858 198.26 156.326C198.244 156.198 198.22 156.055 198.116 155.981C198.025 155.916 197.904 155.924 197.794 155.934C197.255 155.984 196.617 156.103 196.405 156.6C196.314 156.812 196.325 157.052 196.337 157.283C196.473 159.838 196.61 162.393 196.746 164.949C196.759 165.187 196.791 165.46 196.989 165.593C197.096 165.666 197.232 165.679 197.362 165.686C197.908 165.716 198.458 165.669 198.991 165.546ZM189.721 161.617C189.654 162.043 189.56 162.466 189.535 162.896C189.493 163.615 189.645 164.33 189.795 165.034C189.892 165.485 190.476 165.708 190.903 165.534C191.331 165.36 191.589 164.903 191.661 164.447C191.732 163.991 191.648 163.526 191.576 163.07C191.29 161.279 191.166 159.461 191.207 157.648C191.217 157.189 190.769 156.774 190.312 156.82C189.856 156.865 189.498 157.359 189.598 157.807C189.877 159.055 189.919 160.355 189.721 161.617ZM194.254 159.17C193.985 158.818 193.369 159.006 193.159 159.396C192.95 159.786 193.014 160.259 193.066 160.698C193.201 161.847 193.214 163.009 193.104 164.161C193.072 164.5 193.036 164.87 193.223 165.155C193.511 165.593 194.144 165.589 194.665 165.536C194.829 165.52 195.017 165.488 195.099 165.346C195.156 165.247 195.143 165.124 195.128 165.01C194.887 163.224 194.647 161.438 194.406 159.652C194.383 159.483 194.357 159.306 194.254 159.17ZM200.223 159.938C200.021 160.214 199.978 160.573 199.961 160.915C199.9 162.087 200.056 163.259 200.211 164.422C200.272 164.88 200.481 165.47 200.943 165.438C201.41 165.407 201.532 164.781 201.522 164.313C201.493 163.072 201.464 161.831 201.435 160.589C201.428 160.263 201.393 159.885 201.122 159.703C200.838 159.512 200.426 159.661 200.223 159.938ZM186.097 159.644C186.097 159.644 186.302 161.264 186.374 162.089C186.464 163.125 186.578 164.159 186.717 165.19C186.737 165.339 186.764 165.502 186.875 165.605C187.066 165.783 187.805 165.665 187.941 165.441C188.077 165.217 188.069 164.938 188.057 164.676C188.02 163.849 187.982 163.022 187.945 162.195C187.905 161.308 187.694 159.396 187.694 159.396M183.418 165.509C183.477 165.695 183.547 165.889 183.697 166.013C183.989 166.255 184.464 166.105 184.695 165.803C184.926 165.502 184.978 165.104 185.022 164.726C185.076 164.263 185.129 163.782 184.979 163.341C184.829 162.899 184.414 162.511 183.949 162.552C183.522 162.589 183.191 162.98 183.091 163.397C182.992 163.814 183.076 164.251 183.179 164.667C183.25 164.95 183.33 165.231 183.418 165.509Z" fill="#E7EAEE"/>
<path fill-rule="evenodd" clip-rule="evenodd" d="M211.356 99.1845C210.8 100.02 210.196 100.866 209.335 101.382C208.474 101.897 207.286 101.998 206.512 101.358C205.659 100.653 205.606 99.3814 205.673 98.2762C205.699 97.8507 205.734 97.4218 205.855 97.0133C206.067 96.3048 206.529 95.7002 207.011 95.1396C207.595 94.4595 208.243 93.8034 209.054 93.4206C209.866 93.0379 210.874 92.9707 211.634 93.4469C212.544 94.0169 212.88 95.2295 212.708 96.2892C212.536 97.3489 211.951 98.291 211.356 99.1845M209.589 100.068C210.291 99.3209 210.893 98.4799 211.373 97.5746C211.69 96.9789 211.959 96.3313 211.947 95.6569C211.934 94.9824 211.578 94.2774 210.952 94.0271C210.136 93.7012 209.24 94.2226 208.558 94.7767C208.073 95.1712 207.603 95.6038 207.291 96.1463C207.094 96.4893 206.967 96.8668 206.84 97.2414C206.6 97.9502 206.357 98.6888 206.448 99.4314C206.539 100.174 207.071 100.92 207.815 100.997C208.504 101.068 209.115 100.573 209.589 100.068Z" fill="#FFB61D"/>
<path fill-rule="evenodd" clip-rule="evenodd" d="M68.0197 108.625C68.8914 109.508 69.611 110.541 70.1373 111.664C70.6663 112.793 70.133 114.245 69.0948 114.935C68.0567 115.626 66.653 115.617 65.5147 115.108C64.3764 114.599 63.4819 113.649 62.823 112.59C62.3263 111.792 61.9412 110.897 61.8999 109.958C61.8586 109.019 62.2044 108.03 62.9474 107.455C63.6989 106.872 64.7556 106.789 65.6644 107.068C66.5732 107.348 67.3517 107.948 68.0197 108.625M64.6186 108.088C63.8644 108.01 63.1944 108.703 63.065 109.45C62.9356 110.197 63.2204 110.955 63.5889 111.617C64.3881 113.054 65.8139 114.331 67.4562 114.251C68.3004 114.21 69.2257 113.626 69.2107 112.78C69.2043 112.415 69.024 112.078 68.8439 111.76C68.3656 110.915 67.849 110.079 67.159 109.395C66.469 108.712 65.5845 108.187 64.6186 108.088Z" fill="#FFB61D"/>
<path fill-rule="evenodd" clip-rule="evenodd" d="M133.929 219.781C134.535 219.321 135.288 219.023 136.047 219.072C136.806 219.121 137.557 219.557 137.874 220.248C138.215 220.989 138.002 221.911 137.471 222.53C136.939 223.149 136.138 223.491 135.33 223.604C134.779 223.681 134.121 223.612 133.819 223.144C133.673 222.918 133.64 222.64 133.611 222.373C133.558 221.893 133.506 221.414 133.453 220.934C133.431 220.731 133.409 220.52 133.475 220.327C133.551 220.099 133.738 219.927 133.929 219.781M136.325 221.161C136.413 221.093 136.505 221.02 136.543 220.916C136.666 220.582 136.184 220.36 135.828 220.368C135.312 220.38 134.65 220.727 134.808 221.219C134.9 221.503 135.25 221.635 135.544 221.583C135.838 221.53 136.088 221.343 136.325 221.161H136.325Z" fill="#00160A"/>
<path fill-rule="evenodd" clip-rule="evenodd" d="M219.696 66.4521C224.413 71.3359 228.137 77.1757 230.575 83.5133C230.742 83.9486 230.904 84.4321 230.745 84.8702C229.515 88.2439 227.142 91.0566 224.815 93.7914L220.354 99.034C218.935 100.702 217.515 102.371 216.048 103.997C208.576 112.278 199.748 119.518 189.524 123.974C189.138 124.142 188.724 124.309 188.308 124.242C187.893 124.175 187.503 123.772 187.612 123.365C188.876 118.64 190.148 113.699 189.134 108.914C188.889 107.76 188.617 106.307 189.571 105.612C197.293 99.9889 202.852 91.9513 208.18 84.0229C209.52 82.0294 210.856 80.0303 212.042 77.9414C214.147 74.2325 215.768 70.2494 216.852 66.1247C217 65.5587 217.715 65.3038 218.281 65.4522C218.847 65.6005 219.289 66.0312 219.696 66.4521ZM216.394 72.5169C215.915 72.3186 215.473 72.8549 215.228 73.3126C214.975 73.7885 214.721 74.2651 214.467 74.7421L214.448 74.7768L214.435 74.8011L214.435 74.8012C209.547 83.9824 204.585 93.3044 197.136 100.536C196.432 101.219 195.646 102.045 195.775 103.017C196.191 106.134 194.527 109.425 191.771 110.938C190.52 111.625 190.534 113.397 190.718 114.813C190.791 115.38 191.005 116.09 191.575 116.138C193.245 116.279 194.848 117.101 195.937 118.376C196.28 118.778 196.931 118.526 197.379 118.245C208.648 111.161 217.306 100.697 225.76 90.4161C226.051 90.0614 226.362 89.6145 226.209 89.1813C224.93 85.5372 225.135 81.3958 226.768 77.8959C225.805 75.9786 224.656 74.1543 223.344 72.4565C221.161 73.4043 218.594 73.4266 216.394 72.5169ZM189.666 122.102C190.111 122.335 190.649 122.114 191.093 121.881C192.262 121.271 193.388 120.579 194.46 119.811C194.743 119.608 194.827 119.203 194.727 118.869C194.627 118.535 194.376 118.266 194.099 118.055C193.232 117.398 192.021 117.225 191.005 117.614C190.818 117.686 190.631 117.779 190.502 117.933C190.35 118.113 190.295 118.353 190.246 118.583C190.001 119.747 189.807 120.921 189.666 122.102ZM221.311 70.0903C220.546 68.5932 219.365 67.3112 217.935 66.4252C217.438 66.8635 217.342 67.5294 217.243 68.2083C217.175 68.6742 217.107 69.1461 216.908 69.5548C216.843 69.6878 216.763 69.8151 216.684 69.942L216.684 69.9422L216.684 69.9423C216.533 70.1842 216.383 70.425 216.334 70.7027C216.261 71.1264 216.619 71.6578 217.026 71.5177C217.356 71.4037 217.703 71.4769 218.052 71.5507C218.237 71.5897 218.422 71.6288 218.606 71.6407C219.679 71.71 220.57 70.8692 221.311 70.0903ZM227.38 79.0634C226.559 80.695 226.689 82.6219 226.838 84.4419L227.052 87.052C227.076 87.339 227.232 87.7264 227.509 87.6469C227.68 87.1661 228.008 86.7694 228.336 86.3718C228.623 86.0239 228.91 85.6753 229.095 85.2688C229.721 83.8922 229.026 82.3057 228.342 80.9573L227.38 79.0634ZM190.663 108.033C190.698 108.543 191.228 108.925 191.739 108.911C192.251 108.897 192.711 108.566 193.01 108.15C193.309 107.735 193.473 107.24 193.633 106.754L194.16 105.149C194.307 104.701 194.316 104.017 193.848 103.964C193.679 103.945 193.518 104.035 193.379 104.133C192.854 104.506 192.472 105.042 192.1 105.568L191.087 106.999C190.868 107.309 190.638 107.653 190.663 108.033ZM69.8255 103.748C66.2662 97.2307 63.9939 90.014 63.1775 82.6333C63.1273 82.1795 62.6268 81.8855 62.1705 81.9013C61.7141 81.9171 61.2998 82.1582 60.9117 82.3988C55.402 85.8148 50.7119 90.5431 47.3407 96.0803C46.9994 96.6408 46.663 97.236 46.6199 97.8908C46.5776 98.5334 46.823 99.1568 47.0758 99.7491C50.7946 108.462 56.9962 115.852 63.2914 122.931C68.1401 128.383 73.3305 133.902 80.091 136.646C81.1837 137.09 82.7708 137.271 83.234 136.186C83.3688 135.871 83.3616 135.516 83.3546 135.172L83.3544 135.159C83.2799 131.483 83.6976 127.797 84.593 124.231C84.8001 123.406 84.9078 122.293 84.136 121.936C81.2332 120.59 79.2438 117.878 77.3835 115.275C74.71 111.535 72.0294 107.783 69.8255 103.748ZM76.1091 132.235C75.7092 132.341 75.3099 132.089 74.9761 131.845C68.823 127.336 64.0548 121.235 59.3698 115.215L51.1022 104.592C52.4977 103.704 52.6749 101.772 52.7053 100.118C52.7449 97.9679 52.7737 95.754 51.9969 93.7485C51.8243 93.3028 52.0491 92.8088 52.2898 92.3958C53.3221 90.6245 54.7537 89.0875 56.4473 87.9321C56.6112 87.8203 56.7848 87.7092 56.9813 87.6814C57.4999 87.6081 57.8978 88.1125 58.175 88.557C59.2696 90.3123 60.774 92.2974 62.8375 92.1528C63.6233 92.0978 64.059 93.0233 64.2882 93.7769C67.1388 103.148 72.4907 111.601 78.767 119.121C79.5826 120.098 79.7872 121.417 79.99 122.724C80.2161 124.181 80.4399 125.624 81.5061 126.561C82.4163 127.361 82.2474 128.798 82.0017 129.984C81.9515 130.227 81.8916 130.487 81.7072 130.653C81.5702 130.776 81.385 130.827 81.207 130.875L76.1091 132.235ZM61.5222 89.9821C60.3935 89.1934 59.4185 88.1856 58.6676 87.0314C58.5052 86.7817 58.3474 86.5019 58.3759 86.2054C58.4069 85.883 58.6495 85.6251 58.8908 85.4091C59.4867 84.8757 60.1603 84.4292 60.8836 84.088C61.1485 83.963 61.4905 83.8615 61.7105 84.0548C61.8401 84.1686 61.881 84.3504 61.9148 84.5195L62.9573 89.7336C63.0189 90.0418 62.6956 90.3194 62.3814 90.3284C62.0672 90.3373 61.7799 90.1621 61.5222 89.9821ZM51.2053 100.067C51.1832 101.048 51.1083 102.148 50.3733 102.798C50.2195 102.816 50.1173 102.647 50.057 102.505C49.5275 101.251 48.9906 99.9675 48.9072 98.6092C48.8238 97.2509 49.279 95.78 50.389 94.9927C50.5391 94.8862 50.7594 94.7982 50.892 94.926C50.9453 94.9774 50.9681 95.0519 50.9875 95.1233C51.2891 96.232 51.2654 97.3995 51.2395 98.5482L51.2053 100.067ZM81.1575 132.689C81.3357 132.835 81.3547 133.096 81.3595 133.326L81.4125 135.847C80.3784 135.274 79.3877 134.622 78.4517 133.9C78.2742 133.763 78.0792 133.541 78.1879 133.345C78.2418 133.248 78.3538 133.201 78.4581 133.162C79.1273 132.916 79.8191 132.731 80.5221 132.61C80.7393 132.573 80.9869 132.549 81.1575 132.689ZM81.217 122.759C81.2075 122.645 81.2075 122.521 81.2752 122.429C81.4538 122.187 81.8413 122.406 82.0051 122.659C82.3997 123.269 82.4868 124.067 82.233 124.747C81.6536 124.25 81.2803 123.52 81.217 122.759ZM235.248 103.618C236.279 102.32 238.157 102.133 239.814 102.174C240.201 102.183 240.6 102.202 240.952 102.362C241.933 102.809 242.141 104.09 242.174 105.167C242.204 106.147 242.198 107.139 241.96 108.09C241.722 109.041 241.23 109.957 240.442 110.541C240.088 110.803 239.677 110.994 239.243 111.067C238.571 111.179 237.884 111.007 237.246 110.769C236.396 110.453 235.589 110.018 234.857 109.482C234.5 109.22 234.13 108.877 234.119 108.434C234.092 107.412 234.207 106.386 234.458 105.395C234.618 104.762 234.842 104.13 235.248 103.618ZM237.921 110.083C239.244 110.463 240.652 109.439 241.153 108.157C241.654 106.874 241.469 105.434 241.193 104.085C241.087 103.567 240.534 103.278 240.024 103.14C239.234 102.925 238.395 102.897 237.592 103.057C237.193 103.137 236.786 103.274 236.506 103.569C236.354 103.729 236.248 103.928 236.145 104.124L235.369 105.589C235.233 105.847 235.096 106.107 235.016 106.387C234.776 107.225 235.093 108.156 235.678 108.803C236.264 109.449 237.082 109.842 237.921 110.083ZM220.209 124.898C221.422 125.321 222.522 126.066 223.366 127.036C224.091 127.869 224.644 128.951 224.491 130.045C224.435 130.447 224.287 130.83 224.118 131.198C223.478 132.595 222.377 133.933 220.865 134.203C220.072 134.345 219.254 134.175 218.491 133.915C217.609 133.615 216.768 133.194 215.999 132.668C215.591 132.389 215.186 132.057 215.007 131.597C214.884 131.279 214.88 130.929 214.885 130.589C214.896 129.746 214.952 128.889 215.246 128.1C215.617 127.101 216.344 126.276 217.116 125.54C217.426 125.244 217.755 124.952 218.153 124.793C218.804 124.534 219.546 124.667 220.209 124.898ZM221.449 132.241C222.326 131.374 222.837 130.116 222.698 128.89C222.559 127.664 221.729 126.513 220.569 126.095C220.086 125.921 219.551 125.872 219.057 126.009C218.791 126.083 218.541 126.208 218.307 126.357C217.309 126.992 216.607 128.076 216.437 129.247C216.267 130.419 216.63 131.658 217.407 132.551C217.905 133.123 218.716 133.368 219.468 133.273C220.22 133.178 220.911 132.775 221.449 132.241ZM110.694 117.671C110.653 117.093 109.88 116.942 109.301 116.959C106.26 117.048 103.223 117.276 100.203 117.641C99.7069 117.701 99.6668 118.501 100.065 118.803C100.463 119.105 101.018 119.049 101.512 118.979L110.694 117.671ZM100.973 121.58C100.999 121.282 101.373 121.174 101.67 121.141L119.581 119.112C119.905 119.076 120.25 119.042 120.542 119.188C120.833 119.334 121.021 119.733 120.831 119.998C120.69 120.193 120.421 120.233 120.182 120.256L101.862 122.034C101.481 122.071 100.939 121.961 100.973 121.58ZM141.127 124.597C140.125 124.817 139.096 124.455 138.135 124.096C135.028 122.935 131.932 121.741 128.85 120.516C127.605 120.021 126.239 120.762 125.12 121.497C121.881 123.625 118.763 125.937 115.784 128.416C115.019 129.053 113.842 128.607 113.071 127.977C112.908 127.844 112.747 127.702 112.586 127.56C111.985 127.029 111.376 126.491 110.599 126.381C109.404 126.211 108.353 127.117 107.488 127.958L101.905 133.38C101.154 134.109 100.364 135.277 101.032 136.082C101.473 136.614 102.282 136.587 102.968 136.507C106.55 136.092 110.114 135.51 113.677 134.928C119.565 133.966 125.45 133.005 131.405 132.799C132.725 132.753 134.046 132.745 135.366 132.736C136.193 132.731 137.02 132.726 137.847 132.711C141.576 132.646 145.302 132.395 149.006 131.959C149.185 131.938 149.389 131.901 149.482 131.746C149.552 131.629 149.535 131.482 149.515 131.347L147.946 120.672C147.866 120.129 147.727 119.503 147.231 119.268C146.731 119.031 146.141 119.337 145.73 119.708C145.086 120.289 144.591 121.061 144.102 121.822C143.3 123.071 142.516 124.291 141.127 124.597ZM115.648 130.438C118.999 127.683 122.493 125.102 126.111 122.709C126.854 122.217 127.757 121.714 128.587 122.037L137.361 125.446C138.825 126.015 140.427 126.591 141.93 126.135C143.678 125.605 144.722 123.866 145.602 122.266C145.773 121.955 146.271 121.99 146.518 122.246C146.764 122.502 146.827 122.878 146.877 123.23L147.52 127.682C147.618 128.365 147.715 129.075 147.518 129.736C147.32 130.398 146.74 130.999 146.049 130.986C134.755 130.768 123.44 131.699 112.334 133.761C111.99 133.825 111.646 133.89 111.301 133.955C108.648 134.456 105.985 134.958 103.289 134.967C104.591 133.123 106.241 131.557 107.879 130.004C108.778 129.151 109.903 128.231 111.111 128.51C111.763 128.661 112.263 129.129 112.761 129.596L112.761 129.596C112.921 129.745 113.08 129.894 113.244 130.033C113.919 130.603 114.965 130.999 115.648 130.438ZM260.537 161.493C260.238 161.605 259.904 161.529 259.599 161.433C257.533 160.784 255.856 159.332 254.208 157.905L254.207 157.904C253.984 157.711 253.762 157.518 253.539 157.329C250.808 154.999 247.844 152.942 244.705 151.199C244.386 151.022 244.051 150.835 243.856 150.527C243.66 150.218 243.666 149.749 243.967 149.543C245.375 148.582 246.287 146.933 246.354 145.23C246.372 144.777 246.885 144.474 247.338 144.51C247.79 144.547 248.185 144.819 248.555 145.082L262.896 155.261C263.175 155.459 263.475 155.689 263.544 156.025C263.6 156.298 263.485 156.575 263.37 156.83C262.751 158.194 262.04 159.517 261.242 160.786C261.062 161.073 260.855 161.375 260.537 161.493ZM246.191 149.417C246.022 149.715 245.876 150.145 246.149 150.35L257.851 159.162C258.492 159.644 259.488 160.096 259.993 159.473C260.572 158.757 261.114 158.01 261.614 157.236C261.75 157.024 261.89 156.782 261.84 156.535C261.796 156.309 261.606 156.146 261.427 156.001C257.132 152.518 252.585 149.348 247.833 146.521L246.191 149.417ZM240.367 154.806C240.556 154.482 240.785 154.127 241.152 154.047C241.432 153.986 241.718 154.107 241.976 154.232C243.385 154.916 244.676 155.844 245.773 156.961C246.038 157.23 246.07 157.663 245.953 158.021C245.835 158.379 245.593 158.68 245.355 158.973C244.974 159.443 244.567 159.932 244.003 160.156C243.396 160.397 242.688 160.28 242.112 159.97C241.537 159.66 241.075 159.175 240.667 158.664C240.136 157.997 239.661 157.196 239.743 156.347C239.797 155.791 240.085 155.288 240.367 154.806ZM242.831 158.542C243.717 158.886 244.284 158.613 244.308 158.032C244.322 157.665 244.002 157.383 243.711 157.159L242.831 156.482C242.54 156.258 242.22 156.024 241.853 156.026C241.486 156.029 241.112 156.407 241.262 156.742C241.24 156.904 241.945 158.197 242.831 158.542ZM239.333 165.696C239.55 165.814 239.779 165.93 240.025 165.935C240.271 165.941 240.538 165.801 240.599 165.562C240.741 165.002 241.112 164.537 241.475 164.082L241.477 164.08C241.516 164.031 241.555 163.982 241.593 163.933C241.991 163.43 242.375 162.859 242.385 162.218C242.396 161.577 241.865 160.893 241.229 160.981C240.729 161.05 240.263 160.721 239.899 160.37C239.841 160.314 239.784 160.257 239.726 160.199L239.726 160.199C239.422 159.896 239.112 159.587 238.708 159.456C238.228 159.299 237.573 159.548 237.535 160.052C237.459 161.067 236.615 161.831 235.832 162.483C235.598 162.677 235.81 163.051 236.029 163.263C237.015 164.217 238.13 165.037 239.333 165.696ZM239.49 163.762L237.948 162.719C237.557 162.454 237.588 161.805 237.937 161.486C238.287 161.167 238.83 161.142 239.275 161.302C239.721 161.462 240.091 161.775 240.451 162.082C240.689 162.285 240.722 162.656 240.613 162.949C240.504 163.243 240.282 163.478 240.066 163.705C239.992 163.782 239.909 163.864 239.803 163.878C239.69 163.893 239.584 163.826 239.49 163.762ZM251.709 163.831L252.462 162.229C252.693 161.739 252.917 161.132 252.605 160.689C252.497 160.535 252.337 160.426 252.181 160.321L249.44 158.473C249.144 158.274 248.823 158.067 248.467 158.073C248.044 158.079 247.69 158.381 247.39 158.679C246.941 159.124 246.521 159.599 246.133 160.1C245.838 160.48 245.596 161.107 245.999 161.372L250.195 164.124C250.526 164.342 250.946 164.565 251.294 164.376C251.498 164.265 251.61 164.041 251.709 163.831ZM250.779 162.697C250.603 162.738 250.419 162.693 250.246 162.641C249.186 162.321 248.217 161.71 247.472 160.892C247.224 160.62 247.364 160.139 247.679 159.949C247.994 159.758 248.403 159.802 248.742 159.944C248.961 160.036 249.162 160.164 249.363 160.293C249.473 160.363 249.583 160.433 249.696 160.498C249.818 160.567 249.945 160.631 250.072 160.694L250.072 160.695C250.432 160.875 250.794 161.056 251.039 161.369C251.372 161.792 251.303 162.577 250.779 162.697ZM252.196 164.486C252.68 164.371 252.827 163.878 252.981 163.365C253.108 162.942 253.239 162.505 253.566 162.257C254.13 161.831 254.929 162.187 255.537 162.549L257.47 163.699C257.778 163.882 258.093 164.071 258.314 164.354C258.535 164.636 258.644 165.036 258.489 165.359C258.386 165.575 258.191 165.718 257.995 165.862C257.833 165.98 257.671 166.099 257.558 166.26C257.413 166.465 257.359 166.724 257.306 166.978C257.239 167.298 257.173 167.614 256.928 167.815C256.483 168.181 255.822 167.888 255.33 167.587L252.607 165.923C252.332 165.755 252.043 165.571 251.908 165.279C251.773 164.986 251.883 164.56 252.196 164.486ZM255.766 166.138C256.156 166.005 256.469 165.716 256.77 165.434C256.988 165.23 256.696 164.894 256.436 164.748L254.768 163.809C254.594 163.711 254.352 163.621 254.217 163.768C253.782 164.243 253.719 165.016 254.071 165.555C254.423 166.093 255.157 166.346 255.766 166.138ZM236.625 166.08C236.251 165.974 235.871 165.867 235.566 165.659C235.092 165.336 234.433 165.414 233.936 165.7C233.438 165.985 233.068 166.443 232.709 166.89C232.51 167.139 232.305 167.397 232.229 167.706C232.153 168.015 232.244 168.39 232.522 168.545L235.431 170.166C235.651 170.289 235.897 170.416 236.143 170.361C236.389 170.307 236.558 170.089 236.706 169.886L237.454 168.856C237.871 168.283 238.306 167.552 238.001 166.912C237.757 166.399 237.199 166.242 236.625 166.08ZM235.704 168.748C235.552 168.788 235.395 168.714 235.255 168.643L233.273 167.634C233.654 167.095 234.379 166.888 235.036 166.953C235.693 167.019 236.303 167.311 236.898 167.599L235.987 168.544C235.905 168.629 235.817 168.717 235.704 168.748ZM221.973 128.414C222.28 128.882 222.184 129.508 221.98 130.029C221.712 130.716 221.259 131.352 220.618 131.718C219.977 132.083 219.136 132.136 218.512 131.744C217.888 131.351 217.574 130.478 217.909 129.82C217.986 129.668 218.092 129.534 218.197 129.399C218.298 129.27 218.399 129.141 218.476 128.997C218.526 128.902 218.565 128.801 218.604 128.701C218.661 128.556 218.717 128.411 218.806 128.284C219.124 127.835 219.75 127.746 220.301 127.754C220.925 127.763 221.63 127.892 221.973 128.414ZM220.579 128.712C219.724 128.701 218.922 129.418 218.838 130.268C218.803 130.616 218.951 131.048 219.297 131.096C219.556 131.131 219.783 130.931 219.958 130.736C220.326 130.323 220.643 129.863 220.898 129.372C220.983 129.207 221.059 128.995 220.946 128.847C220.864 128.739 220.714 128.713 220.579 128.712ZM241.019 106.422C240.953 105.64 240.429 104.87 239.669 104.674C238.703 104.425 237.766 105.105 237 105.743C236.773 105.932 236.536 106.135 236.44 106.414C236.277 106.887 236.57 107.386 236.859 107.795C237.19 108.263 237.543 108.734 238.026 109.044C238.508 109.353 239.152 109.474 239.658 109.205C239.916 109.067 240.117 108.843 240.292 108.609C240.761 107.979 241.084 107.205 241.019 106.422ZM238.876 108.428C238.549 108.477 238.209 108.345 237.968 108.118C237.607 107.778 237.464 107.232 237.59 106.752C237.723 106.247 238.147 105.83 238.654 105.706C239.161 105.581 239.73 105.754 240.082 106.14C240.068 106.245 240.057 106.351 240.046 106.457C240.009 106.817 239.972 107.177 239.847 107.515C239.686 107.953 239.337 108.359 238.876 108.428ZM212.875 230.494C214.656 224.193 218.019 218.475 221.347 212.836C221.909 211.883 222.606 210.833 223.698 210.652C224.129 210.581 224.356 210.113 224.502 209.702C226.307 204.639 226.481 199.009 224.992 193.844C224.567 192.37 225.091 190.807 225.608 189.363L229.617 178.181C229.2 177.46 228.412 177.144 227.613 176.823C226.945 176.554 226.27 176.283 225.799 175.769C224.468 174.319 225.472 172.014 226.514 170.344L244.784 141.086C245.53 139.891 247.167 139.516 248.54 139.835C249.912 140.153 251.084 141.017 252.212 141.86L265.537 151.812C267.921 153.592 270.552 155.867 270.415 158.839C270.339 160.484 269.398 161.946 268.488 163.317L257.928 179.23C256.562 181.288 256.396 183.789 256.23 186.302C256.155 187.439 256.079 188.578 255.893 189.679C254.982 195.051 251.404 199.5 247.976 203.763L247.974 203.766C247.838 203.935 247.702 204.104 247.567 204.273C244.019 208.691 240.469 213.625 240.27 219.289C240.032 226.038 236.826 232.63 231.662 236.984L236.156 226.084C237.224 223.492 238.213 220.267 236.425 218.107C235.616 217.13 234.393 216.613 233.22 216.132L226.241 213.269C225.76 213.071 225.264 212.871 224.744 212.867C223.123 212.858 222.159 214.616 221.501 216.098C219.227 221.224 216.323 226.071 212.875 230.494ZM235.82 215.691C237.017 216.134 238.701 216.403 239.268 215.26C242.012 209.728 244.832 204.09 249.2 199.726C251.717 197.21 253.261 193.853 254.134 190.403C255.007 186.953 255.254 183.379 255.498 179.829C254.438 180.215 254.346 181.645 254.35 182.773C254.36 185.26 253.925 187.747 253.073 190.083C252.894 190.572 252.655 191.101 252.177 191.307C251.699 191.513 250.995 191.099 251.156 190.604C252.388 186.804 252.848 182.755 252.498 178.776C252.389 177.542 252.159 176.222 251.282 175.348C251.377 177.296 251.473 179.253 251.275 181.193C250.934 184.55 249.73 187.751 248.537 190.908C248.382 191.318 248.195 191.764 247.801 191.957C247.407 192.15 246.797 191.844 246.9 191.418L248.686 184.033C249.669 179.972 250.635 175.604 249.114 171.712C248.348 171.661 248.168 172.756 248.236 173.521C248.704 178.758 247.257 183.955 245.823 189.014C245.656 189.605 245.064 190.343 244.604 189.937C244.405 189.762 244.396 189.46 244.412 189.196C244.502 187.708 244.91 186.268 245.318 184.83L245.318 184.829C245.444 184.383 245.57 183.937 245.687 183.489C246.764 179.363 247.039 175.03 246.492 170.801C245.548 172.011 245.147 173.545 244.77 175.032L242.527 183.859C241.513 187.85 240.218 192.236 236.703 194.38C236.423 194.551 236.098 194.71 235.779 194.634C235.383 194.54 235.158 194.13 234.993 193.758C232.749 188.705 232.469 182.809 234.223 177.566C234.329 177.248 234.006 176.916 233.671 176.889C233.337 176.863 233.023 177.045 232.749 177.239C229.871 179.269 228.769 182.948 227.853 186.349L226.636 190.872C226.458 191.533 226.279 192.199 226.242 192.882C226.186 193.921 226.457 194.936 226.727 195.947C226.789 196.181 226.852 196.415 226.91 196.649C228.081 201.348 227.552 206.451 225.442 210.81C225.131 211.452 225.952 212.037 226.622 212.285L235.82 215.691ZM240.367 172.527C239.887 172.197 239.373 171.819 239.225 171.256C238.997 170.391 239.82 169.523 240.706 169.407C241.592 169.291 242.459 169.719 243.193 170.228C244.228 170.945 245.537 169.851 246.311 168.859C245.267 168.234 244.27 167.264 244.229 166.047C244.188 164.831 245.667 163.672 246.651 164.388C247.033 164.666 247.495 164.836 247.952 165.004C248.637 165.256 249.31 165.503 249.686 166.103C250.113 166.785 249.961 167.707 249.526 168.384C249.092 169.061 248.422 169.547 247.769 170.017C248.707 170.11 249.62 170.444 250.396 170.979L251.242 168.515C251.308 168.323 251.379 168.123 251.529 167.988C251.819 167.728 252.27 167.809 252.642 167.927C253.616 168.236 254.571 168.718 255.214 169.513C255.857 170.307 256.124 171.461 255.675 172.379C255.226 173.296 253.958 173.786 253.099 173.232C252.921 173.118 252.742 172.964 252.563 172.811C252.084 172.4 251.605 171.99 251.143 172.319C252.554 173.418 253.524 175.069 253.796 176.837C258.239 170.069 262.634 163.269 266.982 156.44C267.397 155.788 267.731 154.76 267.056 154.385C264.169 152.783 261.617 150.638 259.071 148.499C255.857 145.797 252.654 143.104 248.798 141.523C248.553 141.423 248.286 141.326 248.03 141.393C247.762 141.464 247.573 141.697 247.405 141.917C240.224 151.289 233.78 161.224 228.151 171.602C227.366 173.05 228.417 174.776 229.422 176.08C229.925 176.732 230.894 177.421 231.442 176.807C232.133 176.033 233.265 175.59 234.243 175.936C235.221 176.282 235.829 177.553 235.297 178.444C234.913 179.088 235.666 179.804 236.324 180.164C237.638 180.884 238.987 181.543 240.363 182.136C240.554 182.218 240.777 182.299 240.963 182.206C241.141 182.117 241.213 181.906 241.268 181.715L242.793 176.469C243.044 175.606 243.212 174.486 242.472 173.976L240.367 172.527ZM267.644 157.82C267.442 157.75 267.257 157.953 267.138 158.131L255.721 175.221C255.414 175.681 255.099 176.159 255.009 176.704C254.92 177.25 255.12 177.884 255.617 178.127C256.439 178.53 257.299 177.684 257.827 176.936L268.435 161.902C269.222 160.786 268.556 159.26 267.881 158.071C267.823 157.969 267.756 157.858 267.644 157.82ZM235.499 180.641C235.298 180.495 234.998 180.582 234.83 180.765C234.661 180.948 234.593 181.199 234.529 181.439C234.373 182.031 234.216 182.629 234.193 183.24C234.17 183.852 234.281 184.46 234.392 185.061L235.485 191.004C235.531 191.254 235.585 191.518 235.761 191.7C235.938 191.881 236.282 191.921 236.425 191.712C238.044 189.345 239.685 186.932 240.531 184.193C240.636 183.853 240.667 183.374 240.333 183.248C238.615 182.602 236.984 181.722 235.499 180.641ZM248.125 165.978C247.577 165.456 246.853 165.123 246.1 165.046C245.414 164.976 245.018 165.94 245.331 166.555C245.644 167.169 246.336 167.474 246.977 167.73C247.429 167.912 247.977 168.082 248.371 167.796C248.938 167.385 248.632 166.461 248.125 165.978ZM243.618 172.865C243.841 172.706 243.87 172.381 243.808 172.114C243.572 171.108 242.469 170.594 241.479 170.299C241.096 170.185 240.619 170.106 240.349 170.4C240.124 170.646 240.172 171.054 240.366 171.325C240.561 171.596 240.865 171.764 241.159 171.922L242.688 172.746C242.979 172.902 243.349 173.056 243.618 172.865ZM252.321 169.239C251.997 169.673 252.03 170.303 252.301 170.772C252.571 171.241 253.039 171.567 253.532 171.788C253.702 171.864 253.887 171.931 254.069 171.895C254.226 171.864 254.36 171.758 254.455 171.631C254.809 171.158 254.637 170.447 254.232 170.018C253.828 169.589 253.252 169.375 252.697 169.174C252.602 169.139 252.49 169.105 252.403 169.158C252.37 169.178 252.344 169.208 252.321 169.239ZM98.9182 208.545C99.13 206.98 99.4267 205.258 100.656 204.267C101.637 203.476 102.983 203.35 104.242 203.326C108.367 203.247 112.505 203.916 116.395 205.293C117.625 205.729 118.913 206.302 119.585 207.421C120.314 208.631 120.136 210.158 119.935 211.557L116.811 233.258C118.965 226.973 120.511 220.481 121.422 213.9C121.846 210.83 121.994 207.307 119.852 205.067C116.507 201.572 116.598 196.592 116.691 191.529C116.771 187.16 116.852 182.728 114.726 179.134C114.033 177.961 115.579 176.75 116.865 176.3C122.533 174.316 128.575 173.405 134.577 173.631C135.677 182.322 135.974 191.115 135.465 199.861C135.35 201.822 138.132 202.328 140.085 202.112L207.83 194.6C208.169 194.562 208.535 194.512 208.776 194.27C209.056 193.987 209.07 193.544 209.066 193.145C208.906 177.273 208.45 161.403 207.696 145.548C207.667 144.929 207.588 144.218 207.076 143.87C206.692 143.609 206.186 143.643 205.724 143.688L157.37 148.376C160.547 133.394 163.741 118.131 162.292 102.885C151.722 109.932 138.082 109.879 125.4 109.133C124.873 109.102 124.344 109.071 123.815 109.039C111.61 108.309 98.8824 107.549 87.9101 112.828C93.6552 128.061 99.4661 144.688 94.6905 160.252C94.2681 161.628 93.7653 162.981 93.2629 164.333C92.4881 166.417 91.714 168.5 91.2352 170.669C90.4459 174.244 90.5645 178.246 92.6801 181.234C95.7437 185.56 98.1781 190.48 98.7334 195.752C99.2603 200.755 98.0829 205.717 96.9069 210.673C95.6781 215.851 94.4508 221.023 95.1705 226.23C95.2922 227.111 95.5121 228.059 96.2018 228.62L98.9182 208.545ZM103.711 145.677C104.992 145.722 105.502 147.331 105.665 148.602L106.962 158.67C104.43 157.357 100.867 159.585 100.94 162.437C98.8057 158.318 98.4815 153.597 98.1606 148.924C98.0907 147.908 98.0211 146.894 97.933 145.888C96.9907 135.137 93.7507 124.739 90.5306 114.438C90.0714 112.969 92.0547 112.017 93.5773 111.793C103.569 110.329 113.682 110.531 123.799 110.733C128.385 110.825 132.972 110.917 137.548 110.853C145.681 110.74 154.286 109.971 160.883 105.213C162.366 115.098 160.351 125.071 158.361 134.918C158.092 136.25 157.823 137.58 157.564 138.907C155.385 150.044 153.903 161.914 158.07 172.469C158.246 172.913 157.647 173.249 157.179 173.346C153.752 174.061 150.208 174.215 146.731 173.8C145.24 173.622 143.764 173.341 142.288 173.06C141.177 172.848 140.065 172.636 138.947 172.468C130.526 171.205 121.736 172.516 114.051 176.183C113.743 176.33 113.376 176.261 113.054 176.149C111.497 175.61 110.387 174.172 109.833 172.621C109.279 171.07 109.199 169.396 109.126 167.751L108.816 160.849C108.804 160.601 108.869 160.265 109.117 160.257C122.58 159.836 136.028 158.929 149.425 157.536C148.859 154.367 148.803 151.106 149.26 147.919C149.548 145.907 147.656 144.072 145.641 143.803C143.626 143.533 141.633 144.446 139.96 145.601C139.335 146.033 138.734 146.502 138.133 146.971C137.128 147.756 136.124 148.539 135.006 149.147C134.275 149.544 133.395 149.865 132.627 149.544C131.686 149.151 131.371 148.032 131.09 147.034C131.072 146.971 131.054 146.909 131.037 146.847C130.67 145.561 130.065 144.281 129 143.473C127.935 142.664 126.328 142.462 125.277 143.289C124.378 143.996 124.094 145.22 123.943 146.353C123.93 146.454 123.917 146.555 123.904 146.657C123.77 147.699 123.632 148.776 123.011 149.611C122.328 150.529 120.805 150.922 120.056 150.058C118.576 148.349 115.977 147.99 113.797 148.59C111.617 149.19 109.752 150.575 107.943 151.932C106.852 150.224 106.762 147.925 107.716 146.137L107.732 146.107C107.911 145.772 108.117 145.386 107.958 145.044C107.86 144.832 107.644 144.703 107.429 144.611C106.146 144.061 104.507 144.531 103.711 145.677ZM142.259 174.536C142.977 174.679 143.858 174.999 143.903 175.729C144.326 182.691 149.859 188.948 156.662 190.489C163.464 192.03 171.004 188.914 174.97 183.176C178.937 177.438 179.248 169.468 175.995 163.297C172.507 156.68 164.03 153.166 156.883 155.374C156.551 153.912 156.589 152.368 156.99 150.923C157.065 150.655 157.162 150.374 157.379 150.199C157.59 150.028 157.876 149.989 158.146 149.957L178.279 147.532C180.049 147.318 181.824 147.105 183.606 147.09C191.273 147.027 198.933 146.263 206.461 144.81C207.63 160.516 208.181 176.268 208.11 192.018C208.107 192.765 207.879 193.758 207.133 193.78C194.462 194.149 181.891 195.816 169.315 197.483C160.866 198.603 152.415 199.724 143.929 200.451C142.038 200.613 140.134 200.756 138.244 200.576C137.902 200.543 137.515 200.473 137.329 200.184C137.217 200.009 137.204 199.791 137.195 199.584L136.065 174.392C136.05 174.067 136.07 173.675 136.352 173.511C136.539 173.403 136.773 173.442 136.984 173.484L142.259 174.536ZM107.594 168.704C107.394 170.012 107.168 171.484 108.026 172.474C111.223 176.166 114.544 180.111 115.394 184.921C115.791 187.167 115.62 189.479 115.451 191.781C115.237 194.681 115.024 197.566 115.948 200.286C115.972 200.357 115.996 200.428 116.021 200.5C116.191 200.985 116.364 201.479 116.309 201.985C116.246 202.566 115.742 203.15 115.166 203.051L108.482 201.898C106.269 201.517 103.93 201.145 101.828 201.935C101.421 202.088 100.953 201.82 100.735 201.444C100.518 201.069 100.489 200.616 100.47 200.183C100.447 199.659 100.43 199.131 100.413 198.602C100.305 195.275 100.195 191.885 98.6549 188.97L93.741 179.668C93.0156 178.295 92.2732 176.86 92.2231 175.308C92.1897 174.271 92.4695 173.253 92.747 172.254L95.1984 163.423C95.7145 161.564 96.2605 159.646 97.4827 158.153C100.452 163.191 100.745 169.708 98.2397 174.991C98.008 175.48 98.7159 175.983 99.2206 175.789C99.7253 175.594 99.9814 175.041 100.159 174.53C100.872 172.484 101.122 170.327 101.372 168.166C101.575 166.419 101.777 164.669 102.225 162.974C102.5 161.936 102.896 160.876 103.698 160.161C104.5 159.447 105.807 159.202 106.647 159.871C107.29 160.383 107.499 161.258 107.621 162.071C107.944 164.215 107.943 166.408 107.617 168.552C107.609 168.602 107.602 168.653 107.594 168.704ZM119.127 151.271C120.112 152.025 121.077 152.763 122.259 152.627C123.762 152.453 124.698 150.906 125.134 149.458C125.23 149.141 125.315 148.816 125.4 148.491C125.704 147.331 126.01 146.161 126.806 145.288C127.038 145.035 127.371 144.799 127.7 144.898C127.966 144.979 128.121 145.248 128.244 145.497C128.42 145.85 128.585 146.209 128.751 146.569C129.219 147.581 129.687 148.595 130.366 149.475C131.286 150.667 132.717 151.605 134.214 151.441C135.552 151.294 136.598 150.346 137.618 149.422C137.827 149.233 138.034 149.045 138.243 148.864C140.699 146.747 143.896 145.509 147.137 145.419C146.7 146.512 146.991 147.703 147.277 148.873C147.346 149.154 147.415 149.434 147.473 149.712C147.93 151.899 147.699 154.225 146.82 156.279L125.174 157.946C120.121 158.335 115.055 158.724 109.99 158.546C109.67 158.535 109.342 158.519 109.048 158.393C108.492 158.156 108.162 157.562 108.042 156.969C107.774 155.64 108.387 154.256 109.315 153.268C110.243 152.279 111.455 151.614 112.645 150.965C113.884 150.289 115.259 149.591 116.64 149.879C117.559 150.071 118.349 150.676 119.127 151.271ZM160.115 182.802C156.836 182.734 153.995 180.059 153.021 176.927C152.822 176.287 153.236 175.586 153.806 175.235C154.376 174.884 155.066 174.801 155.732 174.726L160.537 174.186C159.075 171.346 158.035 168.29 157.459 165.149C157.407 164.864 157.359 164.564 157.449 164.289C157.607 163.805 158.128 163.551 158.61 163.389C162.514 162.077 167.202 163.67 169.497 167.089C171.793 170.508 171.492 175.45 168.798 178.565C167.631 179.914 166.103 180.909 164.492 181.675C163.119 182.328 161.635 182.833 160.115 182.802ZM175.676 165.921C176.259 167.848 176.428 169.875 176.508 171.886C175.198 171.688 173.875 171.575 172.55 171.549C172.291 168.166 170.039 165.109 167.078 163.45C164.117 161.792 160.544 161.434 157.199 162.002C157.17 161.525 157.083 161.027 156.996 160.529C156.767 159.216 156.537 157.903 157.387 156.97C157.9 156.407 158.681 156.182 159.43 156.043C162.84 155.407 166.477 156.073 169.442 157.875C172.406 159.678 174.671 162.601 175.676 165.921ZM151.626 176.585C151.621 176.648 151.615 176.709 151.613 176.768C151.59 177.235 151.808 177.664 152.024 178.089C152.082 178.203 152.139 178.316 152.192 178.43C152.442 178.968 152.563 179.677 152.146 180.099C151.135 181.119 150.242 182.256 149.489 183.479C149.303 183.782 148.845 183.807 148.539 183.626C148.233 183.446 148.043 183.124 147.867 182.816C146.748 180.866 145.602 178.826 145.463 176.583C145.445 176.304 145.476 175.966 145.723 175.836C145.832 175.779 145.961 175.777 146.084 175.777L151.086 175.762C151.205 175.761 151.331 175.762 151.435 175.821C151.68 175.961 151.652 176.285 151.626 176.585Z" fill="#00160A"/>
</svg>
