<svg width="301" height="300" viewBox="0 0 301 300" fill="none" xmlns="http://www.w3.org/2000/svg">
<path fill-rule="evenodd" clip-rule="evenodd" d="M59.0885 217.111C23.1853 192.204 66.1847 159.198 55.6809 119.732C45.1771 80.2662 19.7333 21.4214 120.112 42.3894C221.816 63.6342 286.32 90.9904 271.076 175.726C255.832 260.463 94.9917 242.019 59.0885 217.111Z" fill="#C7D2FE"/>
<path fill-rule="evenodd" clip-rule="evenodd" d="M214.922 251.229C212.671 248.984 211.605 245.846 210.61 242.827C208.003 246.602 202.184 246.723 198.188 244.471C194.191 242.218 191.494 238.285 188.625 234.706C183.487 228.298 161.48 212.474 161.119 207.7C160.927 205.168 168.29 200.558 168.29 200.558L155.059 192.773C155.059 192.773 148.196 198.037 144.25 198.663C133.274 200.404 125.51 199.368 125.501 201.343C125.467 208.491 168.714 244.755 154.923 244.471C134.226 244.044 96.4238 203.759 84.1787 200.558C79.0507 199.217 43.8787 201.343 43.8787 192.83C43.8787 181.395 75.2944 173.528 75.2944 173.528C75.2944 173.528 67.1066 145.918 77.0166 123.339C79.2862 118.168 82.0963 112.16 82.3701 107.08C82.4453 105.686 122.065 68.1575 127.155 66.2827C139.023 61.9113 151.646 59.6011 164.293 59.4863C165.979 59.471 214.049 66.2827 235.665 101.962C239.571 108.41 257.317 156.296 239.3 186.335C236.457 191.074 236.806 196.955 238.771 202.173C240.736 207.39 243.152 213.193 240.925 218.304C239.709 210.115 237.573 202.064 234.571 194.349C230.384 197.393 232.504 203.942 235 208.477C238.145 214.192 241.291 219.907 244.437 225.621C245.745 227.998 247.097 230.617 246.627 233.289C246.089 236.344 243.366 238.458 240.844 240.265C235.087 244.39 229.33 248.516 223.573 252.641C220.989 254.493 217.173 253.473 214.922 251.229Z" fill="white"/>
<path fill-rule="evenodd" clip-rule="evenodd" d="M137.153 124.777C137.594 123.583 139.181 123.09 140.352 123.588C141.523 124.085 142.25 125.329 142.434 126.588C142.617 127.847 142.339 129.126 141.98 130.347C141.654 131.461 141.259 132.554 140.8 133.619C140.757 133.718 140.7 133.829 140.595 133.853C140.483 133.878 140.38 133.791 140.299 133.709C138.309 131.693 137.109 128.917 137.005 126.086C136.989 125.644 137 125.191 137.153 124.777ZM140.593 125.068C140.267 124.788 139.845 124.605 139.415 124.618C138.412 124.648 137.711 125.743 137.734 126.747C137.756 127.75 138.291 128.662 138.81 129.521C139.181 130.137 139.553 130.752 139.925 131.368C140.051 131.577 140.301 131.817 140.498 131.671C140.577 131.613 140.608 131.51 140.634 131.415C140.786 130.856 140.938 130.296 141.09 129.737C141.308 128.938 141.527 128.125 141.514 127.297C141.5 126.468 141.222 125.607 140.593 125.068L140.593 125.068Z" fill="#FFB61D"/>
<path fill-rule="evenodd" clip-rule="evenodd" d="M139.937 128.281C139.692 128.35 139.425 128.337 139.189 128.245C138.729 128.066 138.412 127.574 138.439 127.082C138.466 126.59 138.834 126.135 139.31 126.006C140.03 125.812 140.842 126.476 140.794 127.221C140.763 127.705 140.403 128.15 139.937 128.281Z" fill="#FFB61D"/>
<path fill-rule="evenodd" clip-rule="evenodd" d="M153.075 245.276C153.898 245.384 153.595 246.662 153.061 247.298C147.959 253.371 141.298 258.124 133.896 260.972C132.236 261.611 130.519 262.159 128.744 262.282C125.454 262.508 122.175 261.223 119.573 259.196C116.971 257.169 114.988 254.445 113.372 251.569C108.953 243.705 107.1 234.426 108.161 225.468C108.261 224.625 108.836 223.507 109.613 223.85C109.388 226.844 109.353 229.854 109.508 232.853C109.661 235.799 110.001 238.753 110.847 241.579C111.63 244.195 112.835 246.664 114.092 249.089C115.383 251.581 116.752 254.067 118.617 256.165C120.482 258.263 122.903 259.969 125.657 260.513C129.109 261.195 132.653 260.005 135.836 258.504C142.438 255.392 148.36 250.847 153.075 245.276Z" fill="#00160A"/>
<path fill-rule="evenodd" clip-rule="evenodd" d="M176.96 211.143C182.955 205.244 188.951 199.345 194.947 193.447C195.282 193.116 195.779 192.764 196.176 193.017C196.706 193.355 196.282 194.168 195.836 194.609C189.383 200.991 182.93 207.374 176.477 213.756C176.012 213.52 175.876 212.884 176.04 212.389C176.204 211.894 176.588 211.508 176.96 211.143H176.96Z" fill="#00160A"/>
<path fill-rule="evenodd" clip-rule="evenodd" d="M131.061 177.218C130.696 177.281 130.33 177.344 129.965 177.407C129.255 176.343 128.529 175.238 128.307 173.978C128.084 172.718 128.501 171.252 129.619 170.63C130.884 169.927 131.266 168.198 130.863 166.807C130.46 165.417 129.461 164.29 128.483 163.223C127.489 162.139 125.896 160.988 124.717 161.866C123.948 162.439 122.797 162.115 122.109 161.448C121.421 160.781 121.057 159.859 120.612 159.01C119.77 157.404 118.542 155.955 116.936 155.113C115.33 154.271 113.32 154.104 111.704 154.926C110.1 155.741 109.089 157.363 107.722 158.533C106.355 159.702 104.098 160.323 102.866 159.012C102.553 158.679 102.343 158.184 102.521 157.763C102.699 157.341 103.39 157.196 103.611 157.597C104.173 158.618 105.726 158.604 106.698 157.959C107.669 157.315 108.277 156.262 109.074 155.411C110.633 153.748 113.002 152.881 115.267 153.147C117.531 153.413 119.635 154.805 120.766 156.785C121.311 157.739 121.647 158.824 122.358 159.661C123.07 160.498 124.362 161.011 125.275 160.4C126.306 159.709 127.65 160.567 128.555 161.417C129.779 162.566 130.972 163.809 131.661 165.34C132.351 166.872 132.46 168.756 131.559 170.173C130.809 171.353 129.374 172.308 129.498 173.701C129.614 174.999 131.108 175.915 131.061 177.218Z" fill="#00160A"/>
<path fill-rule="evenodd" clip-rule="evenodd" d="M146.888 118.751C149.083 119.779 151.036 121.422 152.164 123.567C153.293 125.712 153.522 128.376 152.511 130.578C150.418 135.135 143.763 136.908 143.029 141.868C142.843 143.131 143.097 144.444 142.785 145.683C142.569 146.538 142.096 147.302 141.718 148.1C140.907 149.81 140.524 151.722 140.614 153.613C139.768 154.071 138.773 153.096 138.665 152.14C138.557 151.185 138.94 150.236 138.919 149.274C138.881 147.467 137.483 146.028 136.29 144.669C134.501 142.631 132.946 140.232 132.656 137.535C132.562 136.667 132.602 135.781 132.406 134.929C132.196 134.013 131.725 133.183 131.309 132.34C130.188 130.067 129.428 127.444 130.119 125.006C130.81 122.567 133.384 120.55 135.828 121.221C136.523 121.412 137.202 121.801 137.914 121.695C139.164 121.509 139.669 120.017 140.541 119.101C142.103 117.459 144.835 117.79 146.888 118.751M136.26 142.448C137.646 144.271 139.031 146.094 140.417 147.918C142.007 146.244 141.349 143.536 141.833 141.279C142.491 138.205 145.241 136.117 147.624 134.066C150.007 132.014 152.373 129.207 151.838 126.109C151.408 123.619 149.235 121.85 147.152 120.42C145.977 119.614 144.622 118.803 143.221 119.062C141.805 119.324 140.834 120.58 139.814 121.596C138.794 122.613 137.255 123.496 135.978 122.83C134.181 121.893 131.892 123.492 131.385 125.454C130.878 127.417 131.607 129.47 132.408 131.332C133.208 133.194 134.111 135.124 133.959 137.146C133.811 139.112 135.066 140.878 136.26 142.448Z" fill="#00160A"/>
<path fill-rule="evenodd" clip-rule="evenodd" d="M25.7123 100.567C25.6223 100.323 26.0497 100.255 26.2788 100.377C26.269 100.631 25.8793 100.759 25.7209 100.561L25.7123 100.567Z" fill="#00160A"/>
<path fill-rule="evenodd" clip-rule="evenodd" d="M191.937 200.422C192.408 200.487 192.658 201.066 192.551 201.529C192.444 201.992 192.096 202.355 191.762 202.692C189.061 205.422 186.36 208.153 183.659 210.883C183.459 211.084 183.225 211.301 182.941 211.292C182.56 211.28 182.311 210.839 182.357 210.46C182.404 210.082 182.653 209.763 182.894 209.468C185.378 206.429 188.073 203.563 190.954 200.898C191.231 200.642 191.564 200.37 191.937 200.422V200.422Z" fill="#00160A"/>
<path fill-rule="evenodd" clip-rule="evenodd" d="M112.518 160.939C114.006 161.074 115.151 162.472 115.406 163.944C115.661 165.417 115.202 166.922 114.58 168.28C114.237 169.029 113.843 169.754 113.401 170.448C113.083 170.948 112.678 171.474 112.094 171.571C111.118 171.732 110.433 170.658 110.057 169.744C109.527 168.457 109.041 167.152 108.599 165.831C108.383 165.183 108.174 164.501 108.285 163.827C108.454 162.796 109.33 162.025 110.248 161.526C110.945 161.147 111.728 160.867 112.518 160.939M111.12 168.52C111.234 168.698 111.356 168.88 111.535 168.993C111.681 169.086 111.861 169.125 112.033 169.101C112.476 169.039 112.76 168.613 112.986 168.228C113.578 167.219 114.185 166.161 114.252 164.993C114.318 163.826 113.655 162.527 112.51 162.286C111.171 162.004 109.924 163.346 109.81 164.71C109.697 166.073 110.381 167.368 111.12 168.52Z" fill="#FFB61D"/>
<path fill-rule="evenodd" clip-rule="evenodd" d="M112.454 163.706C112.821 163.824 113.138 164.093 113.316 164.435C113.474 164.74 113.521 165.101 113.448 165.437C113.277 166.212 112.401 166.753 111.632 166.558C110.863 166.363 110.351 165.47 110.57 164.708C110.79 163.945 111.699 163.462 112.454 163.706ZM112.284 165.314C112.564 165.167 112.313 164.63 112.021 164.75C111.793 164.78 111.643 165.065 111.747 165.27C111.851 165.474 112.17 165.521 112.328 165.355L112.284 165.314Z" fill="#FFB61D"/>
<path fill-rule="evenodd" clip-rule="evenodd" d="M191.215 178.374C190.385 177.478 189.64 176.505 188.991 175.47C188.784 175.14 189.213 174.709 189.6 174.761C189.987 174.812 190.272 175.137 190.518 175.439C191.378 176.494 192.238 177.548 193.097 178.602C192.999 178.978 192.523 179.149 192.147 179.049C191.771 178.949 191.479 178.66 191.215 178.374L191.215 178.374Z" fill="#00160A"/>
<path fill-rule="evenodd" clip-rule="evenodd" d="M219.538 227.226C219.548 227.349 219.502 227.469 219.455 227.583C218.983 228.732 218.281 229.786 217.401 230.664C216.002 232.061 214.107 233.096 213.357 234.925C213.18 235.359 212.518 235.421 212.174 235.104C211.83 234.786 211.783 234.241 211.935 233.798C212.088 233.355 212.402 232.991 212.71 232.638C213.713 231.488 214.716 230.338 215.718 229.188C216.487 228.307 217.289 227.4 218.354 226.917C218.792 226.718 219.501 226.746 219.538 227.226V227.226Z" fill="#00160A"/>
<path fill-rule="evenodd" clip-rule="evenodd" d="M192.237 173.587C193.227 174.75 194.217 175.913 195.206 177.075C195.373 177.271 195.549 177.493 195.537 177.749C195.519 178.148 195.03 178.385 194.642 178.292C194.255 178.199 193.962 177.89 193.701 177.588C192.863 176.615 192.112 175.567 191.46 174.46C191.206 174.029 191.107 173.274 191.604 173.209C191.858 173.176 192.071 173.391 192.237 173.587L192.237 173.587Z" fill="#00160A"/>
<path fill-rule="evenodd" clip-rule="evenodd" d="M180.838 180.069C180.687 179.857 180.532 179.582 180.659 179.356C180.869 178.982 181.439 179.272 181.723 179.593C182.729 180.727 183.585 181.993 184.262 183.35C183.617 183.676 182.932 183.012 182.512 182.423C181.954 181.638 181.396 180.853 180.838 180.069Z" fill="#00160A"/>
<path fill-rule="evenodd" clip-rule="evenodd" d="M181.73 183.408C182.132 183.827 182.54 184.515 182.12 184.918C181.694 185.326 181.011 184.865 180.634 184.41C179.722 183.309 178.929 182.109 178.273 180.839C178.694 180.478 179.318 180.898 179.702 181.298C180.378 182.001 181.054 182.705 181.73 183.408Z" fill="#00160A"/>
<path fill-rule="evenodd" clip-rule="evenodd" d="M182.827 179.285C182.645 179.017 182.474 178.649 182.671 178.392C182.953 178.026 183.526 178.362 183.842 178.701C184.758 179.682 185.674 180.664 186.589 181.645C186.548 182 186.133 182.212 185.779 182.16C185.426 182.108 185.132 181.869 184.867 181.63C184.097 180.933 183.411 180.144 182.827 179.285L182.827 179.285Z" fill="#00160A"/>
<path fill-rule="evenodd" clip-rule="evenodd" d="M188.6 177.109C189.17 177.836 189.74 178.564 190.311 179.291C190.537 179.58 190.775 179.95 190.628 180.286C190.486 180.609 190.037 180.694 189.712 180.555C189.387 180.416 189.16 180.122 188.948 179.839C188.352 179.045 187.763 178.246 187.179 177.444C187.05 177.266 186.915 177.067 186.934 176.849C186.967 176.485 187.432 176.296 187.78 176.407C188.128 176.519 188.375 176.821 188.6 177.109H188.6Z" fill="#00160A"/>
<path fill-rule="evenodd" clip-rule="evenodd" d="M188.17 180.464C188.289 180.593 188.415 180.743 188.402 180.917C188.385 181.15 188.113 181.294 187.882 181.259C187.651 181.225 187.461 181.067 187.287 180.911C186.149 179.888 185.19 178.666 184.466 177.317C184.608 176.947 185.169 177.199 185.437 177.491C186.348 178.482 187.259 179.473 188.17 180.464Z" fill="#00160A"/>
<path fill-rule="evenodd" clip-rule="evenodd" d="M199.223 173.903C199.312 174.005 199.405 174.121 199.4 174.257C199.392 174.461 199.149 174.589 198.948 174.554C198.746 174.52 198.584 174.376 198.434 174.237C197.362 173.247 196.337 172.207 195.363 171.12C195.708 170.658 196.435 171.029 196.853 171.426C197.682 172.213 198.473 173.04 199.223 173.903V173.903Z" fill="#00160A"/>
<path fill-rule="evenodd" clip-rule="evenodd" d="M195.828 174.892C195.229 174.071 194.63 173.25 194.03 172.43C193.921 172.279 193.805 172.096 193.864 171.92C193.98 171.572 194.508 171.727 194.792 171.958C195.693 172.694 196.458 173.595 197.037 174.604C197.149 174.8 197.257 175.032 197.177 175.243C197.076 175.512 196.708 175.591 196.444 175.479C196.18 175.366 195.997 175.124 195.828 174.892L195.828 174.892Z" fill="#00160A"/>
<path fill-rule="evenodd" clip-rule="evenodd" d="M200.61 171.876C200.018 171.239 199.426 170.603 198.834 169.966C198.623 169.739 198.878 169.337 199.186 169.304C199.494 169.271 199.776 169.466 200.02 169.656C200.469 170.007 200.902 170.379 201.318 170.769C201.547 170.984 201.781 171.22 201.867 171.523C201.954 171.826 201.835 172.211 201.537 172.314C201.194 172.433 200.857 172.142 200.61 171.876L200.61 171.876Z" fill="#00160A"/>
<path fill-rule="evenodd" clip-rule="evenodd" d="M199.461 173.136C198.642 172.296 197.857 171.422 197.11 170.517C196.98 170.36 196.842 170.166 196.898 169.969C196.96 169.747 197.251 169.66 197.469 169.735C197.688 169.809 197.848 169.993 197.997 170.169C198.681 170.979 199.366 171.79 200.051 172.6C200.236 172.819 200.418 173.164 200.208 173.359C199.996 173.556 199.663 173.343 199.461 173.136V173.136Z" fill="#00160A"/>
<path fill-rule="evenodd" clip-rule="evenodd" d="M238.436 225.075C239.36 224.79 241.702 224.155 242.626 223.87C243.041 223.742 243.657 223.725 243.735 224.152C243.799 224.503 243.395 224.742 243.056 224.856C242.122 225.169 239.74 225.738 238.762 225.856C238.414 225.898 237.908 225.768 237.978 225.424C238.019 225.227 238.243 225.135 238.436 225.075Z" fill="#00160A"/>
<path fill-rule="evenodd" clip-rule="evenodd" d="M135.109 186.402C136.573 186.424 138.304 186.764 138.888 188.107C139.437 189.368 138.574 190.884 137.365 191.539C136.155 192.193 134.714 192.21 133.339 192.208C114.575 192.184 95.8114 191.731 77.0682 190.85C75.9002 190.795 75.7896 189.109 76.0564 187.971C76.2157 187.291 76.3947 186.575 76.8848 186.078C77.59 185.364 78.7084 185.315 79.7125 185.312C93.1869 185.268 106.686 185.226 120.103 186.466C122.228 186.662 124.356 186.891 126.49 186.87C129.368 186.842 132.231 186.36 135.109 186.402M137.21 189.808C137.525 189.195 137.062 188.414 136.433 188.133C135.803 187.851 135.08 187.924 134.394 187.992C125.598 188.857 116.742 187.858 107.919 187.342C101.506 186.968 95.0805 186.848 88.6574 186.729C85.9799 186.679 83.3024 186.63 80.6249 186.58C79.7707 186.564 78.835 186.575 78.1787 187.122C77.5224 187.669 77.5004 188.959 78.3149 189.217C78.4621 189.263 78.6184 189.271 78.7726 189.279C97.6239 190.195 116.5 190.606 135.373 190.512C136.065 190.508 136.895 190.424 137.21 189.808V189.808Z" fill="#00160A"/>
<path fill-rule="evenodd" clip-rule="evenodd" d="M123.13 201.569C124.803 205.232 128.408 207.944 132.391 208.536C134.265 208.814 135.545 210.519 136.612 212.084C137.721 213.711 138.535 216.469 136.701 217.188C143.818 225.035 150.934 232.882 158.05 240.73C158.877 241.642 159.68 243.163 158.721 243.935C158.366 244.222 157.878 244.267 157.421 244.282C151.558 244.478 146.026 241.734 140.952 238.79C133.645 234.55 126.666 229.745 120.099 224.432C115.301 220.55 108.408 219.439 102.633 221.618C99.6374 222.748 95.882 220.444 95.5323 217.261C95.1827 214.079 98.3484 211.014 101.518 211.467C96.7527 204.396 88.23 200.027 79.7074 200.284C69.4207 200.595 59.0929 199.516 49.0927 197.085C48.2143 196.871 47.2712 196.605 46.7203 195.888C45.6218 194.459 46.7742 192.428 47.9816 191.09C56.8778 181.231 70.5664 175.912 83.7854 177.178C84.3487 177.232 84.6551 176.548 84.7872 175.997C88.1475 161.993 91.5078 147.989 94.8682 133.984C95.2734 132.296 97.8436 132.062 99.1172 133.243C100.391 134.424 100.671 136.306 100.817 138.036C101.912 150.936 100.001 164.823 106.413 176.069C106.712 176.593 107.049 177.129 107.574 177.427C108.091 177.719 108.713 177.737 109.307 177.748C121.18 177.958 133.053 178.169 144.926 178.379C146.405 178.405 148.221 178.229 148.819 176.876C150.35 173.408 151.882 169.939 153.413 166.471C153.901 165.368 154.572 164.116 155.765 163.934C157.473 163.674 158.553 165.819 158.498 167.546C158.443 169.272 157.862 171.107 158.622 172.658C161.412 169.693 164.248 166.69 167.736 164.591C171.224 162.493 175.508 161.378 179.419 162.505C175.961 168.003 172.504 173.501 169.046 178.999C171.934 180.91 172.162 185.743 169.466 187.917C168.315 188.845 169.228 190.677 170.182 191.807C173.169 195.348 176.156 198.888 179.143 202.429C176.593 203.611 173.624 202.394 171.117 201.124C166.637 198.854 162.263 196.373 158.016 193.692C155.955 192.392 153.683 194.83 151.812 196.393C148.843 198.873 144.743 199.367 140.893 199.759C134.972 200.362 129.051 200.966 123.13 201.569ZM133.458 193.873C137.096 194.072 140.803 194.324 144.333 193.423C147.947 192.499 151.236 190.35 153.532 187.41C154.09 186.696 155.067 186.494 155.96 186.341C159.042 185.81 162.287 185.292 165.231 186.346C166.56 186.822 168.18 186.277 168.952 185.096C169.723 183.915 169.571 182.212 168.602 181.187C167.552 181.158 167.361 182.647 166.805 183.537C166.074 184.706 164.479 184.896 163.102 184.966C158.05 185.22 152.998 185.474 147.945 185.728C146.719 185.789 145.029 185.432 145.066 184.205C145.082 183.665 145.477 183.219 145.863 182.841C147.22 181.517 148.768 180.39 150.445 179.505C129.931 179.661 109.414 179.43 88.9088 178.814C78.8257 178.51 68.0733 178.281 59.4815 183.567C58.6794 184.06 58.0522 185.516 58.9829 185.659C61.7237 186.082 64.4644 186.505 67.2051 186.928C67.5316 186.978 67.8808 187.039 68.1171 187.27C68.8253 187.962 67.8331 189.075 66.9206 189.459C63.1558 191.044 58.6694 190.802 55.0968 188.821C54.2871 188.372 53.3265 187.827 52.5016 188.247C51.505 188.754 51.642 190.356 52.4873 191.089C53.3326 191.821 54.5366 191.924 55.6529 191.993C65.6808 192.612 75.7086 193.231 85.7365 193.849C88.5553 194.023 91.3826 194.197 94.2013 194.022C107.269 193.207 120.385 193.157 133.458 193.873ZM148.096 232.748C144.587 227.919 140.589 223.445 136.183 219.416C134.741 218.097 133.471 216.604 132.204 215.116C126.667 208.606 121.13 202.096 115.593 195.587C115.04 194.937 114.085 194.852 113.232 194.825C105.96 194.594 98.6631 195.135 91.504 196.434C90.9748 196.53 90.4036 196.654 90.0541 197.063C89.2435 198.011 90.2565 199.397 91.2064 200.206C100.712 208.3 110.567 215.983 120.735 223.227C122.606 224.561 124.505 225.889 126.618 226.791C130.605 228.494 134.592 230.196 138.578 231.899C141.629 233.201 145.265 234.475 148.096 232.748ZM100.488 160.878C100.342 158.977 100.341 157.042 99.8184 155.207C98.877 151.903 96.3665 149.309 93.8677 146.95C93.6738 146.767 93.4179 146.571 93.1675 146.662C92.9398 146.745 92.8573 147.019 92.8053 147.256C90.9429 155.737 89.0805 164.218 87.2181 172.699C86.8666 174.3 86.5131 175.923 86.5892 177.56C93.1185 177.642 99.6477 177.725 106.177 177.807C102.924 172.748 100.95 166.875 100.488 160.878ZM177.205 163.695C173.15 163.348 168.972 164.839 166.052 167.675C160.704 172.869 154.992 177.69 148.973 182.09C148.149 182.692 147.267 183.36 146.987 184.342C152.03 184.114 157.072 183.887 162.115 183.659C163.445 183.599 165.011 183.4 165.646 182.23C169.126 175.829 172.988 169.636 177.205 163.695ZM47.7709 193.722C47.6335 194.016 47.5118 194.344 47.5881 194.659C47.723 195.217 48.3742 195.449 48.9316 195.584C60.2065 198.319 71.9038 198.672 83.5008 199.011C84.6548 199.045 85.8521 199.071 86.9117 198.613C87.9713 198.154 88.8519 197.065 88.6796 195.923C81.1412 194.878 73.5323 194.343 65.922 194.322C61.3629 194.31 56.674 194.461 52.3999 192.874C51.3689 192.491 50.202 191.724 50.3333 190.632C49.2353 191.422 48.344 192.497 47.7709 193.722ZM155.284 191.686C154.879 190.809 153.74 190.484 152.795 190.687C151.85 190.889 151.047 191.488 150.255 192.041C148.426 193.318 146.448 194.445 144.277 194.959C142.385 195.408 140.416 195.376 138.471 195.342C131.372 195.216 124.273 195.09 117.174 194.964C118.755 197.323 120.921 199.973 123.744 199.663C129.266 199.057 134.86 199.201 140.355 198.391C145.851 197.58 151.419 195.677 155.284 191.686ZM171.709 197.759C171.967 197.724 172.269 197.638 172.35 197.39C172.418 197.182 172.293 196.965 172.172 196.783C170.127 193.706 167.609 190.978 165.102 188.265C164.72 187.851 164.321 187.425 163.802 187.206C163.264 186.98 162.658 187.002 162.077 187.045C159.699 187.224 157.344 187.708 155.089 188.484C154.905 188.548 154.691 188.649 154.67 188.843C154.654 188.994 154.766 189.124 154.873 189.232C157.242 191.641 160.205 193.361 163.13 195.052C165.777 196.583 168.679 198.168 171.709 197.759ZM104.294 213.23C104.073 213.059 103.838 212.882 103.56 212.846C103.336 212.817 103.111 212.885 102.894 212.952C102.393 213.108 101.892 213.263 101.391 213.419C100.9 213.571 100.287 214.023 100.57 214.452C101.454 215.79 101.812 217.465 101.554 219.047C101.47 219.561 102.209 219.744 102.728 219.708C105.41 219.518 108.092 219.329 110.774 219.139C111.054 219.12 111.432 218.978 111.366 218.705C109.009 216.88 106.651 215.055 104.294 213.23ZM150.253 176.956C150.064 177.449 150.567 177.984 151.091 178.038C151.616 178.093 152.116 177.828 152.577 177.571C154.239 176.646 156.031 175.572 156.659 173.776C156.863 173.191 156.927 172.568 156.988 171.951C157.094 170.893 157.2 169.834 157.306 168.776C157.329 168.541 157.348 168.287 157.224 168.086C157.1 167.885 156.77 167.804 156.632 167.996C156.074 168.77 155.256 169.353 154.341 169.627C153.946 169.745 153.521 169.813 153.187 170.057C152.791 170.347 152.596 170.832 152.42 171.291C151.698 173.179 150.975 175.068 150.253 176.956ZM133.726 210.868C133.002 209.518 131.007 209.064 129.77 209.969C131.364 211.215 132.264 213.137 133.617 214.642C134.083 215.16 134.689 215.661 135.384 215.615C136.079 215.57 136.654 214.641 136.161 214.148C135.195 213.182 134.372 212.073 133.726 210.868ZM98.2682 214.552C97.1918 215.603 97.5585 217.383 98.0027 218.82C98.1525 219.305 98.6298 219.908 99.0262 219.591C99.1608 219.484 99.2089 219.303 99.2492 219.136C99.4478 218.31 99.6478 217.465 99.559 216.62C99.4702 215.775 99.0353 214.917 98.2682 214.552Z" fill="#00160A"/>
<path fill-rule="evenodd" clip-rule="evenodd" d="M217.322 253.229C215.071 250.984 214.005 247.846 213.01 244.827C210.403 248.602 207.022 251.281 203.026 249.029C199.03 246.776 193.894 240.285 191.025 236.706C185.887 230.298 179.784 224.666 172.985 220.058C176.616 224.042 178.788 229.328 179.006 234.713C181.76 234.685 184.514 234.656 187.269 234.627C178.008 237.783 168.088 238.986 158.342 238.134C163.638 233.68 167.779 227.866 170.256 221.405C169.703 219.657 167.076 220.062 165.543 221.066C164.009 222.07 162.024 223.345 160.546 222.259C158.728 220.923 158.853 216.738 156.693 217.392C151.085 219.091 144.437 215.716 142.5 210.186C141.178 211.013 139.855 211.84 138.532 212.666C137.896 210.618 140.844 209.035 142.832 209.843C144.819 210.651 145.984 212.661 147.362 214.305C148.74 215.949 150.951 217.401 152.918 216.544C156.583 214.947 161.404 217.831 161.732 221.815C164.574 219.534 168.472 218.63 172.028 219.427C169.76 216.141 167.228 213.037 164.466 210.153C166.566 207.354 169.163 204.93 172.099 203.026C170.658 205.75 168.66 208.178 166.266 210.118C178.549 222.16 190.832 234.203 203.115 246.246C203.889 247.004 204.775 247.811 205.858 247.826C207.044 247.843 208.001 246.908 208.81 246.04C214.575 239.854 220.34 233.667 226.105 227.481C227.607 225.869 229.187 224.092 229.413 221.9C229.696 219.148 227.774 216.707 225.939 214.636C218.558 206.302 210.704 198.387 202.428 190.941C198.798 187.675 194.012 184.279 189.446 186.008C183.936 188.095 182.624 196.387 176.965 198.025C178.657 195.699 180.349 193.373 182.041 191.047C178.686 188.62 174.489 183.203 174.271 179.068C176.965 176.614 180.285 174.757 183.039 173.332C180.285 166.847 180.612 165.499 184.295 164.613C187.979 163.728 191.169 162.85 194.554 161.718C203.939 158.579 208.419 143.698 200.541 137.516C196.207 134.116 163.728 100.736 149.783 88.4295C150.839 93.1398 144.634 97.581 140.516 95.062C141.306 97.7772 139.407 101.063 136.602 101.421C133.797 101.779 131.06 98.6692 132.042 96.0173C132.887 93.7347 135.591 92.7904 137.162 90.9306C138.732 89.0707 137.362 84.9832 135.228 86.1538C134.101 90.6899 127.467 92.6225 124.081 89.4014C122.888 88.2676 121.327 87.9887 119.73 88.2567C117.773 88.585 114.389 89.3444 112.942 90.7473C110.674 92.945 110.163 96.1556 107.463 97.6474C107.033 97.8852 106.582 98.0892 106.106 98.2516C102.64 99.4324 97.7886 96.0032 99.5878 92.8149C89.728 101.906 82.9594 114.291 80.6326 127.499C85.7789 128.967 86.7559 135.725 86.7414 141.076C80.9359 142.549 86.3972 153.631 81.3762 156.896C75.6525 160.619 77.2438 169.275 79.5104 175.716C73.7084 163.229 73.0103 148.46 77.6087 135.482C77.1542 143.715 76.6998 151.949 76.2453 160.183C80.1384 159.613 81.7109 154.868 82.0328 150.947C82.3547 147.026 82.5996 142.412 85.8965 140.264C84.6657 137.127 84.1608 133.707 84.4321 130.348C82.9993 129.886 81.5664 129.423 80.1336 128.961C79.2728 135.023 72.5395 138.005 66.987 140.586C60.9928 143.373 55.3534 146.922 50.2478 151.12C44.7714 155.624 39.5564 161.815 40.1629 168.879C40.746 175.672 46.5992 180.866 52.7441 183.818C46.1638 183.803 40.516 177.95 39.4553 171.455C38.3946 164.961 41.2242 158.28 45.6482 153.409C50.0721 148.538 55.9384 145.227 61.887 142.414C69.677 138.73 79.1259 133.952 79.4166 125.339C79.6589 118.16 87.533 111.124 83.7609 105.011C78.4625 96.4242 75.5071 86.4073 75.2958 76.3197C75.1916 71.3431 76.0999 65.7095 80.1795 62.8574C82.2106 61.4374 84.7375 60.9415 87.1995 60.6588C96.3301 59.6103 105.736 61.0733 114.117 64.8455C119.064 67.0718 124.465 70.1575 129.555 68.2827C141.423 63.9113 154.046 61.6011 166.693 61.4863C168.379 61.471 169.778 60.2331 170.952 59.0229C175.571 54.2608 179.426 48.7504 184.452 44.4208C189.479 40.0912 196.166 36.9742 202.663 38.3142C209.465 39.7169 214.543 45.7743 216.765 52.3545C218.987 58.9346 218.861 66.0434 218.711 72.987C218.443 85.4219 234.039 92.1939 238.065 103.962C240.438 110.901 248.268 114.116 255.31 116.163C262.352 118.211 270.24 120.479 273.869 126.851C277.249 132.786 275.578 140.561 271.587 146.105C267.597 151.648 261.688 155.446 255.924 159.111C246.591 165.044 249.211 180.218 241.7 188.335C237.913 192.426 239.206 198.955 241.171 204.173C243.136 209.39 245.552 215.193 243.325 220.304C242.109 212.115 239.973 204.064 236.971 196.349C232.784 199.393 234.904 205.942 237.4 210.477C240.546 216.192 243.691 221.907 246.837 227.621C248.145 229.998 249.497 232.617 249.027 235.289C248.489 238.344 245.766 240.458 243.244 242.265C237.487 246.39 231.73 250.516 225.973 254.641C223.389 256.493 219.573 255.473 217.322 253.229ZM229.609 200.557C229.104 199.989 228.18 200.266 227.49 200.585C226.798 200.904 226.107 201.223 225.415 201.543C225.264 201.613 225.097 201.684 224.936 201.64C224.632 201.558 224.581 201.109 224.772 200.858C224.962 200.608 225.285 200.508 225.584 200.411C226.222 200.204 226.843 199.95 227.443 199.651C227.786 199.481 228.154 199.255 228.247 198.884C228.34 198.512 227.914 198.061 227.599 198.278C226.671 198.918 225.626 199.389 224.532 199.661C224.204 199.742 223.693 199.64 223.77 199.31C223.799 199.184 223.917 199.101 224.027 199.033C225.002 198.419 226.068 197.947 227.178 197.637C227.578 197.525 227.479 196.852 227.098 196.687C226.717 196.522 226.281 196.689 225.9 196.855C224.98 197.256 224.06 197.658 223.139 198.059C222.941 198.145 222.72 198.258 222.667 198.467C222.62 198.655 222.728 198.842 222.832 199.005C223.501 200.053 224.17 201.1 224.839 202.148C224.941 202.307 225.057 202.478 225.237 202.536C225.433 202.6 225.642 202.512 225.828 202.425C227.102 201.83 228.363 201.207 229.609 200.557ZM166.723 86.6121C164.557 86.6491 162.93 84.186 163.333 82.057C163.736 79.928 165.65 78.3349 167.723 77.7037C170.539 76.8461 173.903 77.3479 176.148 75.4429C177.156 74.5872 177.772 73.358 178.691 72.4063C180.693 70.3318 184.175 69.8929 186.629 71.4058C187.181 69.9599 185.55 68.5619 184.024 68.3044C182.498 68.0469 180.853 68.3544 179.448 67.7073C176.979 66.5705 174.071 68.0309 172.095 69.8974C170.119 71.7638 168.498 74.115 166.063 75.322C163.627 76.5289 159.942 75.8558 159.272 73.2213C159.064 72.4004 159.038 71.3127 158.237 71.0359C156.975 70.5994 156.318 69.1252 156.393 67.7912C156.468 66.4573 157.107 65.2294 157.733 64.049C155.258 63.9242 152.774 64.001 150.312 64.2784C149.721 64.3449 148.97 64.5942 148.971 65.1885C148.974 66.4168 147.834 67.298 146.809 67.9753C144.64 69.4088 142.471 70.8424 140.303 72.2759C140.371 73.7078 142.482 74.0502 143.718 73.3251C144.955 72.6 145.826 71.3037 147.159 70.7767C147.871 70.4952 148.653 70.4606 149.418 70.4295C150.724 70.3764 152.031 70.3232 153.338 70.27C155.012 70.2019 157.271 70.627 157.359 72.3004C157.432 73.6727 155.908 74.4746 154.933 75.4426C152.712 77.646 152.72 81.911 149.806 83.0483C148.771 83.4525 148.492 84.8868 148.947 85.9014C149.401 86.916 150.348 87.6055 151.244 88.2632C166.888 99.7414 194.139 129.333 194.735 129.412C195.331 129.491 196.031 129.063 195.997 128.463C195.911 126.91 195.828 125.329 196.207 123.821C196.587 122.313 197.509 120.861 198.931 120.231C200.241 119.649 202.147 119.518 202.431 118.113C203.066 114.97 206.212 112.539 209.413 112.719C210.986 112.808 212.722 113.408 214.031 112.531C212.975 111.53 211.415 111.323 210.106 110.688C208.798 110.052 207.646 108.443 208.428 107.216C209.583 105.403 207.901 103.034 208.247 100.913C208.394 100.013 208.902 99.2161 209.439 98.4793C211.262 95.9818 213.563 93.8355 216.182 92.1919C216.79 91.8098 216.943 91.0053 217.039 90.293C217.27 88.5731 217.502 86.8532 217.733 85.1333C217.895 83.9334 218.004 82.5564 217.181 81.6688C214.501 78.7803 210.04 78.6857 206.102 78.8142C202.164 78.9427 197.714 78.892 194.986 76.0492C194.14 75.1669 192.593 75.4669 191.675 76.2744C190.757 77.0819 190.249 78.2446 189.565 79.2587C187.43 82.4264 183.295 84.1054 179.556 83.3232C177.553 82.9043 175.534 81.8488 173.567 82.4141C170.946 83.1675 169.45 86.5656 166.723 86.6121ZM241.983 164.578C242.103 165.015 242.279 165.514 242.708 165.661C243.052 165.779 243.423 165.618 243.75 165.461C244.838 164.937 245.926 164.413 247.014 163.889C247.572 163.62 248.2 163.263 248.299 162.651C250.313 150.245 249.73 137.424 246.597 125.252C245.856 122.374 244.973 119.526 243.795 116.797C242.291 113.311 240.32 110.048 238.297 106.835C235.385 102.21 232.351 97.6629 229.198 93.199C228.614 94.1111 228.439 95.2161 228.142 96.258C227.844 97.2999 227.346 98.38 226.388 98.8881C225.431 99.3961 223.961 98.9649 223.791 97.8947C223.425 95.5811 220.942 93.8317 218.64 94.2648C218.145 94.3579 217.981 94.9735 217.919 95.4735C217.359 100.018 216.799 104.563 216.238 109.107C216.197 109.438 216.181 109.831 216.44 110.039C216.657 110.212 216.965 110.174 217.242 110.169C218.809 110.146 220.176 111.782 219.873 113.32C219.57 114.857 217.685 115.854 216.244 115.238C215.623 114.972 215.135 115.816 214.979 116.474C214.038 120.447 213.097 124.419 212.156 128.392C211.878 129.564 212.89 130.67 213.979 131.185C215.067 131.7 216.311 131.886 217.31 132.559C219.812 134.243 219.704 138.075 221.727 140.313C223.375 142.135 226.424 142.467 228.425 141.041C230.216 139.765 230.994 137.435 230.995 135.237C230.996 133.738 231.927 132.278 233.286 131.646C234.645 131.013 236.361 131.241 237.509 132.206C238.626 133.145 239.133 134.606 239.59 135.993C239.792 136.604 239.994 137.271 239.777 137.878C239.423 138.869 238.204 139.163 237.208 139.503C235.378 140.129 233.774 141.395 232.741 143.03C232.237 143.828 231.895 144.947 232.519 145.655C234.044 147.386 235.569 149.116 237.094 150.846C237.892 151.751 238.713 152.699 239.033 153.862C240.016 157.434 241 161.006 241.983 164.578ZM86.6333 107.695C89.0231 103.234 91.4365 98.7384 94.6831 94.8569C97.5265 91.4575 100.951 88.5992 104.371 85.7804C108.876 82.0668 113.409 78.3864 117.969 74.7396C119.867 73.2217 121.794 71.6942 124.007 70.6889C117.373 67.7656 110.697 64.8277 103.654 63.1106C96.6107 61.3934 89.1087 60.9458 82.1592 63.0091C81.4897 63.2079 80.8172 63.4341 80.2392 63.8262C79.2632 64.4883 78.6467 65.561 78.1842 66.646C76.3667 70.9102 76.4687 75.7417 77.0599 80.3392C78.3011 89.9909 81.5852 99.375 86.6333 107.695ZM236.418 240.069C236.356 240.717 235.657 241.326 235.07 241.044C234.793 240.911 234.624 240.629 234.471 240.363C232.132 236.277 229.792 232.192 227.452 228.107C225.942 228.675 225.217 230.496 225.386 232.1C225.556 233.704 226.411 235.143 227.246 236.523C228.523 238.634 229.8 240.745 231.078 242.856C230.406 243.548 229.325 242.629 228.828 241.803C227.055 238.861 225.283 235.919 223.511 232.976C220.126 236.458 216.741 239.94 213.356 243.421C215.56 246.867 217.765 250.313 219.969 253.759C220.488 254.571 221.601 254.83 222.543 254.626C223.485 254.422 224.299 253.85 225.085 253.291C230.993 249.09 236.9 244.888 242.808 240.686C243.257 240.367 243.738 240.002 243.87 239.467C244.008 238.907 243.722 238.34 243.444 237.835C230.08 213.524 215.817 189.706 200.694 166.449C200.249 165.764 199.686 165.008 198.871 164.954C198.328 164.918 197.824 165.213 197.361 165.499C191.363 169.19 185.365 172.881 179.367 176.572C178.257 177.255 177.146 177.938 176.036 178.622C175.746 178.8 175.435 179.006 175.338 179.331C175.224 179.715 175.451 180.11 175.67 180.447C177.855 183.803 180.161 187.08 182.583 190.27C185.445 187.189 188.851 183.871 193.055 183.976C196.684 184.066 199.678 186.706 202.322 189.194C203.868 190.65 205.415 192.105 206.961 193.561C204.517 188.982 201.627 184.642 198.346 180.62C198.205 179.943 199.397 180.128 199.857 180.645C204.436 185.796 206.956 192.565 211.778 197.489C216.705 202.52 221.632 207.552 226.56 212.584C228.653 214.721 230.873 217.136 231.039 220.123C231.189 222.85 229.572 225.331 227.946 227.527C230.812 230.91 233.434 234.501 235.784 238.261C236.129 238.813 236.481 239.421 236.418 240.069ZM184.235 64.6103C186.31 65.0215 188.387 65.4334 190.423 66.0081C195.666 67.4886 200.541 70.0221 205.373 72.5384C209.591 74.7346 213.831 76.9453 217.617 79.8229C218.028 69.5359 217.62 59.3216 214.198 49.6121C213.211 46.8121 210.827 43.7929 208.508 41.9393C205.785 39.763 202.005 39.38 198.554 39.8736C192.526 40.7359 187.036 43.9642 182.514 48.0424C177.992 52.1205 174.325 57.0408 170.69 61.9261C175.205 62.8208 179.72 63.7156 184.235 64.6103ZM244.789 114.542C250.614 129.401 252.516 145.777 250.252 161.576C257.643 157.34 264.249 151.74 269.637 145.141C272.322 141.853 274.811 137.983 274.636 133.741C274.492 130.256 272.509 127.038 269.891 124.732C267.273 122.427 264.057 120.919 260.825 119.605C255.627 117.492 250.259 115.797 244.789 114.542ZM233.367 139.948C234.736 138.944 236.2 138.07 237.734 137.343C237.73 136.365 237.72 135.354 237.327 134.457C236.934 133.561 236.053 132.802 235.076 132.869C234.05 132.94 233.275 133.877 232.95 134.853C232.624 135.829 232.618 136.882 232.393 137.886C231.769 140.662 229.309 142.928 226.491 143.322C223.673 143.716 220.685 142.21 219.325 139.711C218.229 137.697 218.064 135.09 216.318 133.605C215.35 132.781 214.062 132.465 212.826 132.175C212.539 132.107 212.233 132.04 211.954 132.136C211.506 132.289 211.295 132.79 211.137 133.237C210.078 136.231 209.019 139.225 207.96 142.219C207.569 143.326 207.247 144.742 208.122 145.525C216.205 152.759 219.495 164.264 227.715 171.341C227.958 171.551 228.258 171.77 228.571 171.695C232.492 170.765 236.294 169.331 239.853 167.44C240.136 167.29 240.432 167.124 240.594 166.847C240.759 166.567 240.758 166.222 240.741 165.897C240.624 163.66 239.959 161.454 238.821 159.524C238.282 158.612 237.622 157.711 237.519 156.657C237.431 155.757 237.766 154.833 237.552 153.954C237.377 153.237 236.863 152.658 236.366 152.111C234.963 150.566 233.559 149.021 232.155 147.476C231.461 146.712 230.74 145.897 230.527 144.887C230.113 142.918 231.745 141.138 233.367 139.948ZM145.394 94.4642C147.05 93.468 148.053 91.4811 147.872 89.5572C147.608 86.7498 145.19 84.704 142.958 82.9805C139.301 80.1568 130.939 73.2958 127.262 71.8211C123.586 70.3464 107.319 84.8563 101.667 90.4196C101.381 90.7006 101.084 91.0069 101.004 91.3995C100.924 91.7921 99.197 96.0166 102.675 97.0434C106.153 98.0702 106.526 97.279 107.946 96.0166C109.367 94.7542 110.194 92.9634 110.862 91.1838C111.432 89.664 113.156 88.9366 114.747 88.6127C116.337 88.2887 118.051 88.168 119.367 87.2172C120.737 86.227 122.65 86.2846 124.212 86.932C125.774 87.5793 127.063 88.7309 128.32 89.8615C129.37 90.8061 131.068 89.7499 131.715 88.4946C132.362 87.2392 132.634 85.6903 133.766 84.8459C135.385 83.6385 137.869 84.7192 138.866 86.4755C140.283 88.9732 139.281 92.5397 136.77 93.9336C135.315 94.7413 133.186 95.2827 133.128 96.9459C133.099 97.7728 133.676 98.5002 134.32 99.0206C135.474 99.9542 137.353 100.397 138.336 99.2851C139.737 97.7004 138.172 94.3515 140.113 93.5097C141.827 92.7663 143.793 95.4272 145.394 94.4642ZM189.643 76.7358C190.223 75.8352 190.805 74.8487 191.773 74.3898C193.011 73.8031 194.497 74.2691 195.671 74.9744C196.845 75.6797 197.893 76.6236 199.181 77.0901C200.491 77.5649 201.927 77.5008 203.319 77.4305C205.634 77.3137 207.95 77.1968 210.265 77.08C196.27 68.9709 180.527 63.2839 164.353 63.1241C162.99 63.1106 161.595 63.1417 160.316 63.6134C159.036 64.085 157.874 65.0778 157.547 66.4013C157.047 68.4167 158.881 70.5709 160.956 70.6352C159.872 71.4288 160.039 73.2721 161.072 74.1314C162.104 74.9908 163.65 74.9841 164.89 74.4666C166.13 73.9491 167.134 73.0055 168.11 72.0814C169.925 70.3615 171.739 68.6416 173.554 66.9218C174.695 65.8408 176.471 65.7949 178.013 66.1C179.555 66.405 181.064 66.9955 182.635 66.9573C185.934 66.8772 188.856 70.2641 188.293 73.5156C186.813 72.1193 184.659 71.4721 182.654 71.8211C180.649 72.1701 178.84 73.507 177.919 75.3215C177.171 76.7925 175.503 77.5699 173.881 77.8726C172.259 78.1752 170.584 78.112 168.968 78.4458C167.352 78.7797 165.704 79.6303 165.043 81.1421C164.382 82.6539 165.246 84.8101 166.889 84.9625C168.803 85.14 169.92 82.8929 171.53 81.8429C173.062 80.8437 175.061 80.9745 176.849 81.363C178.636 81.7514 180.423 82.3639 182.245 82.2063C185.412 81.9324 187.921 79.4074 189.643 76.7358ZM240.895 168.886C237.228 170.3 233.561 171.714 229.894 173.128C229.384 173.325 228.763 173.827 229.069 174.28C232.567 179.442 235.26 185.149 237.02 191.132C237.191 191.714 238.075 191.278 238.42 190.779C241.628 186.142 244.185 181.056 245.994 175.716C246.321 174.75 246.626 173.705 246.346 172.724C245.904 171.183 244.247 170.405 243.026 169.366C242.689 169.079 242.348 168.747 241.909 168.683C241.564 168.633 241.221 168.76 240.895 168.886ZM198.59 123.031C196.906 124.82 198.321 127.85 197.456 130.149C197.264 130.659 196.954 131.197 197.131 131.712C197.219 131.969 197.416 132.17 197.608 132.362C198.207 132.962 198.806 133.563 199.405 134.163C199.875 134.634 200.638 135.122 201.128 134.672C203.142 132.819 205.583 131.432 208.206 130.649C208.961 130.424 209.778 130.22 210.305 129.634C210.77 129.117 210.92 128.399 211.053 127.716C211.793 123.895 212.529 120.074 213.259 116.251C213.316 115.953 213.371 115.633 213.25 115.355C213.121 115.06 212.823 114.879 212.532 114.74C209.582 113.335 205.614 114.775 204.252 117.745C203.789 118.754 203.576 119.921 202.8 120.713C201.668 121.868 199.699 121.854 198.59 123.031ZM139.764 74.1589C139.194 73.6411 138.604 72.9914 138.66 72.2232C138.72 71.4045 139.479 70.8398 140.166 70.3904C142.6 68.7981 145.035 67.2058 147.469 65.6135C147.41 65.1406 146.747 65.0906 146.278 65.1759C139.974 66.3223 133.798 68.1701 127.901 70.6743C134.478 74.7287 140.787 79.2168 146.775 84.0996C147.502 82.45 149.372 81.6381 150.479 80.2157C151.878 78.4188 151.983 75.7503 153.703 74.2582C154.547 73.5261 155.801 73.0185 155.97 71.914C154.493 71.9243 153.016 71.9346 151.54 71.9449C149.743 71.9575 147.831 72.0041 146.338 73.0037C145.035 73.8761 144.034 75.4628 142.467 75.5075C141.434 75.537 140.529 74.8532 139.764 74.1589ZM213.388 172.403C214.535 174.458 215.681 176.513 216.827 178.568C214.727 171.888 212.223 165.334 209.333 158.955C209.231 158.728 209.113 158.486 208.893 158.37C208.622 158.226 208.292 158.321 208.001 158.418C199.859 161.14 191.717 163.862 183.576 166.585C183.328 166.667 183.06 166.766 182.927 166.991C182.768 167.26 182.863 167.603 182.97 167.898C183.447 169.214 184.071 170.477 184.828 171.656C189.934 168.685 195.04 165.714 200.146 162.743C200.932 162.285 201.76 161.815 202.669 161.781C203.421 161.753 204.151 162.028 204.823 162.367C208.812 164.379 211.212 168.501 213.388 172.403ZM176.422 228C175.396 225.808 173.635 224.014 171.613 222.683C169.13 227.295 166.281 231.71 163.101 235.873C162.858 236.191 162.768 236.843 163.168 236.815C167.045 236.542 170.923 236.27 174.8 235.997C175.578 235.942 176.514 235.779 176.799 235.053C177.687 232.801 177.449 230.192 176.422 228ZM234.961 195.662C235.275 195.181 235.595 194.687 235.722 194.127C235.89 193.386 235.704 192.615 235.504 191.882C233.967 186.247 231.547 180.868 228.528 175.868C228.176 175.286 227.798 174.689 227.225 174.322C226.653 173.955 225.83 173.887 225.331 174.349C224.664 174.965 224.917 176.054 225.221 176.91C227.628 183.693 230.035 190.475 232.442 197.257C232.586 197.661 232.913 198.158 233.312 198.003C233.468 197.943 233.569 197.794 233.661 197.655C234.094 196.99 234.528 196.326 234.961 195.662ZM210.801 109.402C211.498 109.99 212.422 110.212 213.311 110.417C214.023 110.581 214.444 109.652 214.568 108.932C215.391 104.12 215.92 99.2626 216.449 94.4092C216.045 94.2375 215.616 94.5677 215.301 94.8734C214.168 95.9721 213.036 97.0709 211.903 98.1697C211.115 98.9345 210.29 99.7607 210.04 100.83C209.564 102.866 211.3 105.186 210.203 106.966C209.725 107.742 210.104 108.814 210.801 109.402ZM208.334 147.897C208.062 147.591 207.769 147.276 207.38 147.15C206.99 147.024 206.483 147.167 206.348 147.553C205.142 151.002 203.936 154.451 202.73 157.9C202.616 158.228 202.693 158.78 203.026 158.682C205.059 158.082 206.936 157.02 208.978 156.449C211.02 155.879 213.408 155.886 215.04 157.24C213.137 153.904 210.886 150.767 208.334 147.897ZM225.752 97.4607C226.364 95.8015 226.976 94.1424 227.587 92.4832C227.706 92.1616 227.471 91.8268 227.251 91.5643C225.067 88.9631 222.865 86.344 220.221 84.2122C220.109 84.1213 219.981 84.0266 219.837 84.0343C219.562 84.049 219.452 84.3908 219.413 84.6631C219.084 86.9766 218.755 89.2901 218.426 91.6036C218.33 92.2777 218.951 92.8636 219.602 93.063C220.253 93.2624 220.954 93.207 221.624 93.3315C222.858 93.5613 223.952 94.445 224.435 95.604C224.742 96.3393 224.969 97.3172 225.752 97.4607ZM206.23 142.15C207.386 139.193 208.446 136.198 209.409 133.173C209.474 132.969 209.538 132.748 209.469 132.545C209.286 132.005 208.486 132.145 207.976 132.401C205.971 133.405 204.043 134.563 202.214 135.861C201.987 136.022 201.739 136.225 201.731 136.503C201.724 136.714 201.86 136.899 201.989 137.065C203.348 138.805 204.762 140.501 206.23 142.15ZM223.19 190.888C222.974 190.651 222.618 190.615 222.297 190.62C221.573 190.632 220.85 190.78 220.179 191.053C219.849 191.188 219.52 191.355 219.164 191.374C218.808 191.392 218.408 191.206 218.32 190.86C219.262 190.187 220.404 189.798 221.561 189.756C222.075 189.737 222.09 188.863 221.638 188.616C221.187 188.369 220.63 188.55 220.149 188.734C219.355 189.04 218.561 189.345 217.766 189.65C217.535 189.739 217.297 189.459 217.331 189.214C217.364 188.968 217.563 188.782 217.76 188.632C218.475 188.086 219.327 187.722 220.216 187.585C220.64 187.52 220.708 186.863 220.398 186.566C220.089 186.27 219.613 186.251 219.185 186.273C217.94 186.338 216.707 186.608 215.549 187.068C216.536 188.84 217.545 190.6 218.573 192.348C218.84 192.801 219.129 193.274 219.59 193.525C220.419 192.478 221.68 191.784 223.008 191.643C223.326 191.609 223.407 191.124 223.19 190.888ZM240.199 222.856C239.438 223.05 238.684 223.271 237.939 223.52C237.735 223.588 237.499 223.694 237.465 223.906C237.444 224.033 237.505 224.157 237.564 224.27C238.002 225.111 238.44 225.952 238.877 226.793C239.055 227.135 239.412 227.535 239.744 227.34C240.835 226.698 242.055 226.275 243.309 226.101C243.655 226.054 243.88 225.683 243.888 225.335C243.896 224.987 243.742 224.657 243.591 224.343C243.333 223.805 243.049 223.237 242.541 222.923C241.857 222.501 240.978 222.657 240.199 222.856ZM243.136 232.1C242.839 232.154 242.495 232.244 242.378 232.523C242.283 232.751 242.383 233.009 242.483 233.234C242.863 234.096 243.242 234.957 243.622 235.819C243.741 236.088 243.898 236.39 244.185 236.454C244.389 236.499 244.596 236.407 244.785 236.316C245.37 236.036 245.955 235.756 246.54 235.475C246.87 235.317 247.219 235.142 247.399 234.825C247.58 234.507 247.484 234.01 247.132 233.913C246.944 233.862 246.746 233.935 246.57 234.021C246.046 234.275 245.574 234.646 245.014 234.808C244.455 234.971 243.743 234.846 243.477 234.327C244.856 233.838 246.173 233.178 247.391 232.366C247.282 231.606 246.215 231.538 245.459 231.676C244.685 231.817 243.911 231.959 243.136 232.1ZM231.875 212.321C232.099 212.077 232.424 211.958 232.736 211.847C233.594 211.541 234.453 211.236 235.312 210.931C235.758 210.772 235.648 210.031 235.227 209.814C234.806 209.596 234.298 209.732 233.845 209.871C232.863 210.174 231.881 210.476 230.899 210.779C230.771 210.818 230.636 210.862 230.546 210.961C230.341 211.189 230.479 211.547 230.625 211.817C231.014 212.536 231.403 213.254 231.792 213.973C231.838 214.057 231.889 214.147 231.975 214.187C232.08 214.236 232.202 214.199 232.311 214.161C233.506 213.748 234.701 213.335 235.896 212.922C236.181 212.823 236.523 212.643 236.499 212.342C236.467 211.932 235.865 211.929 235.473 212.053C234.244 212.443 233.015 212.833 231.786 213.224C231.569 212.973 231.651 212.564 231.875 212.321ZM247.152 165.427C246.093 166.025 245.035 166.623 243.977 167.221C243.85 167.293 243.716 167.371 243.647 167.499C243.462 167.839 243.827 168.208 244.148 168.423C244.806 168.864 245.464 169.305 246.123 169.746C246.252 169.833 246.392 169.923 246.548 169.925C246.902 169.928 247.085 169.511 247.175 169.168C247.467 168.069 247.759 166.969 248.051 165.869C248.088 165.731 248.124 165.579 248.065 165.449C247.922 165.136 247.452 165.258 247.152 165.427ZM233.221 214.784C232.965 214.85 232.674 214.945 232.578 215.191C232.507 215.374 232.572 215.581 232.655 215.759C232.869 216.216 233.208 216.615 233.626 216.9C234.736 216.476 235.846 216.052 236.956 215.628C237.433 215.446 237.998 215.139 237.978 214.629C237.963 214.264 237.618 213.981 237.26 213.911C236.901 213.84 236.533 213.932 236.179 214.023C235.193 214.276 234.207 214.53 233.221 214.784ZM217.136 174.848C217.524 175.606 218.485 175.826 219.326 175.962C220.667 176.18 222.008 176.397 223.349 176.614C223.372 175.853 222.587 175.347 221.889 175.042C220.611 174.482 219.277 174.049 217.913 173.753C217.766 173.721 217.612 173.69 217.466 173.726C217.029 173.831 216.931 174.448 217.136 174.848ZM212.164 174.274C212.269 174.235 212.376 174.194 212.466 174.128C212.866 173.834 212.745 173.143 212.336 172.86C211.928 172.577 211.375 172.615 210.901 172.764C210.428 172.913 209.986 173.16 209.501 173.269C208.847 173.417 207.991 173.41 207.74 174.032C207.526 174.564 208.017 175.165 208.576 175.289C209.136 175.412 209.71 175.205 210.245 175.002C210.885 174.76 211.525 174.517 212.164 174.274ZM214.739 179.068C215.279 178.715 215.029 177.787 214.454 177.493C213.88 177.2 213.189 177.337 212.56 177.481C211.897 177.633 211.188 177.81 210.736 178.319C210.285 178.828 210.285 179.782 210.902 180.07C211.74 180.461 212.525 179.356 213.44 179.219C213.877 179.154 214.369 179.309 214.739 179.068ZM233.709 208.815C233.89 208.755 234.082 208.686 234.199 208.535C234.329 208.366 234.333 208.126 234.26 207.926C234.088 207.459 233.549 207.21 233.051 207.219C232.553 207.229 232.084 207.44 231.631 207.648C231.055 207.912 230.479 208.177 229.903 208.441C229.586 208.587 229.228 208.784 229.175 209.129C229.122 209.479 229.444 209.798 229.79 209.872C230.137 209.946 230.494 209.842 230.833 209.738C231.795 209.441 232.754 209.134 233.709 208.815ZM236.306 221.017C237.547 220.495 238.788 219.973 240.029 219.451C240.146 219.402 240.267 219.35 240.353 219.256C240.605 218.977 240.375 218.49 240.023 218.356C239.672 218.221 239.28 218.325 238.919 218.43C238.08 218.673 237.241 218.916 236.403 219.159C235.939 219.293 235.42 219.474 235.224 219.915C234.957 220.519 235.697 221.273 236.306 221.017ZM244.683 228.252C245.179 228.06 244.998 227.225 244.506 227.025C244.014 226.825 243.461 227.03 242.962 227.214C241.985 227.574 240.978 227.852 239.955 228.045C239.598 228.525 240.033 229.261 240.608 229.424C241.184 229.588 241.791 229.369 242.349 229.153C243.127 228.853 243.905 228.552 244.683 228.252ZM218.263 172.636C219.263 172.898 220.263 173.16 221.263 173.422C221.644 173.522 222.23 173.466 222.203 173.074C220.476 171.88 218.489 171.064 216.421 170.7C216.311 170.681 216.196 170.664 216.091 170.702C215.732 170.832 215.869 171.388 216.139 171.657C216.698 172.215 217.5 172.436 218.263 172.636ZM222.042 168.773C222.395 169.623 222.749 170.474 223.102 171.324C223.315 171.836 223.555 172.381 224.025 172.675C224.494 172.97 225.259 172.845 225.413 172.312C225.53 171.906 225.256 171.5 224.995 171.168C223.999 169.898 222.974 168.652 221.92 167.43C221.686 167.834 221.862 168.342 222.042 168.773ZM220.329 170.371C220.516 170.436 220.745 170.494 220.897 170.366C221.074 170.216 221.01 169.926 220.889 169.727C220.451 169.006 219.564 168.72 218.752 168.489C217.661 168.179 216.569 167.869 215.477 167.559C215.138 167.463 214.883 167.958 215.042 168.272C215.2 168.587 215.565 168.729 215.899 168.844C217.376 169.353 218.852 169.862 220.329 170.371ZM234.926 217.256C234.619 217.349 234.285 217.462 234.117 217.735C233.819 218.221 234.255 218.855 234.768 219.104C235.926 218.162 237.401 217.618 238.893 217.582C239.401 217.569 239.445 216.718 239.015 216.449C238.584 216.179 238.026 216.318 237.539 216.466C236.668 216.729 235.797 216.993 234.926 217.256ZM230.077 203.965C229.373 204.152 228.669 204.338 227.965 204.524C227.32 204.694 226.51 205.117 226.665 205.766C226.797 206.319 227.57 206.445 228.088 206.212C228.607 205.979 229.002 205.528 229.518 205.289C230.361 204.9 231.549 205.042 232.022 204.243C231.619 203.67 230.753 203.787 230.077 203.965ZM203.696 166.743C203.561 166.801 203.421 166.868 203.332 166.985C203.102 167.288 203.353 167.758 203.709 167.891C204.065 168.024 204.461 167.928 204.83 167.84C206.072 167.542 207.336 167.336 208.608 167.224C208.732 166.526 207.819 166.135 207.111 166.107C205.944 166.061 204.768 166.28 203.696 166.743ZM224.28 193.803C224.645 193.417 224.438 192.555 223.917 192.657C222.534 192.927 221.2 193.45 220.003 194.193C219.723 194.763 220.497 195.354 221.124 195.255C221.752 195.156 222.256 194.696 222.843 194.455C223.335 194.254 223.915 194.19 224.28 193.803ZM225.037 181.306C224.873 181.099 224.611 181 224.363 180.911C223.154 180.479 221.945 180.047 220.736 179.615C220.406 179.497 220.035 179.379 219.713 179.52C219.392 179.661 219.263 180.194 219.578 180.35C221.127 181.115 222.773 181.683 224.464 182.035C224.64 182.072 224.837 182.103 224.989 182.006C225.211 181.865 225.201 181.513 225.037 181.306ZM219.346 167.084C219.519 167.186 219.745 166.993 219.75 166.793C219.754 166.592 219.62 166.418 219.484 166.27C218.185 164.854 216.28 164.192 214.457 163.583C213.995 163.428 213.318 163.376 213.184 163.844C215.291 164.819 217.349 165.901 219.346 167.084ZM246.231 229.935C246.122 229.555 245.722 229.319 245.329 229.279C244.935 229.24 244.545 229.356 244.168 229.472C243.508 229.674 242.849 229.875 242.189 230.077C241.734 230.216 241.18 230.49 241.218 230.965C241.249 231.351 241.699 231.583 242.085 231.546C242.471 231.509 242.811 231.29 243.161 231.123C243.924 230.758 244.794 230.621 245.633 230.735C246.024 230.788 246.34 230.315 246.231 229.935ZM204.874 169.632C204.868 169.989 205.147 170.329 205.498 170.394C205.725 170.436 205.957 170.373 206.179 170.311C207.463 169.954 208.746 169.596 210.03 169.238C210.05 168.877 209.739 168.566 209.393 168.461C209.047 168.356 208.675 168.41 208.318 168.464C207.386 168.606 206.454 168.748 205.521 168.89C205.169 168.944 204.879 169.275 204.874 169.632ZM226.076 195.308C226.127 194.972 225.797 194.676 225.461 194.634C225.124 194.592 224.794 194.729 224.483 194.864C223.492 195.291 222.501 195.719 221.511 196.147C221.216 196.521 221.579 197.114 222.043 197.219C222.508 197.324 222.979 197.112 223.408 196.905C224.084 196.579 224.761 196.253 225.438 195.926C225.716 195.792 226.029 195.613 226.076 195.308ZM211.909 161.007C212.023 161.21 212.25 161.318 212.463 161.414C214.228 162.205 215.993 162.995 217.758 163.786C218.071 163.927 218.528 164.022 218.683 163.715C218.849 163.386 218.44 163.072 218.1 162.928C216.202 162.121 214.303 161.314 212.404 160.508C212.308 160.467 212.206 160.426 212.104 160.443C211.874 160.481 211.795 160.803 211.909 161.007ZM221.05 183.778C220.991 183.753 220.927 183.727 220.864 183.74C220.798 183.753 220.744 183.81 220.734 183.876C220.889 184.932 222.074 185.453 223.09 185.782C224.417 186.213 225.744 186.644 227.071 187.075C227.39 186.722 226.869 186.233 226.431 186.048C224.637 185.292 222.844 184.535 221.05 183.778ZM211.236 171.398C211.384 171.119 211.161 170.77 210.88 170.626C210.39 170.373 209.798 170.514 209.265 170.66C208.659 170.827 208.053 170.993 207.447 171.159C207.011 171.279 206.484 171.506 206.468 171.958C206.456 172.297 206.775 172.574 207.108 172.636C207.442 172.698 207.782 172.6 208.106 172.503C208.971 172.245 209.835 171.987 210.7 171.729C210.907 171.667 211.135 171.589 211.236 171.398ZM241.285 220.547C240.924 220.339 240.471 220.461 240.074 220.587C238.813 220.991 237.551 221.394 236.29 221.798C236.011 222.244 236.518 222.838 237.044 222.87C237.57 222.901 238.047 222.594 238.511 222.346C239.356 221.893 240.286 221.602 241.238 221.493C241.652 221.445 241.645 220.756 241.285 220.547ZM217.192 182.25C216.788 182.141 216.36 182.217 215.948 182.293C215.44 182.387 214.931 182.481 214.422 182.574C213.844 182.681 213.112 182.98 213.174 183.563C213.21 183.908 213.55 184.157 213.892 184.207C214.235 184.257 214.58 184.154 214.911 184.054C215.927 183.744 216.943 183.435 217.958 183.126C217.968 182.707 217.596 182.358 217.192 182.25ZM213.727 175.407C213.445 175.118 212.979 175.098 212.591 175.21C212.204 175.322 211.856 175.542 211.477 175.682C211.03 175.846 210.547 175.894 210.102 176.062C209.657 176.231 209.226 176.567 209.149 177.037C209.316 177.428 209.878 177.384 210.288 177.274C211.376 176.981 212.464 176.688 213.552 176.395C213.942 176.29 214.01 175.695 213.727 175.407ZM212.213 180.73C211.76 180.862 211.838 181.611 212.252 181.839C212.665 182.066 213.175 181.941 213.629 181.81C214.58 181.535 215.531 181.26 216.482 180.986C216.551 180.51 216.117 180.08 215.648 179.977C215.179 179.874 214.694 180.009 214.233 180.143C213.56 180.339 212.887 180.534 212.213 180.73ZM217.609 113.819C218.214 113.383 218.121 112.484 218.139 111.739C217.351 111.643 216.487 111.563 215.823 111.998C215.158 112.432 214.98 113.605 215.692 113.958C215.936 114.079 216.221 114.076 216.494 114.07C216.881 114.062 217.295 114.045 217.609 113.819ZM219.134 177.166C218.753 177.127 218.198 177.295 218.306 177.662C218.358 177.839 218.552 177.925 218.725 177.988C220.382 178.587 222.113 178.984 223.866 179.166C224.083 179.116 224.146 178.809 224.033 178.618C223.919 178.426 223.701 178.327 223.494 178.244C222.1 177.684 220.628 177.32 219.134 177.166ZM211.42 158.767C212.854 159.504 214.315 160.187 215.799 160.815C216.088 160.937 216.415 161.058 216.705 160.939C216.994 160.82 217.105 160.335 216.818 160.209C215.13 159.47 213.442 158.732 211.755 157.993C211.486 157.876 211.104 157.792 210.959 158.046C210.8 158.325 211.134 158.621 211.42 158.767ZM225.609 183.477C225.365 183.255 225.037 183.156 224.72 183.063C223.389 182.671 222.057 182.28 220.725 181.889C220.541 181.835 220.336 181.782 220.164 181.867C219.991 181.952 219.929 182.242 220.101 182.326C221.923 183.219 223.847 183.905 225.822 184.367C225.986 184.08 225.854 183.698 225.609 183.477ZM226.654 204.028C227.603 203.692 228.553 203.356 229.503 203.021C229.92 202.873 230.369 202.702 230.608 202.329C230.547 201.994 230.185 201.784 229.845 201.777C229.505 201.771 229.184 201.918 228.876 202.061C228.043 202.45 227.211 202.839 226.379 203.228C226.078 203.368 225.732 203.575 225.727 203.907C225.883 204.211 226.331 204.142 226.654 204.028ZM219.108 185.036C219.33 184.79 219.131 184.361 218.822 184.238C218.514 184.115 218.167 184.199 217.846 184.285C216.756 184.577 215.666 184.868 214.576 185.16C214.379 185.389 214.556 185.776 214.834 185.896C215.112 186.016 215.431 185.952 215.727 185.887C216.71 185.668 217.693 185.45 218.677 185.232C218.834 185.197 219.001 185.156 219.108 185.036ZM232.426 205.462C232.201 205.412 231.971 205.501 231.758 205.588C230.597 206.063 229.435 206.537 228.273 207.012C227.936 207.15 228.072 207.721 228.414 207.846C228.755 207.971 229.128 207.809 229.456 207.651C230.454 207.167 231.452 206.684 232.451 206.201C232.564 206.146 232.685 206.084 232.741 205.971C232.843 205.764 232.65 205.511 232.426 205.462ZM223.895 187.01C223.448 186.845 222.803 186.758 222.624 187.2C224.199 188.011 225.869 188.637 227.589 189.059C227.94 188.847 227.502 188.346 227.117 188.203C226.043 187.806 224.969 187.408 223.895 187.01ZM202.234 165.251C201.934 165.593 202.23 166.24 202.685 166.236C203.725 165.557 204.939 165.148 206.178 165.059C205.785 164.568 205.105 164.381 204.478 164.43C203.851 164.479 203.26 164.729 202.681 164.976C202.519 165.045 202.351 165.118 202.234 165.251ZM227.68 190.766C228.02 190.849 228.557 190.753 228.472 190.413C227.049 189.771 225.55 189.299 224.017 189.01C223.847 189.238 223.949 189.584 224.161 189.773C224.373 189.963 224.661 190.036 224.938 190.103C225.852 190.324 226.766 190.545 227.68 190.766ZM226.604 192.548C227.4 192.794 228.225 192.95 229.057 193.01C229.223 192.79 229.128 192.453 228.924 192.267C228.721 192.081 228.441 192.006 228.174 191.938C227.326 191.723 226.477 191.507 225.629 191.291C225.321 191.821 226.018 192.367 226.604 192.548ZM244.74 237.77C244.55 238.236 244.797 238.889 245.297 238.954C245.919 238.357 246.453 237.668 246.876 236.918C246.635 236.657 246.21 236.72 245.877 236.843C245.404 237.017 244.93 237.303 244.74 237.77ZM231.457 199.031C231.052 198.654 230.552 198.38 230.017 198.241C229.931 199 230.366 199.79 231.053 200.123C231.218 200.203 231.413 200.258 231.582 200.186C232.007 200.005 231.795 199.346 231.457 199.031ZM229.466 194.263C229.188 194.062 228.828 194.024 228.486 193.992C228.065 193.953 227.644 193.914 227.223 193.874C227.019 194.365 227.597 194.844 228.123 194.92C228.649 194.997 229.225 194.893 229.685 195.16C229.893 194.887 229.744 194.464 229.466 194.263ZM232.728 203.515C232.893 203.656 233.097 203.782 233.312 203.758C233.388 202.725 232.691 201.764 231.822 201.2C231.719 202.057 232.071 202.955 232.728 203.515ZM230.032 196.552C229.544 196.283 228.971 196.173 228.418 196.242C228.619 196.78 229.096 197.207 229.653 197.346C229.951 197.421 230.323 197.388 230.486 197.127C230.648 196.865 230.327 196.434 230.076 196.61M202.733 163.081C202.271 163.163 201.838 163.398 201.517 163.74C202.091 163.902 202.745 163.738 203.176 163.326C203.07 163.183 202.905 163.086 202.729 163.061" fill="#00160A"/>
<path fill-rule="evenodd" clip-rule="evenodd" d="M192.82 209.038C197.534 204.51 204.15 205.149 208.777 210.117C212.801 214.44 211.845 220.15 207.275 224.939C205.551 226.727 202.09 227.914 199.585 227.623C197.465 227.413 194.163 225.85 192.203 224.409C191.295 223.742 190.464 222.368 189.681 220.279L189.566 219.967C188.175 216.11 189.114 212.033 192.266 209.475L192.413 209.358L192.447 209.312C192.474 209.278 192.505 209.246 192.541 209.216L192.599 209.172L192.663 209.131L192.797 209.063L192.82 209.038ZM201.014 224.59L199.588 226.115L199.746 226.128C201.207 226.235 202.637 226.006 203.937 225.453L204.009 225.421L203.908 225.415C203.01 225.351 202.061 225.077 201.075 224.619L201.014 224.59ZM196.855 221.727L196.721 221.604L196.581 221.741C196.028 222.28 195.466 222.832 194.892 223.4L194.241 224.046C194.425 224.181 194.617 224.311 194.816 224.439C195.718 225.027 196.692 225.473 197.699 225.762L197.916 225.822L198.958 224.724L199.738 223.899L199.687 223.868C198.706 223.267 197.743 222.528 196.855 221.727ZM203.655 221.765L201.956 223.583L202.041 223.62C203.364 224.175 204.539 224.28 205.551 223.871L205.658 223.826L205.555 223.71C205.044 223.138 204.494 222.571 203.893 221.992L203.655 221.765ZM193.417 217.928L193.115 218.224C192.681 218.647 192.243 219.067 191.8 219.484L191.105 220.134L191.163 220.273C191.634 221.358 192.29 222.303 193.145 223.129L193.176 223.158L193.273 223.06C193.891 222.432 194.531 221.796 195.197 221.144L195.715 220.64L195.574 220.498C194.799 219.71 194.136 218.938 193.579 218.159L193.417 217.928ZM206.43 218.795L204.576 220.779L204.595 220.797C205.306 221.476 205.957 222.142 206.56 222.815L206.744 223.021L206.749 223.015C207.382 222.155 207.273 220.754 206.513 218.983L206.43 218.795ZM199.942 218.526L199.804 218.655C199.17 219.25 198.527 219.861 197.872 220.491L197.687 220.669L197.859 220.821C198.766 221.613 199.635 222.279 200.503 222.815L200.667 222.914L201.831 221.679L202.632 220.825L202.367 220.59C201.887 220.166 201.367 219.721 200.715 219.173L199.942 218.526ZM209.85 215.138L207.284 217.882L207.367 218.043C207.508 218.322 207.647 218.604 207.783 218.891L207.985 219.325L208.173 219.743C208.365 220.148 208.497 220.55 208.568 220.947L208.578 221.014L208.655 220.877C209.693 218.973 210.119 217.014 209.858 215.194L209.85 215.138ZM204.206 215.107L204.074 214.933L203.606 215.326L202.302 216.404L202.069 216.6C201.829 216.802 201.614 216.988 201.415 217.164L201.184 217.371L200.945 217.592L201.483 218.04C202.083 218.543 202.605 218.991 203.093 219.422L203.558 219.836L205.049 218.238L205.758 217.475L205.753 217.465C205.307 216.678 204.777 215.875 204.206 215.107ZM196.263 215.268L196.151 215.159L196.116 215.196C195.68 215.653 195.24 216.106 194.796 216.556L194.354 217L194.446 217.142C194.985 217.95 195.652 218.738 196.43 219.503L196.627 219.694L196.662 219.727L196.723 219.669C197.172 219.24 197.633 218.803 198.11 218.356L198.878 217.637L198.772 217.549C197.908 216.813 197.074 216.054 196.263 215.268ZM191.521 212.356L191.478 212.427C190.423 214.202 190.097 216.408 190.587 218.509L190.631 218.689L190.653 218.775L190.875 218.568C191.337 218.133 191.796 217.693 192.252 217.249L192.716 216.793L192.672 216.712C191.913 215.299 191.515 213.863 191.521 212.389L191.521 212.356ZM199.906 211.028L199.355 211.66C198.73 212.371 198.097 213.075 197.454 213.771L197.076 214.177L197.17 214.269C197.919 214.992 198.694 215.697 199.503 216.389L199.879 216.708L200.239 216.377C200.469 216.167 200.716 215.951 200.996 215.714L201.454 215.33L202.532 214.442C202.726 214.281 202.9 214.137 203.061 214.001L203.219 213.866L203.143 213.777C202.773 213.348 202.425 212.98 202.136 212.709L202.051 212.631C201.464 212.101 200.822 211.617 200.107 211.156L199.906 211.028ZM207.684 210.951L207.626 211.052C207.032 212.06 206.212 213.005 205.097 214.033L205.004 214.118L205.037 214.164C205.524 214.848 205.986 215.564 206.424 216.311L206.582 216.586L207.83 215.239L209.408 213.526L209.371 213.437C209.009 212.575 208.469 211.765 207.753 211.02L207.684 210.951ZM192.918 211.718L192.912 211.776C192.784 213.136 193.05 214.473 193.674 215.789L193.69 215.822L193.857 215.655C194.225 215.283 194.59 214.907 194.954 214.529L195.231 214.238L195.118 214.123C194.479 213.465 193.852 212.785 193.232 212.079L192.918 211.718ZM193.538 210.214L193.443 210.26L193.468 210.289C194.312 211.296 195.172 212.25 196.062 213.165L196.154 213.258L196.525 212.859C197.177 212.153 197.82 211.439 198.454 210.716L198.762 210.361L198.729 210.343C198.572 210.258 198.412 210.173 198.247 210.087L197.996 209.959C196.527 209.238 195.442 209.318 193.686 210.143L193.538 210.214ZM202.727 207.641L202.186 208.312C201.82 208.761 201.451 209.208 201.079 209.652L200.818 209.96L200.885 210.002C201.869 210.637 202.708 211.326 203.397 212.09L203.553 212.267C203.706 212.445 203.857 212.624 204.005 212.807L204.176 213.019L204.199 212.998C205.297 211.974 206.073 211.042 206.605 210.04L206.62 210.01L206.479 209.898C205.056 208.78 204.013 208.115 202.91 207.706L202.727 207.641ZM200.55 207.256C199.156 207.246 197.886 207.495 196.714 208.007L196.647 208.037L196.763 208.052C197.02 208.09 197.272 208.155 197.52 208.248L197.643 208.298C198.307 208.59 198.918 208.883 199.491 209.187L199.682 209.291L200.057 208.848C200.439 208.393 200.818 207.936 201.193 207.475L201.327 207.308L201.164 207.289C201.028 207.276 200.892 207.266 200.755 207.261L200.55 207.256Z" fill="#FFB61D"/>
<path fill-rule="evenodd" clip-rule="evenodd" d="M224.254 111.781C224.694 110.588 226.282 110.095 227.453 110.592C228.624 111.09 229.351 112.333 229.534 113.592C229.718 114.851 229.439 116.131 229.081 117.352C228.754 118.465 228.36 119.559 227.9 120.624C227.858 120.723 227.801 120.834 227.695 120.858C227.583 120.883 227.48 120.796 227.399 120.714C225.41 118.698 224.21 115.921 224.106 113.09C224.089 112.649 224.1 112.196 224.254 111.781ZM227.694 112.073C227.367 111.793 226.946 111.609 226.516 111.622C225.512 111.653 224.812 112.747 224.834 113.751C224.857 114.755 225.391 115.666 225.91 116.526C226.282 117.141 226.653 117.757 227.025 118.372C227.152 118.582 227.401 118.821 227.598 118.676C227.678 118.617 227.709 118.515 227.735 118.419C227.887 117.86 228.039 117.301 228.191 116.742C228.408 115.942 228.628 115.13 228.614 114.302C228.601 113.473 228.323 112.612 227.694 112.073L227.694 112.073Z" fill="#FFB61D"/>
<path fill-rule="evenodd" clip-rule="evenodd" d="M227.037 115.286C226.793 115.354 226.526 115.341 226.289 115.249C225.83 115.07 225.513 114.578 225.54 114.086C225.566 113.594 225.934 113.139 226.41 113.011C227.131 112.816 227.943 113.481 227.895 114.226C227.864 114.709 227.504 115.154 227.037 115.286Z" fill="#FFB61D"/>
</svg>
