<svg width="152" height="117" viewBox="0 0 152 117" fill="none" xmlns="http://www.w3.org/2000/svg">
<path d="M73.3909 105.7C101.391 105.7 124.091 83 124.091 54.9C124.091 26.8 101.291 4.09998 73.3909 4.09998C45.3909 4.09998 22.6909 26.8 22.6909 54.9C22.6909 83 45.3909 105.7 73.3909 105.7Z" fill="#EAEEF9"/>
<path d="M120.791 21.6C123.055 21.6 124.891 19.7644 124.891 17.5C124.891 15.2357 123.055 13.4 120.791 13.4C118.527 13.4 116.691 15.2357 116.691 17.5C116.691 19.7644 118.527 21.6 120.791 21.6Z" fill="#EAEEF9"/>
<path d="M126.791 5.6C128.337 5.6 129.591 4.3464 129.591 2.8C129.591 1.2536 128.337 0 126.791 0C125.245 0 123.991 1.2536 123.991 2.8C123.991 4.3464 125.245 5.6 126.791 5.6Z" fill="#EAEEF9"/>
<path d="M25.3911 21.5C26.9375 21.5 28.1911 20.2464 28.1911 18.7C28.1911 17.1536 26.9375 15.9 25.3911 15.9C23.8447 15.9 22.5911 17.1536 22.5911 18.7C22.5911 20.2464 23.8447 21.5 25.3911 21.5Z" fill="#EAEEF9"/>
<path d="M13.6089 82.0281C16.4808 82.0281 18.8089 79.7 18.8089 76.8281C18.8089 73.9562 16.4808 71.6281 13.6089 71.6281C10.7371 71.6281 8.40894 73.9562 8.40894 76.8281C8.40894 79.7 10.7371 82.0281 13.6089 82.0281Z" fill="#EAEEF9"/>
<g filter="url(#filter0_d_303_24137)">
<path d="M127.349 77.5291H111.968C111.241 77.5291 110.617 77.0614 110.409 76.4379C108.902 71.969 105.577 70.8778 97.5223 67.708C97.0546 67.5002 97.0026 66.8766 97.4703 66.6168C99.8087 65.4736 99.393 64.4863 99.393 57.6272C99.289 57.5232 99.1851 57.3673 99.1331 57.2634C98.6135 56.484 98.2498 55.5486 98.1458 54.6133L97.6262 54.3535C96.0673 54.7172 96.1712 53.0544 95.7555 49.8327C95.5996 48.4816 95.8075 48.2218 96.3791 48.0139L96.8987 47.3384C93.8329 40.4793 95.3918 36.1663 98.4057 34.6074C97.4183 32.425 97.3664 31.6455 97.3664 31.6455C97.3664 31.6455 103.758 32.7367 105.94 32.2691C108.746 31.6975 113.007 32.373 114.618 36.0624C117.268 37.1017 118.308 38.8164 118.567 40.5832C118.931 43.4931 117.32 46.6629 117.009 47.91C117.06 47.962 117.06 48.0139 117.112 48.0659C117.528 48.2738 117.684 48.6375 117.528 49.7807C117.164 52.8465 117.216 54.7692 115.657 54.3015L114.254 56.7438C114.202 57.0556 114.151 57.1595 114.151 57.3154C114.099 57.783 114.099 58.6664 114.099 63.7588C114.099 64.3824 114.254 64.954 114.566 65.4216C114.878 65.9932 115.398 66.4089 116.021 66.6688H116.073C119.711 68.1757 122.309 69.163 124.231 69.9424C128.492 71.6572 129.22 72.1249 129.584 74.9829C129.688 76.3859 128.7 77.5291 127.349 77.5291Z" fill="white"/>
</g>
<path d="M116.903 47.8573C117.059 47.0778 116.695 46.1425 116.384 45.467C116.332 45.363 116.28 45.2591 116.228 45.1032C115.033 42.661 112.279 41.6217 109.68 41.5178C103.029 41.154 102.405 42.4531 100.327 40.5305C100.951 41.5178 101.054 43.0247 100.015 44.9473C99.3397 46.2984 97.9886 46.87 96.7934 47.2857C93.7796 40.4265 95.2865 36.1136 98.3004 34.5547C97.3131 32.3722 97.2611 31.5928 97.2611 31.5928C97.2611 31.5928 103.653 32.684 105.835 32.2163C108.641 31.6447 112.902 32.3203 114.513 36.0097C117.163 37.0489 118.202 38.7637 118.462 40.5305C118.878 43.4404 117.215 46.6102 116.903 47.8573Z" fill="url(#paint0_linear_303_24137)"/>
<path opacity="0.1" d="M125.737 77.5283C127.348 75.0341 126.724 72.6958 124.126 69.9417C128.387 71.6565 129.115 72.1242 129.478 74.9821C129.686 76.2812 128.647 77.4764 127.296 77.4764H125.737V77.5283Z" fill="#9AA2B2"/>
<path d="M114.461 65.4728V66.668H99.0278V65.1091C99.3916 64.2776 99.2876 64.3296 99.2876 57.6264C99.1837 57.5224 99.0798 57.3665 99.0278 57.2626V56.8989C99.3396 57.4705 99.8073 57.9901 100.275 58.4058L105.108 61.7834C106.251 62.7188 107.862 62.7707 109.005 61.8354L113.526 57.7822C113.681 57.6263 113.837 57.5224 113.993 57.3665C113.941 57.8342 113.941 58.7176 113.941 63.81C113.993 64.3816 114.149 64.9532 114.461 65.4728Z" fill="url(#paint1_linear_303_24137)"/>
<g filter="url(#filter1_d_303_24137)">
<path d="M47.8441 65.9405C45.3499 65.8886 45.0901 65.4209 45.0901 65.4209V61.2638C47.7402 59.0814 49.9746 56.5352 50.5982 53.2095C52.261 52.8458 53.3003 51.3389 53.1444 49.676C53.0924 48.9485 52.6247 48.273 52.5728 47.4936C52.5728 47.1298 52.5728 46.7661 52.5728 46.4023C52.5728 46.1425 52.5728 45.9347 52.5208 45.6749C52.5208 45.415 52.4689 45.1552 52.4689 44.8954C52.313 43.6483 52.0012 42.3492 51.1698 40.8423C49.0912 36.945 44.9861 34.3469 40.3614 34.3469C39.4261 34.3469 38.4907 34.4508 37.6074 34.6586C35.9445 35.0224 34.4376 35.7499 33.0866 36.7891C32.8267 36.997 32.5669 37.2048 32.3071 37.4127C32.2551 37.4647 32.2032 37.5166 32.0992 37.5686C30.6443 38.9196 29.5011 40.6344 28.8775 42.5571C28.254 44.4797 28.0981 46.4543 28.3579 48.4289C28.3579 48.4809 28.3579 48.5328 28.3579 48.5848C28.3579 48.6368 28.3579 48.6887 28.3579 48.7407C28.4099 49.1044 28.5138 49.0525 28.254 49.3643C28.202 49.4682 28.0981 49.5721 28.0461 49.728C27.7343 50.2996 27.4745 51.079 27.8383 52.0144C28.4618 53.7811 29.7089 53.5213 30.8521 54.5086C30.8002 54.5606 30.6962 54.6125 30.6443 54.6125H30.5923L29.2932 55.0282C21.4987 57.4705 20.6154 65.7327 28.6177 67.2396C28.0461 67.2916 27.5265 67.6034 27.1627 67.8632C24.6165 69.8378 23.0057 72.8517 22.59 75.8136C22.4341 76.6969 23.1616 77.5284 24.0969 77.5284H36.4642C36.724 77.5284 36.9838 77.3205 37.0877 77.0607C38.2309 72.9036 40.8291 71.4486 46.2333 69.2662L49.3511 68.0191C49.8707 67.8112 50.4423 67.6034 51.0658 67.3435C51.6374 67.1357 51.5855 66.3043 50.9619 66.1484C50.3384 65.9925 49.7148 65.9405 49.0912 65.8886C48.5716 65.9405 48.1559 65.9405 47.8441 65.9405ZM31.9953 60.6403C31.9953 60.1206 32.3591 59.5491 33.1385 58.9255C33.4503 59.3412 33.866 59.8089 34.3337 60.2246C34.6974 60.5364 35.0612 60.8481 35.4769 61.1599C35.7367 61.3158 35.9965 61.5237 36.2563 61.7315C36.3083 61.7835 36.3602 61.8354 36.4122 61.8354C36.4642 61.8874 36.5681 61.9394 36.6201 61.9913V64.5375C36.5681 64.4856 36.5161 64.4336 36.4642 64.4336C36.2043 64.2257 35.9965 64.0179 35.7886 63.862C35.4249 63.6022 35.0612 63.3943 34.6974 63.1865C34.5415 63.0826 34.4376 63.0306 34.3337 62.9267C33.1385 62.1472 32.0473 61.4197 31.9953 60.6403Z" fill="white"/>
</g>
<path d="M47.8441 65.9406C47.4284 67.4475 46.9607 68.3828 46.9607 68.3828L33.5542 66.2524L34.3336 62.9267C34.4376 63.0306 34.5935 63.0826 34.6974 63.1346C35.0611 63.3424 35.4768 63.6022 35.7886 63.862C35.9965 64.0179 36.2563 64.1738 36.4641 64.4336C36.5161 64.4856 36.5681 64.5376 36.5681 64.5376V61.9914C36.4641 61.9394 36.4122 61.8874 36.3602 61.8355C38.5427 62.9267 41.2448 63.4983 45.142 61.2119C45.09 61.2119 45.09 61.2639 45.0381 61.2639V65.4209C45.0381 65.4209 45.3499 65.8886 47.8441 65.9406Z" fill="url(#paint2_linear_303_24137)"/>
<path d="M52.4689 45.6748C50.2345 46.4543 47.8442 46.7661 45.4539 46.5582C41.7125 46.2464 38.0751 44.7395 35.2691 42.2453C34.3337 44.9474 31.9954 46.9739 29.3453 48.1691C28.9815 48.325 28.6178 48.4809 28.254 48.5848C28.254 48.5328 28.254 48.4809 28.254 48.4809C27.9942 46.5062 28.1501 44.5316 28.7737 42.609C29.3972 40.6864 30.5404 38.9716 31.9954 37.6205C32.0474 37.5686 32.0993 37.5166 32.2032 37.4646C32.4631 37.2568 32.7229 37.0489 32.9827 36.8411C34.3337 35.8538 35.8926 35.1263 37.5035 34.7106C38.4388 34.5027 39.3222 34.3988 40.2576 34.3988C44.8823 34.3988 48.9874 36.997 51.0659 40.8942C51.8454 42.4011 52.2091 43.7002 52.365 44.8954C52.4689 45.1552 52.4689 45.415 52.4689 45.6748Z" fill="url(#paint3_linear_303_24137)"/>
<path d="M33.2944 59.0814C33.6062 59.4971 33.97 59.8608 34.2817 60.1726C33.918 59.8608 33.5542 59.4971 33.2944 59.0814Z" fill="#3973F4"/>
<path d="M38.179 72.2281C37.1917 73.4752 35.321 73.5272 33.7621 73.4752C35.425 71.8644 34.4896 66.6161 28.6697 67.2396H28.6178C20.6154 65.7327 21.4988 57.4705 29.2413 55.0283L30.5404 54.6125C30.6443 54.6645 30.6963 54.7165 30.7483 54.8204C31.3718 56.4313 32.2032 57.7823 33.0866 58.8735C29.9168 61.5237 34.3337 62.3551 36.4642 64.3816C38.3349 65.4729 39.8938 70.0456 38.179 72.2281Z" fill="url(#paint4_linear_303_24137)"/>
<path d="M33.2424 59.0814C33.1904 59.0295 33.1384 58.9775 33.1384 58.9255C33.1384 58.9255 33.1904 59.0295 33.2424 59.0814Z" fill="#3973F4"/>
<g filter="url(#filter2_d_303_24137)">
<path d="M107.446 79.9187C107.706 81.8413 106.199 83.6081 104.224 83.6081H43.3234C41.3488 83.6081 39.8419 81.8413 40.1017 79.9187C40.6733 75.9175 41.5567 75.0861 47.4805 72.6958L48.9355 72.1242C51.6895 71.0329 55.275 69.6819 60.1076 67.6553C61.1988 67.1877 62.0822 66.3562 62.5498 65.265C62.8097 64.6934 62.9655 64.0179 62.9655 63.3424V54.2488C62.8097 54.0409 62.6538 53.8851 62.5498 53.6772C61.7704 52.534 61.2508 51.183 61.0949 49.728L60.3154 49.3643C57.9771 49.9358 58.1849 47.4416 57.5614 42.661C57.3016 40.6864 57.6133 40.2707 58.4967 39.9589L59.2242 38.9716C54.7553 28.8388 56.9898 22.4992 61.4067 20.2648C60.0556 17.0431 59.9517 15.8999 59.9517 15.8999C59.9517 15.8999 69.357 17.4588 72.5788 16.8352C76.6839 16.0038 83.0234 16.9911 85.3617 22.4473C89.259 24.0062 90.7659 26.4484 91.1297 29.1505C91.7012 33.4115 89.259 38.0882 88.7913 39.9069C88.8433 40.0109 88.8433 40.0628 88.8952 40.1148C89.5188 40.4266 89.7266 40.9462 89.5188 42.661C88.9472 47.1818 89.1031 49.9878 86.7647 49.3643L84.6862 53.0017C84.5823 53.4174 84.5823 53.5733 84.5303 53.8851C84.4264 54.5606 84.4783 55.9116 84.4783 63.3424C84.4783 64.2257 84.7382 65.1091 85.2058 65.7846C85.7255 66.5641 86.453 67.2396 87.3363 67.6034C87.3883 67.6034 87.3883 67.6034 87.4403 67.6553C92.7925 69.8897 96.6378 71.3447 99.4438 72.4359C105.835 74.9302 106.823 75.7096 107.446 79.9187Z" fill="white"/>
</g>
<path d="M88.8433 39.9069C89.0512 38.7637 88.5316 37.3607 88.1159 36.3734C88.0639 36.2175 87.96 36.0617 87.908 35.8538C86.0893 32.2164 82.0881 30.7614 78.2428 30.5535C68.4218 30.0339 67.5384 31.9046 64.4726 29.0986C65.4079 30.5535 65.5118 32.788 64.0569 35.594C63.0176 37.5686 61.043 38.452 59.3282 39.0236C54.8594 28.8907 57.0938 22.5512 61.5107 20.3168C60.0557 17.0431 59.9518 15.8999 59.9518 15.8999C59.9518 15.8999 69.3571 17.4588 72.5788 16.8352C76.6839 16.0038 83.0235 16.9911 85.3618 22.4473C89.2591 24.0062 90.766 26.4484 91.1297 29.1505C91.7533 33.3596 89.311 38.0363 88.8433 39.9069Z" fill="url(#paint5_linear_303_24137)"/>
<path opacity="0.1" d="M101.938 83.5561C104.328 79.9187 103.393 76.4891 99.5476 72.436C105.835 74.9302 106.874 75.7097 107.446 79.8667C107.706 81.7894 106.199 83.5561 104.224 83.5561H101.938Z" fill="#9AA2B2"/>
<path d="M85.2578 65.7846V67.5514H62.6018V65.265C62.8616 64.6934 63.0175 64.0179 63.0175 63.3423V54.2488C62.8616 54.0409 62.7057 53.885 62.6018 53.6772V53.1575C63.0695 53.9889 63.693 54.7684 64.4725 55.392L71.5915 60.3804C73.2543 61.7834 75.6446 61.8354 77.3594 60.4844L84.0107 54.5086C84.2185 54.3007 84.4783 54.0929 84.6862 53.885C84.5823 54.5605 84.6342 55.9116 84.6342 63.3423C84.5823 64.2257 84.8421 65.0571 85.2578 65.7846Z" fill="url(#paint6_linear_303_24137)"/>
<defs>
<filter id="filter0_d_303_24137" x="73.2332" y="20.6455" width="78.3579" height="89.8836" filterUnits="userSpaceOnUse" color-interpolation-filters="sRGB">
<feFlood flood-opacity="0" result="BackgroundImageFix"/>
<feColorMatrix in="SourceAlpha" type="matrix" values="0 0 0 0 0 0 0 0 0 0 0 0 0 0 0 0 0 0 127 0" result="hardAlpha"/>
<feOffset dy="11"/>
<feGaussianBlur stdDeviation="11"/>
<feColorMatrix type="matrix" values="0 0 0 0 0.397708 0 0 0 0 0.47749 0 0 0 0 0.575 0 0 0 0.27 0"/>
<feBlend mode="normal" in2="BackgroundImageFix" result="effect1_dropShadow_303_24137"/>
<feBlend mode="normal" in="SourceGraphic" in2="effect1_dropShadow_303_24137" result="shape"/>
</filter>
<filter id="filter1_d_303_24137" x="0.568848" y="23.3469" width="74.5911" height="87.1815" filterUnits="userSpaceOnUse" color-interpolation-filters="sRGB">
<feFlood flood-opacity="0" result="BackgroundImageFix"/>
<feColorMatrix in="SourceAlpha" type="matrix" values="0 0 0 0 0 0 0 0 0 0 0 0 0 0 0 0 0 0 127 0" result="hardAlpha"/>
<feOffset dy="11"/>
<feGaussianBlur stdDeviation="11"/>
<feColorMatrix type="matrix" values="0 0 0 0 0.397708 0 0 0 0 0.47749 0 0 0 0 0.575 0 0 0 0.27 0"/>
<feBlend mode="normal" in2="BackgroundImageFix" result="effect1_dropShadow_303_24137"/>
<feBlend mode="normal" in="SourceGraphic" in2="effect1_dropShadow_303_24137" result="shape"/>
</filter>
<filter id="filter2_d_303_24137" x="18.0725" y="4.8999" width="111.403" height="111.708" filterUnits="userSpaceOnUse" color-interpolation-filters="sRGB">
<feFlood flood-opacity="0" result="BackgroundImageFix"/>
<feColorMatrix in="SourceAlpha" type="matrix" values="0 0 0 0 0 0 0 0 0 0 0 0 0 0 0 0 0 0 127 0" result="hardAlpha"/>
<feOffset dy="11"/>
<feGaussianBlur stdDeviation="11"/>
<feColorMatrix type="matrix" values="0 0 0 0 0.397708 0 0 0 0 0.47749 0 0 0 0 0.575 0 0 0 0.27 0"/>
<feBlend mode="normal" in2="BackgroundImageFix" result="effect1_dropShadow_303_24137"/>
<feBlend mode="normal" in="SourceGraphic" in2="effect1_dropShadow_303_24137" result="shape"/>
</filter>
<linearGradient id="paint0_linear_303_24137" x1="95.1399" y1="39.7268" x2="118.533" y2="39.7268" gradientUnits="userSpaceOnUse">
<stop stop-color="#B0BACC"/>
<stop offset="1" stop-color="#969EAE"/>
</linearGradient>
<linearGradient id="paint1_linear_303_24137" x1="106.749" y1="66.7274" x2="106.749" y2="61.3457" gradientUnits="userSpaceOnUse">
<stop stop-color="white"/>
<stop offset="1" stop-color="#E2E5EC"/>
</linearGradient>
<linearGradient id="paint2_linear_303_24137" x1="40.7035" y1="68.4265" x2="40.7035" y2="64.4761" gradientUnits="userSpaceOnUse">
<stop stop-color="white"/>
<stop offset="1" stop-color="#E2E5EC"/>
</linearGradient>
<linearGradient id="paint3_linear_303_24137" x1="28.1226" y1="41.4933" x2="52.4734" y2="41.4933" gradientUnits="userSpaceOnUse">
<stop stop-color="#B0BACC"/>
<stop offset="1" stop-color="#969EAE"/>
</linearGradient>
<linearGradient id="paint4_linear_303_24137" x1="23.0044" y1="64.0523" x2="38.9214" y2="64.0523" gradientUnits="userSpaceOnUse">
<stop stop-color="#B0BACC"/>
<stop offset="1" stop-color="#969EAE"/>
</linearGradient>
<linearGradient id="paint5_linear_303_24137" x1="56.8737" y1="27.906" x2="91.2372" y2="27.906" gradientUnits="userSpaceOnUse">
<stop stop-color="#B0BACC"/>
<stop offset="1" stop-color="#969EAE"/>
</linearGradient>
<linearGradient id="paint6_linear_303_24137" x1="73.9367" y1="67.639" x2="73.9367" y2="59.7095" gradientUnits="userSpaceOnUse">
<stop stop-color="white"/>
<stop offset="1" stop-color="#E2E5EC"/>
</linearGradient>
</defs>
</svg>
